<svg enable-background="new 0 0 467.91 467.91" height="467.91" viewBox="0 0 467.91 467.91" width="467.91" xmlns="http://www.w3.org/2000/svg"><g transform="translate(-42 -4477)"><path d="m42 4944.91v-467.91h467.91v467.91z" fill="#fff"/><g fill="#39bfc6"><path d="m420.63 4754.34v-42.31h7.78v42.31z"/><path d="m408.26 4754.33-7.44-17.07h-.73-3.02v17.07h-7.78v-42.31h9.96c10.18 0 15.28 4.14 15.28 12.42 0 2.57-.56 4.87-1.73 6.83-1.12 1.96-2.85 3.47-5.15 4.48l8.95 18.52h-8.34zm-8.61-22.72c2.41 0 4.14-.56 5.2-1.73 1.12-1.12 1.68-2.97 1.68-5.43 0-2.35-.56-4.03-1.74-5.09-1.12-1.12-2.91-1.68-5.48-1.68h-2.18v13.88h2.52z"/><path d="m367.97 4711.19c4.98 0 8.79 1.79 11.53 5.43 2.69 3.64 4.03 9.12 4.03 16.51 0 7.27-1.34 12.81-4.03 16.51-2.68 3.69-6.55 5.6-11.53 5.6-4.92 0-8.79-1.85-11.53-5.48-2.69-3.69-4.03-9.18-4.03-16.51 0-7.27 1.34-12.76 4.03-16.45 2.75-3.77 6.61-5.61 11.53-5.61zm0 5.87c-2.46 0-4.36 1.23-5.6 3.75-1.17 2.46-1.79 6.6-1.79 12.42s.62 9.96 1.85 12.42c1.23 2.41 3.08 3.64 5.48 3.64 2.52 0 4.36-1.23 5.6-3.64 1.23-2.41 1.85-6.55 1.85-12.48 0-5.82-.62-9.9-1.85-12.37-1.23-2.51-3.07-3.74-5.54-3.74z"/><path d="m336.19 4711.19c2.46 0 4.59.45 6.49 1.29s3.64 2.13 5.2 3.86l-3.64 4.14c-1.29-1.12-2.52-2.02-3.75-2.57-1.18-.56-2.46-.84-3.81-.84-1.57 0-2.8.5-3.69 1.46-.9.95-1.34 2.18-1.34 3.75s.45 2.8 1.4 3.81c.95.95 2.8 2.01 5.48 3.08 3.52 1.46 6.1 3.08 7.72 5.04 1.68 1.9 2.52 4.65 2.52 8.11 0 2.41-.56 4.59-1.68 6.6-1.12 1.96-2.68 3.52-4.76 4.64-2.01 1.12-4.42 1.73-7.16 1.73-2.8 0-5.26-.5-7.33-1.46-2.07-1.01-3.97-2.46-5.71-4.31l3.92-4.31c1.45 1.29 2.85 2.29 4.2 3.02 1.34.67 2.8 1.06 4.42 1.06 1.9 0 3.3-.56 4.36-1.73 1.06-1.18 1.57-2.8 1.57-4.76 0-1.73-.45-3.19-1.4-4.31-.89-1.12-2.57-2.18-5.09-3.13-3.75-1.51-6.49-3.25-8.11-5.2-1.62-1.96-2.46-4.42-2.46-7.33 0-2.24.5-4.25 1.57-5.99 1.12-1.73 2.63-3.13 4.53-4.08 2.07-1.07 4.2-1.57 6.55-1.57z"/><path d="m308.49 4711.19c2.46 0 4.59.45 6.49 1.29s3.64 2.13 5.2 3.86l-3.64 4.14c-1.29-1.12-2.52-2.02-3.75-2.57-1.17-.56-2.46-.84-3.8-.84-1.57 0-2.8.5-3.69 1.46-.9.95-1.34 2.18-1.34 3.75s.45 2.8 1.4 3.81 2.8 2.01 5.48 3.08c3.52 1.46 6.1 3.08 7.72 5.04 1.68 1.9 2.52 4.65 2.52 8.11 0 2.41-.56 4.59-1.68 6.6-1.12 1.96-2.69 3.52-4.76 4.64-2.01 1.12-4.42 1.73-7.16 1.73-2.8 0-5.26-.5-7.33-1.46-2.07-1.01-3.97-2.46-5.71-4.31l3.92-4.31c1.45 1.29 2.86 2.29 4.2 3.02 1.34.67 2.8 1.06 4.42 1.06 1.9 0 3.3-.56 4.36-1.73 1.06-1.18 1.57-2.8 1.57-4.76 0-1.73-.45-3.19-1.4-4.31-.89-1.12-2.57-2.18-5.09-3.13-3.75-1.51-6.49-3.25-8.11-5.2-1.62-1.96-2.46-4.42-2.46-7.33 0-2.24.5-4.25 1.57-5.99 1.12-1.73 2.63-3.13 4.53-4.08 2.01-1.07 4.19-1.57 6.54-1.57z"/><path d="m292.82 4712.03-.78 5.82h-12.42v12.09h10.86v5.76h-10.86v12.7h13.21v5.93h-20.99v-42.31h20.98z"/><path d="m268.14 4712.03-.84 6.1h-8.67v36.21h-7.78v-36.15h-9.07v-6.1h26.36z"/><path d="m237.59 4754.33h-9.9l-10.69-34.64c.34 2.91.56 5.65.73 8.12.22 2.46.28 5.37.28 8.73v17.79h-6.83v-42.31h9.79l10.69 34.64c-.22-1.46-.5-3.52-.73-6.27-.22-2.69-.28-5.43-.28-8.23v-20.2h6.94z"/><path d="m189.8 4711.19c4.98 0 8.79 1.79 11.53 5.43 2.69 3.64 4.03 9.12 4.03 16.51 0 7.27-1.34 12.81-4.03 16.51-2.68 3.69-6.55 5.6-11.53 5.6-4.92 0-8.79-1.85-11.53-5.48-2.69-3.69-4.03-9.18-4.03-16.51 0-7.27 1.34-12.76 4.03-16.45 2.75-3.77 6.55-5.61 11.53-5.61zm0 5.87c-2.46 0-4.36 1.23-5.6 3.75-1.18 2.46-1.79 6.6-1.79 12.42s.62 9.96 1.85 12.42c1.23 2.41 3.08 3.64 5.48 3.64 2.52 0 4.37-1.23 5.6-3.64s1.85-6.55 1.85-12.48c0-5.82-.62-9.9-1.85-12.37-1.23-2.51-3.08-3.74-5.54-3.74z"/><path d="m170.33 4754.33h-7.39l-.73-17.85c-.22-6.55-.39-11.19-.39-13.93l.06-3.19-5.82 30.33h-7.33l-6.1-30.44c.05 1.23.05 3.08.05 5.65 0 4.31-.05 8.23-.22 11.81l-.67 17.63h-7.27l2.68-42.31h9.79l5.48 29.77 5.15-29.77h9.96z"/><path d="m267.92 4692.85-2.07-9.9h-10.91l-2.02 9.9h-7.78l10.63-42.31h9.4l10.58 42.31zm-11.75-15.78h8.51l-4.31-20.54z"/><path d="m231.1 4650.54v35.87h13.65l-.84 6.44h-20.54v-42.31z"/><path d="m217.84 4650.54-.78 5.82h-12.42v12.09h10.8v5.76h-10.86v12.7h13.21v5.93h-20.99v-42.31h21.04z"/><path d="m150.07 4649.7c2.18 0 4.08.39 5.71 1.12 1.68.67 3.3 1.79 4.81 3.25l-3.75 4.48c-1.06-.95-2.13-1.68-3.13-2.13-.95-.5-2.07-.73-3.24-.73-2.46 0-4.37 1.23-5.76 3.69-1.4 2.46-2.07 6.55-2.07 12.31 0 5.65.67 9.74 2.07 12.26 1.4 2.46 3.36 3.69 5.88 3.69 1.29 0 2.35-.22 3.3-.73.95-.5 2.01-1.34 3.3-2.41l3.75 4.31c-1.29 1.46-2.85 2.69-4.7 3.69-1.85.95-3.92 1.4-6.15 1.4-4.76 0-8.56-1.85-11.36-5.6-2.8-3.69-4.2-9.23-4.2-16.56 0-4.87.67-8.9 2.02-12.2 1.34-3.25 3.19-5.71 5.48-7.27 2.33-1.79 5.02-2.57 8.04-2.57z"/></g><path d="m185.71 4663.67h-.61l-4.62 1.81 3.03-4.23 3.58-1.54h-.49l-2.59.88 2.31-3.25h-.55l-.55.66-.83-3.35h-.38l.11.44-2.2-2.48h-.27l.88 1.21-3.3-.17v.28l3.9.71 1.21 1.65.39 2.37-3.08 3.96-.49-1.65 1.98-2.97h-.55l-1.65 2.2-.88-2.92h-.44l1.54 5.94-2.59 3.3-.77-2.15h-.44l.77 2.75-1.6 1.98-.11-4.35 2.97-4.35h-.55l-2.48 3.19-.05-1.87 1.87-5.44h-.82l-.83 1.38-.16-.17.22-2.86 3.03-3.3h-.44l-2.53 2.25.16-2.81h-.61l-.17 1.65-1.98-1.1h-.39l2.26 2.04-.33 3.41-.99-.88h-.55l2.2 2.37-1.98 3.46-.06 1.49-.71-1.21h-.49l1.1 3.79-.16 4.73-2.15-1.98-.44-1.43 1.32-2.37v-.66l-1.6 2.09-.88-2.92 3.3-5.06v-.5l-1.38 1.71-1.38-4.35 2.2-2.81h-.55l-1.92 1.93-.17-.55h-.49l.33 1.49-1.93-1.16h-.61l2.86 2.42.93 3.91-1.54 1.87-.72-2.37h-.49l1.98 7.7-3.24-2.97.55-6.82h-.55l-.28 1.54-2.47-1.54v.44l2.36 1.65-.66 3.74-1.1-.99-.55.66-1.7-.44v.5l2.31.66 4.23 4.57-4.13-.94v.44l5.23 1.65 3.25 3.52-.66 19.36h4.12l-.71-21.62 1.54-2.15 2.59-.27 2.97 1.43.27-.22-2.2-1.27 2.48-.27v-.38h-5.39l.77-1.15 3.74-1.81 3.25 1.15.22-.27-2.64-1.27z" fill="#155448"/></g></svg>
