<svg enable-background="new 0 0 1024 1024" height="1024" viewBox="0 0 1024 1024" width="1024" xmlns="http://www.w3.org/2000/svg"><path d="m0 0h1024v1024h-1024z" fill="#f6f1f2"/><g fill="#18b3b9"><path d="m426.4 541.4c-20.2 0-36.6-16.4-36.6-36.6s16.4-36.6 36.6-36.6 36.6 16.4 36.6 36.6-16.4 36.6-36.6 36.6zm0-70.4c-18.6 0-33.9 15.2-33.9 33.9s15.3 33.8 33.9 33.8 33.9-15.2 33.9-33.9-15.2-33.8-33.9-33.8z"/><path d="m426.4 542.4c-20.7 0-37.6-16.9-37.6-37.6s16.9-37.6 37.6-37.6 37.6 16.9 37.6 37.6-16.9 37.6-37.6 37.6zm0-73.2c-19.6 0-35.6 16-35.6 35.6s16 35.6 35.6 35.6 35.6-16 35.6-35.6-16-35.6-35.6-35.6zm0 70.5c-19.2 0-34.9-15.6-34.9-34.8s15.6-34.9 34.9-34.9c19.2 0 34.9 15.6 34.9 34.7 0 19.3-15.7 35-34.9 35zm0-67.7c-18.1 0-32.9 14.8-32.9 32.9s14.8 32.8 32.9 32.8 32.9-14.8 32.9-32.9-14.8-32.8-32.9-32.8z"/><path d="m423 490c-7 0-12.7 5.7-12.7 12.7s5.7 12.7 12.7 12.7c3 0 5.7-1.1 7.9-2.7l-1.9-1.9c-1.6 1.2-3.7 1.9-5.9 1.9-5.5 0-10-4.5-10-10s4.5-10 10-10 10 4.5 10 10c0 2.3-.8 4.5-2.2 6.2l1.9 1.9-1.8 1.8c2.9-2.3 4.7-5.9 4.7-9.8 0-7-5.8-12.8-12.7-12.8z" stroke="#18b3b9" stroke-miterlimit="10" stroke-width="2"/><path d="m432.8 510.8-2 2-.3-.3 8.2 8.1 1.9-1.9z"/><path d="m438.7 522.1-7.9-7.8-1-1 .7-.7-.4-.4 2.8-2.8 9.2 9.4zm-6.5-9.2 6.5 6.4.5-.5-6.4-6.5z"/><path d="m432.5 510.7-.8-.8z"/></g><path d="m173.8 445.9c-.6 6.1-.9 11.7-.9 16.6 0 4.3.1 7.9.4 10.6h-3c-.7-6.7-1.5-11.6-2.6-14.8-1-3.2-2.8-5.6-5.4-7.1s-6.5-2.3-11.9-2.3h-7v73.6c0 3.6.3 6.2 1 7.9.7 1.6 1.9 2.8 3.7 3.4s4.6 1 8.4 1.1v2.6c-4.5-.2-10.9-.4-19-.4-8.6 0-15 .1-19.2.4v-2.6c3.8-.1 6.6-.5 8.4-1.1s3-1.8 3.7-3.4c.7-1.7 1-4.3 1-7.9v-73.6h-7c-5.4 0-9.3.8-11.9 2.3s-4.4 3.8-5.4 7.1c-1 3.2-1.8 8.2-2.5 14.8h-3c.2-2.7.4-6.3.4-10.6 0-5.1-.3-10.6-.9-16.6 7.2.2 19.4.4 36.5.4 16.9 0 29-.2 36.2-.4z"/><path d="m190.1 484.6c2.1-5.5 5.1-9.4 9-11.8s8.2-3.7 13-3.7c6 0 10.6 1.6 13.7 4.9 1.6 1.8 2.8 4 3.5 6.6s1.1 6 1.1 10.4v34.6c0 2.4.3 4.3.9 5.6.7 1.3 1.7 2.3 3.1 2.8s3.4.8 5.8.8v2.7c-.3 0-1 0-2.1-.1-7-.2-11.4-.4-13.5-.4-3.7 0-8 .1-12.8.4l-1.8.1v-2.7c2.1 0 3.8-.3 5.1-.8 1.2-.5 2.1-1.5 2.7-2.8s.9-3.2.9-5.6v-37.4c0-3.1-.3-5.7-.8-7.8s-1.5-3.8-3.1-5.1c-1.5-1.3-3.7-1.9-6.6-1.9-3.5 0-6.6 1-9.4 3-2.7 2-4.9 4.8-6.4 8.3s-2.3 7.6-2.3 12.1v28.9c0 2.4.3 4.3.8 5.6.6 1.3 1.5 2.3 2.7 2.8s2.9.8 5.1.8v2.7l-1.8-.1c-4.9-.3-9.2-.4-12.7-.4-3.7 0-8.3.1-13.6.4l-1.9.1v-2.7c2.4 0 4.4-.3 5.8-.8s2.5-1.5 3.1-2.8c.7-1.3 1-3.2 1-5.6v-73.8c0-4-.7-6.9-2.2-8.7-1.4-1.8-4-2.7-7.7-2.7v-2.7c2.7.3 5.4.4 8 .4 5.6 0 10.1-.6 13.5-1.8v48.2z"/><path d="m291.3 522c-1 3-2.6 5.9-4.9 8.5-2.2 2.6-4.9 4.7-8.3 6.4-3.3 1.6-7 2.5-11.1 2.5-6.2 0-11.5-1.4-16-4.2s-7.9-6.8-10.2-11.8c-2.4-5.1-3.5-10.9-3.5-17.6 0-7.5 1.2-14 3.6-19.5s5.8-9.8 10.2-12.7c4.4-3 9.6-4.5 15.5-4.5 7.8 0 13.7 2.4 17.9 7.1s6.3 11.8 6.3 21.4h-40.5c-.3 2.3-.4 5.1-.4 8.3 0 5.7.9 10.7 2.8 14.9s4.4 7.5 7.4 9.8 6.2 3.4 9.6 3.4c8.7 0 15-4.3 19-13zm-25.3-50.5c-2.7 0-5.1.9-7.3 2.6s-4.1 4.3-5.6 7.8-2.5 7.9-3 13.1h28.2c.2-4.3-.2-8.2-1.1-11.8s-2.3-6.4-4.2-8.5c-1.8-2.1-4.2-3.2-7-3.2z"/><path d="m356.8 448.5c-3.1.1-5.4.5-6.8 1s-2.4 1.6-2.9 3c-.5 1.5-.8 3.8-.8 7.1v64.2c0 3.2.2 5.6.8 7.1.5 1.4 1.5 2.4 2.9 2.9s3.7.8 6.8.8h9.5c5.4 0 9.5-.8 12.3-2.3s4.8-3.9 6.1-7.3c1.3-3.3 2.2-8.2 2.9-14.7h3c-.3 2.7-.4 6.2-.4 10.6 0 4.9.3 10.4.9 16.6-5.9-.2-15.7-.4-29.6-.4-16.6 0-29.1.1-37.5.4v-2.6c3.1-.1 5.4-.5 6.8-1s2.4-1.6 2.9-3c.5-1.5.8-3.8.8-7.1v-64.2c0-3.2-.3-5.6-.8-7.1s-1.5-2.5-2.9-3-3.6-.9-6.8-1v-2.6c3.6.2 9.1.4 16.6.4 7 0 12.5-.1 16.4-.4v2.6z"/><path d="m495.1 469.1c5.8 0 10.8 1.4 15 4.1 4 2.7 6.1 6.1 6.1 10 0 2.3-.6 4.1-2 5.4-1.3 1.3-2.9 1.9-4.9 1.9s-3.7-.6-5.1-1.7c-1.3-1.2-2-2.8-2-4.8 0-1.8.5-3.4 1.5-4.6 1.1-1.3 2.4-2.1 3.9-2.5-.9-1.6-2.4-2.8-4.6-3.9-2.2-1-4.6-1.6-7-1.6-3.2 0-6.1 1-8.9 3s-5.1 5.4-6.9 10.1-2.7 10.9-2.7 18.6c0 10.8 1.7 18.6 5.2 23.4s7.9 7.3 13.5 7.3c3.7 0 7.2-1.1 10.5-3.2 3.4-2.1 6.1-5.5 8.3-10.1l2.5.9c-1 3.1-2.5 6-4.5 8.7s-4.7 4.9-8 6.7c-3.2 1.7-7 2.6-11.4 2.6-5.4 0-10.3-1.4-14.6-4.2s-7.8-6.8-10.3-11.9c-2.5-5.2-3.7-11.3-3.7-18.2 0-7 1.3-13.2 3.8-18.6 2.6-5.5 6.2-9.7 10.8-12.8 4.4-3.1 9.7-4.6 15.5-4.6z"/><path d="m543.4 469.1c3.5 0 6.7.4 9.3 1.3 2.7.8 4.8 2 6.3 3.5 2 2 3.3 4.4 4 7.1.8 2.7 1.1 6.3 1.1 11.1v36c0 2.1.3 3.7.9 4.7s1.7 1.5 3.1 1.5c1 0 2-.2 2.9-.7s1.9-1.1 2.9-2l1.5 2.2c-1.5 1.1-2.8 2-3.8 2.7-1 .6-2.2 1.1-3.5 1.5s-2.8.6-4.6.6c-4.2 0-7.1-1-8.7-3.1s-2.4-4.9-2.4-8.4c-2.5 4.2-5.6 7.1-9.1 8.9-3.5 1.7-7.1 2.6-10.8 2.6-3 0-5.7-.5-8.2-1.5-2.5-1.1-4.5-2.7-6-4.8-1.5-2.2-2.2-4.9-2.2-8.2s.8-6.1 2.4-8.4 3.9-4.3 6.8-6.1 6.8-3.7 11.7-5.7l2.5-1.1c3.1-1.2 5.5-2.3 7.2-3.1 1.7-.9 3.1-1.8 4.2-2.9s1.6-2.4 1.6-3.9v-8c0-5-1-8.4-3.2-10.2-2.1-1.9-5-2.8-8.9-2.8-6.1 0-10.4 1.5-12.8 4.6 1.7.4 3.2 1.3 4.3 2.8 1.2 1.4 1.8 3.1 1.8 5.1 0 2.2-.7 3.9-2.1 5.2-1.3 1.2-3.2 1.8-5.5 1.8-2.2 0-3.9-.7-5.2-2.2-1.2-1.5-1.8-3.4-1.8-5.8 0-3.4 2-6.4 6.1-9.2 2.1-1.4 4.7-2.5 7.8-3.5 3.1-1.1 6.6-1.6 10.4-1.6zm9.1 28.9c-.6 1-1.7 1.9-3.2 2.7s-4.6 2.4-9.2 4.7c-2.5 1.2-4.6 2.4-6.3 3.7-1.7 1.2-3.2 2.9-4.4 5s-1.8 4.7-1.8 7.8c0 3.7.9 6.6 2.8 8.5s4.4 2.8 7.5 2.8c5.7 0 10.6-3.3 14.6-9.8z"/><path d="m589.2 525.5c0 2.4.3 4.3.9 5.6.7 1.3 1.7 2.3 3.1 2.8s3.4.8 5.8.8v2.7l-2-.1c-5.3-.3-9.9-.4-13.7-.4s-8.4.1-13.7.4l-2 .1v-2.7c2.4 0 4.4-.3 5.7-.8 1.4-.5 2.5-1.5 3.1-2.8.7-1.3 1-3.2 1-5.6v-73.9c0-4-.7-6.9-2.2-8.7-1.4-1.8-4-2.7-7.6-2.7v-2.7c2.7.2 5.4.4 8 .4 5.6 0 10-.6 13.5-1.8v89.4z"/><path d="m696.8 527c1.4 2.2 3 3.9 4.8 5.1s4 2.1 6.6 2.8v2.6c-4.1-.2-9.2-.4-15.5-.4-4.7 0-9.1.1-13.3.4v-2.6c2-.1 3.5-.3 4.5-.8 1-.4 1.5-1.1 1.5-2 0-.8-.5-1.8-1.3-3.1l-18.9-28.5c-1.7-2.7-3.2-4.6-4.6-5.9-1.3-1.3-2.5-2.1-3.9-2.6-1.3-.5-3-.8-5.2-.9v32.6c0 3.2.2 5.6.8 7.1.5 1.5 1.5 2.5 2.9 3s3.7.9 6.8 1v2.6c-4-.2-9.4-.4-16.4-.4-7.4 0-12.9.1-16.6.4v-2.5c3.1-.1 5.4-.5 6.8-1s2.4-1.6 2.9-3c.5-1.5.8-3.8.8-7.1v-64.2c0-3.2-.3-5.6-.8-7.1s-1.5-2.5-2.9-3-3.6-.9-6.8-1v-2.6c3.6.2 9.1.4 16.6.4 7 0 12.5-.1 16.4-.4v2.6c-3.1.1-5.4.5-6.8 1s-2.4 1.6-2.9 3c-.5 1.5-.8 3.8-.8 7.1v29c6.2-.2 11.2-2.6 14.8-7.3l12.4-15.8c4.4-5.6 6.6-9.7 6.6-12.4 0-3-2.7-4.6-8-4.7v-2.5c4.9.2 9.9.4 14.8.4 4.8 0 8.5-.1 11.1-.4v2.6c-2.9.4-5.6 1.3-8.1 2.8-2.5 1.4-4.9 3.6-7.2 6.6l-21.1 27z"/><path d="m744.7 469.1c6 0 10.6 1.6 13.7 4.9 1.6 1.8 2.7 4 3.4 6.6s1.1 6 1.1 10.4v34.6c0 2.4.3 4.3.9 5.6.7 1.3 1.7 2.3 3.1 2.8s3.4.8 5.8.8v2.7l-1.9-.1c-5.4-.3-9.9-.4-13.7-.4-3.5 0-7.8.1-12.7.4l-1.8.1v-2.7c2.1 0 3.8-.3 5-.8s2.1-1.5 2.7-2.8.9-3.2.9-5.6v-37.4c0-3.1-.3-5.7-.8-7.8s-1.5-3.8-3-5.1-3.8-1.9-6.7-1.9c-3.5 0-6.7 1-9.5 3.1-2.7 2.1-4.9 4.9-6.4 8.5s-2.3 7.6-2.3 11.9v28.8c0 2.4.3 4.3.8 5.6.6 1.3 1.5 2.3 2.7 2.8s2.9.8 5.1.8v2.7l-1.8-.1c-4.8-.3-9.1-.4-12.8-.4s-8.3.1-13.6.4l-1.9.1v-2.7c2.4 0 4.4-.3 5.8-.8s2.5-1.5 3.1-2.8c.7-1.3 1-3.2 1-5.6v-40.5c0-4-.7-6.9-2.2-8.7-1.4-1.8-4-2.7-7.7-2.7v-2.7c2.7.3 5.4.4 8 .4 5.5 0 10-.6 13.5-1.8v15.2c2.1-5.5 5.1-9.4 9-11.9 4-2.7 8.4-3.9 13.2-3.9z"/><path d="m799.5 469.1c5.7 0 10.7 1.2 15.1 3.7s7.9 6.4 10.4 11.6c2.6 5.2 3.9 11.8 3.9 19.8s-1.3 14.6-3.9 19.9c-2.5 5.2-6 9.1-10.4 11.6-4.4 2.4-9.4 3.7-15.1 3.7s-10.7-1.2-15.2-3.7c-4.4-2.5-7.9-6.3-10.4-11.6-2.5-5.2-3.8-11.8-3.8-19.9 0-8 1.3-14.6 3.8-19.8 2.6-5.3 6-9.2 10.4-11.6 4.4-2.5 9.5-3.7 15.2-3.7zm0 2.6c-5.2 0-9.3 2.7-12.3 8s-4.5 13.5-4.5 24.6 1.5 19.3 4.5 24.6 7.1 7.9 12.3 7.9 9.3-2.6 12.3-7.9 4.6-13.5 4.6-24.6-1.5-19.3-4.6-24.6c-3-5.4-7.1-8-12.3-8z"/><path d="m913 471.2c3.8 0 7.1-.1 9.9-.4v2.6c-1.8.2-3.4 1-4.8 2.3s-2.6 3.6-3.6 6.8l-18.8 55.6h-2.2l-20.5-52.1-18.5 52.1h-2.1l-21.2-57.3c-1.2-3-2.4-5-3.7-5.9s-2.5-1.4-3.9-1.4v-2.7c3.6.5 7.4.8 11.4.8 3.8 0 9.4-.3 16.8-.8v2.7c-2.1 0-3.8.1-5 .2s-2.1.5-2.9 1.2c-.7.7-1.1 1.8-1.1 3.3 0 1.6.4 3.6 1.3 6.1l12.9 37.2 18.6-51.3h3l19.8 52.4 12.1-37.1c.8-2.5 1.2-4.5 1.2-5.9 0-2.1-.8-3.6-2.3-4.5-1.5-1-3.9-1.6-7.3-1.8v-2.6c4.6.4 8.2.5 10.9.5z"/><path d="m407.3 612.7h7.7l-.5 1.1h-7.7l-3.6 7.8h-1.3l3.6-7.8h-8.8l-3.6 7.8h-1.3l3.6-7.8h-7.9l.5-1.1h7.9l4.2-9h-7.9l.4-1.1h7.9l3.7-7.9h1.3l-3.7 7.9h8.8l3.7-7.9h1.3l-3.7 7.9h7.6l-.4 1.1h-7.7zm-5.9-9-4.2 9h8.8l4.2-9z"/><path d="m461.6 583.1c.8 0 1.4.2 1.8.7s.6 1.1.6 1.8c0 .8-.2 1.5-.7 2.2s-1.1 1.2-1.8 1.7c-1.9 1.2-4.7 1.7-8.5 1.7-1.5 0-3.4-.1-5.5-.4l-7.9 29.8c-.3 1.1-.5 2-.5 2.7 0 .6.2 1.1.5 1.4s.8.6 1.4.7 1.5.2 2.7.3l-.2 1.1c-1.9-.1-4.6-.2-8-.2-3.5 0-6.1.1-7.8.2l.2-1.1c1.5-.1 2.7-.2 3.5-.5.9-.3 1.5-.8 2-1.5s.9-1.7 1.3-3.1l8.1-30.4c-2.8-.4-5.1-.6-6.9-.6-3.1 0-5.1.3-6 .9.3.4.5.8.7 1.4s.3 1.1.3 1.7c0 .8-.2 1.5-.7 2.2-.5.6-1.1.9-2 .9-.8 0-1.3-.2-1.8-.7-.4-.5-.6-1.1-.6-2 0-1.9.9-3.3 2.8-4.2 1.7-.8 4.1-1.2 7.2-1.2 2.3 0 5.3.2 8.9.7 3.7.5 6.7.7 8.7.7 1.6 0 2.9-.1 4-.3s2-.5 2.9-.9c-.9-.9-1.3-1.9-1.3-3 0-.8.2-1.5.7-2.1.4-.3 1.1-.6 1.9-.6z"/><path d="m485.1 615.7c-.2.6-.6 1.8-1.1 3.6 0 .2-.1.4-.2.8-.5 1.9-1 4.2-1.4 6.9-2.4-.1-6.5-.2-12.3-.2-6.9 0-12 .1-15.5.2l.3-1.1c1.3-.1 2.3-.2 2.9-.4s1.1-.6 1.5-1.3c.4-.6.8-1.6 1.1-2.9l7.1-26.6c.3-1.1.5-2 .5-2.6 0-.5-.1-.9-.4-1.2-.2-.3-.6-.5-1.1-.6s-1.2-.2-2.1-.2l.3-1.1c1.5.1 3.8.2 6.9.2 2.9 0 5.2-.1 6.8-.2l-.3 1.1c-1.3.1-2.3.2-2.9.4s-1.1.6-1.5 1.3c-.4.6-.8 1.6-1.1 2.9l-7.1 26.6c-.3 1.1-.5 2-.5 2.6 0 .5.1.9.4 1.2.2.3.6.5 1.1.5.5.1 1.2.1 2.2.1h3.9c2.2 0 4-.3 5.4-.9 1.3-.6 2.4-1.6 3.3-3s1.8-3.4 2.8-6.1z"/><path d="m523.1 588.2c1.1 0 1.9.3 2.4.8s.8 1.2.8 2.1c0 .5-.1 1-.4 1.6-.2.6-.5 1.1-1 1.5-.4.4-1 .6-1.7.6s-1.2-.2-1.6-.6c-.3-.4-.5-.9-.5-1.5 0-.5.2-1.1.5-1.7s.7-1.2 1.2-1.6h-.2c-.7 0-1.4.3-1.9.8-.6.5-1.1 1.3-1.6 2.3-.4.9-.9 2.3-1.6 4-.7 2.1-1.5 3.9-2.1 5.3-.7 1.4-1.6 2.6-2.8 3.6s-2.7 1.7-4.5 1.9c1.3.3 2.3.6 3.1 1.1.8.4 1.4 1.2 1.8 2.3.5 1.1.7 2.6.7 4.5v.9l-.2 6.1v.6c0 .7.1 1.2.3 1.6s.7.5 1.3.5c.9 0 1.7-.3 2.3-1s1.2-1.7 1.7-3.2l.9-2.7h1.1l-1.4 4.1c-.7 2-1.5 3.4-2.6 4.4-1.1.9-2.4 1.4-3.9 1.4-3 0-4.5-1.8-4.5-5.3 0-.4 0-.7 0-.9l.4-6.1c0-.7.1-1.4.1-2.1 0-1.6-.2-2.8-.5-3.6s-.8-1.5-1.5-2.1c-1.2.3-2.3.5-3.1.5-1.1 0-1.7-.4-1.7-1.1s.5-1.1 1.6-1.1c.7 0 1.8.2 3.3.5 1.8-.2 3.3-.9 4.5-1.9s2.1-2.2 2.7-3.5 1.3-3 2.1-5.2c.6-1.8 1.1-3.2 1.6-4.2s1.1-1.9 1.8-2.5c1-.7 2.1-1.1 3.1-1.1zm-25.8 33.1c-.3 1.2-.5 2-.5 2.6 0 .5.1.9.3 1.2s.6.5 1.1.6 1.2.2 2.1.2l-.2 1.1c-1.7-.1-3.9-.2-6.8-.2-3 0-5.3.1-6.8.2l.3-1.1c1.3-.1 2.2-.2 2.8-.4s1.1-.6 1.5-1.3c.4-.6.7-1.6 1.1-2.9l7.1-26.6c.3-1.1.4-2 .4-2.6 0-.5-.1-.9-.4-1.2-.2-.3-.6-.5-1.1-.6s-1.2-.2-2.1-.2l.3-1.1c1.5.1 3.7.2 6.8.2 2.9 0 5.2-.1 6.9-.2l-.3 1.1c-1.3.1-2.3.2-2.9.4s-1.1.6-1.5 1.3c-.4.6-.7 1.6-1.1 2.9z"/><path d="m530.6 622.5c-.2.8-.3 1.4-.3 1.9 0 1 .4 1.4 1.3 1.4.7 0 1.4-.4 2-1.2s1.3-2.3 2-4.2l.7-2h1l-1.3 3.9c-1.3 3.7-3.4 5.5-6.5 5.5-2.5 0-3.7-1.2-3.7-3.5 0-1 .2-2.4.7-4l8.8-29.1c.2-.6.3-1.2.3-1.5 0-.7-.3-1.2-.8-1.5-.6-.3-1.5-.5-2.8-.5l.4-1.1c1.9 0 3.6-.2 5.1-.6s3-.9 4.5-1.6z"/><path d="m541.6 619.3c0-2.8.6-5.8 1.9-9.1 1.3-3.2 3.1-6 5.4-8.2 2.4-2.2 5.1-3.4 8.2-3.4 2.3 0 4.1.7 5.4 2.1s2 3.5 2 6.3-.6 5.9-1.9 9.1c-1.2 3.2-3 6-5.4 8.2-2.3 2.2-5.1 3.4-8.2 3.4-2.3 0-4.1-.7-5.4-2.1s-2-3.5-2-6.3zm15.2-19.6c-1.8 0-3.6 1.2-5.2 3.5s-2.9 5.2-3.9 8.7-1.5 6.9-1.5 10.1c0 3.1 1 4.7 3.1 4.7 1.8 0 3.6-1.2 5.2-3.5s2.9-5.2 3.9-8.7 1.5-6.9 1.5-10.1c0-1.6-.2-2.8-.8-3.5-.5-.8-1.2-1.2-2.3-1.2z"/><path d="m584.6 599.7c-1.8 0-3.6 1-5.4 2.9s-3.2 4.5-4.3 7.7-1.7 6.5-1.7 10c0 1.7.3 3 1 3.9.7.8 1.6 1.3 2.8 1.3 2.9 0 5.6-1.8 8.1-5.4l1.1.4c-.7 1.3-1.7 2.4-2.8 3.5s-2.4 2-3.8 2.6c-1.4.7-2.8 1-4.3 1-2.2 0-3.9-.7-5.2-2s-1.9-3.3-1.9-5.9c0-2.9.7-6 2-9.4 1.4-3.3 3.3-6.1 5.7-8.4 2.5-2.3 5.3-3.4 8.4-3.4 1.1 0 2 .2 2.9.5.9.4 1.6.9 2.1 1.6s.8 1.5.8 2.4c0 .7-.2 1.4-.5 2-.3.7-.8 1.2-1.4 1.6s-1.2.6-2 .6c-.7 0-1.3-.2-1.6-.6-.4-.4-.6-.9-.6-1.5 0-1 .4-1.9 1.2-2.6.8-.8 1.8-1.2 2.9-1.4-.7-.8-1.9-1.4-3.5-1.4z"/><path d="m616.4 618.3-1.3 3.9c-.7 2-1.7 3.4-2.8 4.3s-2.2 1.3-3.4 1.3c-.7 0-1.3-.1-1.8-.4-.5-.2-.9-.6-1.2-1-.3-.5-.4-1.2-.4-1.9 0-.5.1-1.1.2-1.6.1-.6.2-1.1.4-1.6.1-.5.2-.9.3-1l1-3.9c-1.7 4-3.5 6.9-5.2 8.8-1.8 1.8-3.6 2.7-5.6 2.7-1.6 0-2.9-.6-3.8-1.7-.9-1.2-1.3-2.8-1.3-4.8 0-2.9.8-6.1 2.3-9.7 1.6-3.6 3.6-6.6 6-9.1 2.5-2.5 5-3.8 7.6-3.8 1 0 1.7.3 2.4 1 .6.7 1 1.7 1.1 3l.8-3.3c2-.1 3.6-.3 5-.7l-6.7 23.7c-.3.9-.4 1.6-.4 2 0 .9.4 1.3 1.2 1.3 1.6 0 2.9-1.8 4.1-5.5l.7-2zm-18.4 7.7c1 0 2.2-.8 3.6-2.3s2.8-3.6 4.1-6.1c1.3-2.6 2.4-5.3 3.3-8.2l1-3.9c0-.5 0-.9 0-1.2 0-1.4-.3-2.6-.8-3.4s-1.2-1.3-2.2-1.3c-1.5 0-3.1 1.2-4.9 3.6-1.7 2.4-3.2 5.3-4.3 8.8-1.2 3.5-1.7 6.8-1.7 9.9 0 1.5.2 2.5.5 3.2.3.6.8.9 1.4.9z"/><path d="m625 622.5c-.2.8-.3 1.4-.3 1.9 0 1 .4 1.4 1.2 1.4.7 0 1.4-.4 2-1.2s1.3-2.3 2-4.2l.7-2h1l-1.3 3.9c-1.3 3.7-3.4 5.5-6.4 5.5-2.5 0-3.7-1.2-3.7-3.5 0-1 .2-2.4.7-4l8.8-29.1c.2-.6.3-1.2.3-1.5 0-.7-.3-1.2-.8-1.5-.6-.3-1.5-.5-2.8-.5l.4-1.1c1.9 0 3.6-.2 5.1-.6s3-.9 4.5-1.6z"/></svg>