<?xml version="1.0" encoding="utf-8"?>
<!-- Generator: Adobe Illustrator 21.0.0, SVG Export Plug-In . SVG Version: 6.00 Build 0)  -->
<svg version="1.1" id="Layer_1" xmlns="http://www.w3.org/2000/svg" xmlns:xlink="http://www.w3.org/1999/xlink" x="0px" y="0px"
	 viewBox="0 0 1024 1024" enable-background="new 0 0 1024 1024" xml:space="preserve">
<rect fill="#F77700" width="1024" height="1022"/>
<g id="icon" transform="translate(0 246.9193392061994) ">
	<path fill="#FFDC9C" d="M641.1,152c0-37.4-15.9-71.2-41.3-94.9c-0.1-0.1-0.2-0.3-0.3-0.3c-8.1-7.5-17-13.8-26.5-19
		c-0.1-0.1-0.3-0.1-0.4-0.2c-1.6-0.9-3.3-1.8-5.1-2.6c-0.3-0.1-0.5-0.3-0.8-0.4c-1.6-0.7-3.1-1.5-4.7-2.1c-0.4-0.2-0.8-0.3-1.3-0.5
		c-1.4-0.6-2.9-1.2-4.4-1.7c-0.6-0.2-1.1-0.4-1.7-0.6c-1.3-0.5-2.7-1-4.1-1.4c-0.7-0.2-1.4-0.4-2-0.7c-1.3-0.4-2.5-0.7-3.8-1.1
		c-0.8-0.2-1.6-0.4-2.4-0.6c-1.1-0.3-2.3-0.6-3.5-0.8c-0.9-0.2-1.7-0.4-2.6-0.6c-1.2-0.2-2.4-0.4-3.6-0.7c-0.9-0.2-1.8-0.3-2.7-0.4
		c-1.2-0.2-2.4-0.3-3.6-0.5c-0.9-0.1-1.8-0.2-2.6-0.3c-1.4-0.1-2.7-0.2-4.1-0.3c-0.7,0-1.5-0.1-2.3-0.2c-2.1-0.1-4.3-0.1-6.4-0.1
		c-3.1,0-6.2,0.1-9.2,0.3c-0.8,0-1.6,0.1-2.3,0.2c-2.9,0.3-5.8,0.6-8.6,1c-0.8,0.1-1.6,0.3-2.4,0.4c-2.1,0.4-4.2,0.8-6.3,1.3
		c-1.1,0.3-2.1,0.5-3.2,0.7c-2.4,0.6-4.9,1.3-7.2,2c-1.3,0.4-2.5,0.8-3.8,1.3c-1.6,0.5-3.1,1.1-4.6,1.7c-1.8,0.7-3.6,1.5-5.4,2.3
		c-1.5,0.7-3.1,1.4-4.6,2.1c-1.3,0.6-2.5,1.3-3.7,1.9c-2.1,1.1-4.2,2.3-6.2,3.6c-1.1,0.7-2.2,1.4-3.2,2.1c-1.5,1-2.9,2-4.3,2.9
		c-0.7,0.5-1.5,1-2.2,1.5c-0.1,0-0.1,0.1-0.2,0.2c-32,23.8-52.7,61.8-52.7,104.5c0,67.2,51.2,122.7,116.6,129.4c0,0,0,0,0,0
		s0,0,0.1,0c4.4,0.5,8.8,0.7,13.4,0.7c2.8,0,5.5-0.1,8.3-0.3c0.7,0,1.3-0.1,2-0.1c2.4-0.2,4.8-0.4,7.2-0.7c0.3,0,0.7-0.1,1-0.1
		c5.8-0.8,11.5-2,17-3.6c0.2,0,0.3-0.1,0.5-0.1c0,0,0,0,0.1,0C601.3,261.3,641.1,211.2,641.1,152z M593.4,69.6c0,21.5-17.5,39-39,39
		h-91.1c-2.4,0-4.3,2-4.3,4.3c0,2.4,2,4.3,4.3,4.3h91.1c21.5,0,39,17.5,39,39s-17.5,39-39,39H524h-56.4c-2.4,0-4.3,2-4.3,4.3
		c0,2.4,2,4.3,4.3,4.3H524c9.6,0,17.3,7.8,17.3,17.3v48.2c-3,0.8-6.1,1.4-9.2,2c-0.3,0-0.6,0.1-0.9,0.2c-3,0.5-6,0.9-9,1.2
		c-0.4,0-0.8,0-1.2,0.1c-2.6,0.2-5.3,0.3-8,0.4c-0.5,0-1,0-1.5,0c-2.9,0-5.8-0.1-8.6-0.3c-0.3,0-0.5,0-0.8,0v-30
		c0-2.4-2-4.3-4.3-4.3h-26c-21.5,0-39-17.5-39-39s17.5-39,39-39H563c2.4,0,4.3-2,4.3-4.3c0-2.4-2-4.3-4.3-4.3H472
		c-21.5,0-39-17.5-39-39s17.5-39,39-39H563c2.4,0,4.3-2,4.3-4.3c0-2.4-2-4.3-4.3-4.3H472c-11.3,0-22.1-5-29.5-13.5
		c0.7-0.5,1.4-1,2.1-1.4c1.3-0.9,2.7-1.7,4-2.6c1.2-0.7,2.3-1.4,3.5-2c1.1-0.6,2.1-1.2,3.2-1.7c1.9-1,3.9-2,5.9-2.8
		c1.1-0.5,2.2-1,3.3-1.4c1.3-0.5,2.6-1,3.9-1.5c1.3-0.5,2.5-0.9,3.8-1.3c1.8-0.6,3.6-1.2,5.3-1.6c1.5-0.4,2.9-0.8,4.4-1.2
		c1.1-0.3,2.2-0.5,3.3-0.8c2.1-0.5,4.3-0.9,6.5-1.2c0.7-0.1,1.4-0.2,2.2-0.3c2.2-0.3,4.4-0.6,6.6-0.7c0.8-0.1,1.5-0.1,2.3-0.2
		c2.8-0.2,5.5-0.3,8.2-0.3c2,0,4,0,5.9,0.1c0.7,0,1.4,0.1,2.1,0.1c1.3,0.1,2.6,0.2,3.8,0.3c0.8,0.1,1.6,0.2,2.4,0.3
		c1.1,0.1,2.3,0.3,3.4,0.4c0.9,0.1,1.7,0.3,2.5,0.4c1.1,0.2,2.2,0.4,3.3,0.6c0.8,0.2,1.6,0.3,2.4,0.5c1.1,0.3,2.3,0.5,3.3,0.8
		c0.7,0.2,1.5,0.4,2.3,0.6c1.2,0.3,2.3,0.7,3.5,1c0.7,0.2,1.3,0.4,2,0.6c1.3,0.4,2.6,0.8,3.8,1.3c0.5,0.2,1,0.3,1.6,0.6
		c1.4,0.5,2.8,1.1,4.2,1.6c0.3,0.1,0.7,0.3,1,0.4c1.6,0.7,3.2,1.4,4.7,2.1c0.1,0.1,0.3,0.1,0.4,0.2c10.6,5.1,20.3,11.8,29,19.6
		C593.1,64.7,593.4,67.2,593.4,69.6z M389.6,152c0-38.5,18-72.8,46.1-95.1c4.6,5.4,10.2,9.8,16.5,12.7
		c-16.4,7.6-27.9,24.2-27.9,43.4s11.4,35.8,27.8,43.4c-16.4,7.5-27.8,24.2-27.8,43.4c0,26.3,21.4,47.7,47.7,47.7h21.7v24.8
		C434.9,263.7,389.6,213.1,389.6,152z M550,267v-45.6c0-6.7-2.5-12.8-6.6-17.3h11c26.3,0,47.7-21.4,47.7-47.7
		c0-19.2-11.4-35.8-27.8-43.4C590,105.7,601.2,90,602,71.7c18.9,21.4,30.4,49.5,30.4,80.3C632.4,205.3,597.9,250.7,550,267z"/>
</g>
<g id="title">
	<path id="path14" fill="#FFFFFF" d="M138.1,607.8v47.3c0,5.2,4.9,7.8,14.6,7.8c9.8,0,14.7-2.6,14.7-7.8v-7.2c0-1.5,1.3-2.3,4-2.3
		c2.7,0,4,0.8,4,2.3v6.2c0,10.5-7.4,15.8-22.3,15.8c-6.9,0-12.5-1.2-16.7-3.7c-4.2-2.5-6.3-6.6-6.3-12.1v-45.3c0-5.5,2.1-9.5,6.3-12
		c4.2-2.5,9.8-3.8,16.7-3.8c14.8,0,22.3,5.3,22.3,15.8v6.2c0,1.5-1.3,2.3-4,2.3c-2.7,0-4-0.8-4-2.3v-7.2c0-5.2-4.9-7.8-14.7-7.8
		C143,600,138.1,602.6,138.1,607.8z"/>
	<path id="path16" fill="#FFFFFF" d="M261.8,608.8v45.3c0,5.5-2.2,9.6-6.5,12.1c-4.3,2.5-9.9,3.7-17,3.7c-15.2,0-22.8-5.3-22.8-15.8
		v-45.3c0-5.5,2.1-9.5,6.4-12c4.3-2.5,10-3.8,17.1-3.8C254.2,593,261.8,598.3,261.8,608.8z M223.6,607.8v47.3c0,5.2,5,7.8,15.1,7.8
		c10.1,0,15.2-2.6,15.2-7.8v-47.3c0-5.2-5.1-7.8-15.2-7.8C228.6,600,223.6,602.6,223.6,607.8z"/>
	<path id="path18" fill="#FFFFFF" d="M320.7,661.4h16.2c1.3,0,2,1.2,2,3.5c0,2.3-0.7,3.5-2,3.5h-16.2c-5.7,0-9.8-1.4-12.2-4.1
		c-2.4-2.8-3.6-7.3-3.6-13.5v-54.5c0-1.5,1.3-2.3,4-2.3c2.7,0,4,0.8,4,2.3v54.5c0,3.9,0.6,6.6,1.7,8.2
		C315.8,660.6,317.8,661.4,320.7,661.4L320.7,661.4z"/>
	<path id="path20" fill="#FFFFFF" d="M418.4,608.8v45.3c0,5.5-2.2,9.6-6.5,12.1c-4.3,2.5-9.9,3.7-17,3.7c-15.2,0-22.8-5.3-22.8-15.8
		v-45.3c0-5.5,2.1-9.5,6.4-12c4.3-2.5,10-3.8,17.1-3.8C410.8,593,418.4,598.3,418.4,608.8L418.4,608.8z M380.2,607.8v47.3
		c0,5.2,5,7.8,15.1,7.8c10.1,0,15.2-2.6,15.2-7.8v-47.3c0-5.2-5.1-7.8-15.2-7.8C385.2,600,380.2,602.6,380.2,607.8z"/>
	<path id="path22" fill="#FFFFFF" d="M470.5,601.5h-1v65.1c0,1.5-1.3,2.3-4,2.3s-4-0.8-4-2.3V602c0-2.9,0.3-4.9,1-5.9
		c0.7-1.1,2.4-1.6,5-1.6h2.2c4.7,0,7.8,0.5,9.4,1.6c1.6,1.1,2.9,3.7,4,8l13,52.4c0.6,2.4,1.2,3.9,1.7,4.5c0.5,0.6,1.9,0.9,4,0.9h1
		v-65.1c0-1.5,1.3-2.3,4-2.3c2.7,0,4,0.8,4,2.3v64.6c0,2.9-0.4,4.9-1.1,6c-0.7,1-2.3,1.5-4.9,1.5h-2.2c-4.7,0-7.8-0.5-9.4-1.6
		c-1.6-1.1-2.9-3.7-4-8l-13-52.4c-0.6-2.4-1.2-3.9-1.7-4.5C474,601.8,472.6,601.5,470.5,601.5L470.5,601.5z"/>
	<path id="path24" fill="#FFFFFF" d="M561.9,642.6v12.5c0,5.2,4.7,7.8,14.1,7.8c9.5,0,14.2-2.6,14.2-7.8v-7.2c0-1.5,1.3-2.3,4-2.3
		c2.7,0,4,0.8,4,2.3v6.2c0,5.5-2,9.6-6,12.1c-4,2.5-9.4,3.7-16.1,3.7c-6.7,0-12-1.2-16.1-3.7c-4.1-2.5-6.1-6.6-6.1-12.1v-11.5
		c0-6.9,2.9-11,8.8-12.4c-5.2-1.6-7.8-5.7-7.8-12.2v-9.3c0-5.5,2-9.5,6.1-12c4.1-2.5,9.2-3.8,15.5-3.8c6.3,0,11.3,1.3,15,3.8
		c3.7,2.5,5.5,6.5,5.5,12v1.5c0,1.5-1.3,2.3-4,2.3c-2.7,0-4-0.8-4-2.3v-2.5c0-5.2-4.4-7.8-13.1-7.8c-8.7,0-13,2.6-13,7.8v10.3
		c0,5.9,3.6,8.8,10.8,8.8h7.5c1.3,0,2,1.2,2,3.5c0,2.3-0.7,3.5-2,3.5h-8.5C565.5,633.8,561.9,636.8,561.9,642.6L561.9,642.6z"/>
	<path id="path26" fill="#FFFFFF" d="M630.4,594.5h41.9c1.3,0,2,1.2,2,3.5c0,2.3-0.7,3.5-2,3.5h-17v65.1c0,1.5-1.3,2.3-4,2.3
		s-4-0.8-4-2.3v-65.1h-17c-1.3,0-2-1.2-2-3.5C628.4,595.7,629.1,594.5,630.4,594.5z"/>
	<path id="path28" fill="#FFFFFF" d="M718.6,596.3v70.3c0,1.5-1.3,2.3-4,2.3c-2.7,0-4-0.8-4-2.3v-70.3c0-1.5,1.3-2.3,4-2.3
		C717.2,594,718.6,594.8,718.6,596.3z"/>
	<path id="path30" fill="#FFFFFF" d="M770.8,607.8v47.3c0,5.2,4.9,7.8,14.6,7.8c9.8,0,14.7-2.6,14.7-7.8v-7.2c0-1.5,1.3-2.3,4-2.3
		s4,0.8,4,2.3v6.2c0,10.5-7.4,15.8-22.3,15.8c-6.9,0-12.5-1.2-16.7-3.7c-4.2-2.5-6.3-6.6-6.3-12.1v-45.3c0-5.5,2.1-9.5,6.3-12
		c4.2-2.5,9.8-3.8,16.7-3.8c14.8,0,22.3,5.3,22.3,15.8v6.2c0,1.5-1.3,2.3-4,2.3s-4-0.8-4-2.3v-7.2c0-5.2-4.9-7.8-14.7-7.8
		C775.6,600,770.8,602.6,770.8,607.8z"/>
	<path id="path32" fill="#FFFFFF" d="M883.9,655.1v-11.3c0-2.2-0.9-3.8-2.6-4.8s-4.7-2-9-3l-8.9-2c-4.1-0.9-7.1-2-9.2-3.1
		c-4.4-2.3-6.6-7.2-6.6-14.5v-7.7c0-5.5,2-9.5,5.9-12c4-2.5,9.3-3.8,15.8-3.8c6.5,0,11.8,1.3,15.7,3.8c3.9,2.5,5.9,6.5,5.9,12v4.4
		c0,1.5-1.3,2.3-4,2.3c-2.7,0-4-0.8-4-2.3v-5.4c0-5.2-4.6-7.8-13.7-7.8c-9.1,0-13.6,2.6-13.6,7.8v8.5c0,3.7,0.5,6.2,1.6,7.6
		c1.1,1.3,3.2,2.3,6.2,3l8.9,2c6.4,1.4,10,2.4,10.9,2.9c0.9,0.5,2,1,3.2,1.6c1.2,0.6,2,1.2,2.4,1.9c0.5,0.6,1,1.4,1.6,2.3
		c1,1.5,1.5,3.9,1.5,7.1v9.5c0,5.5-2.2,9.5-6.6,12c-4.3,2.5-9.8,3.8-16.5,3.8c-6.6,0-12-1.3-16.3-3.8c-4.2-2.5-6.3-6.5-6.3-12v-4.4
		c0-1.5,1.3-2.3,4-2.3s4,0.8,4,2.3v5.4c0,2.7,1.4,4.7,4.1,6c2.8,1.2,6.3,1.8,10.5,1.8c4.3,0,7.8-0.6,10.7-1.9
		C882.4,659.7,883.9,657.8,883.9,655.1L883.9,655.1z"/>
</g>
</svg>
