<svg enable-background="new 0 0 1024 1024" height="1024" viewBox="0 0 1024 1024" width="1024" xmlns="http://www.w3.org/2000/svg"><path d="m0 0h1024v1024h-1024z" fill="#302e31"/><g fill="#1e9396"><path d="m254.3 715.6c0 7.8 3 11.7 9 11.7 3.4 0 6.6-1.7 9.9-5.2l2.2 2.3c-3.9 4.1-7.9 6.2-12.1 6.2-4 0-7.1-1.2-9.2-3.7-2-2.6-3-6.4-3-11.4v-109.1h3.2z"/><path d="m263.3 732.4c-4.5 0-8.1-1.4-10.5-4.3-2.3-2.9-3.4-7.1-3.4-12.5v-111h6.6v111c0 9 4.2 10 7.3 10 2.8 0 5.8-1.6 8.6-4.7l1.2-1.3 4.5 4.9-1.1 1.2c-4.1 4.4-8.6 6.7-13.2 6.7zm-8.9-8.1c.3.6.6 1.2 1 1.6 1.1 1.3 2.6 2.2 4.4 2.6-2-.5-4-1.8-5.4-4.2z"/><path d="m296 644.1h3.4v86.6h-3.4zm1.6-29.4c1.1 0 2.1.4 3 1.3.9.8 1.3 1.8 1.3 3 0 1.1-.4 2.1-1.3 3s-1.9 1.3-3 1.3c-1.2 0-2.3-.4-3.2-1.3-.8-.9-1.2-1.9-1.2-3 0-1.2.4-2.2 1.2-3 1-.8 2-1.3 3.2-1.3z"/><path d="m301 732.4h-6.8v-90h6.8zm-3.4-107.2c-1.7 0-3.2-.6-4.4-1.8-1.1-1.3-1.7-2.7-1.7-4.2 0-1.7.6-3.1 1.7-4.2 1.2-1.2 2.7-1.8 4.4-1.8 1.6 0 3 .6 4.2 1.8 1.2 1 1.8 2.5 1.8 4.2 0 1.6-.6 3-1.8 4.2-1.2 1.1-2.6 1.8-4.2 1.8zm0-8.8c-.8 0-1.4.3-2 .8-.5.5-.7 1-.7 1.8 0 .7.2 1.3.8 1.9.9.9 2.5 1.2 3.7-.1.6-.6.8-1.1.8-1.8s-.2-1.3-.8-1.7c-.5-.6-1.1-.9-1.8-.9z"/><path d="m407.6 644.1v76.9c0 8.5-1.7 15.9-5.2 22.3-3.4 6.4-8.2 11.3-14.4 14.7-6.1 3.5-13.4 5.2-21.6 5.2-6.8 0-13.1-1.3-18.8-3.9-5.6-2.5-10.9-6.2-16.1-11.2l2.3-2.3c4.7 4.7 9.7 8.2 14.9 10.6 5.4 2.3 11.2 3.5 17.6 3.5 7.6 0 14.2-1.6 19.9-4.9 5.7-3.1 10.1-7.7 13.2-13.6 3.1-5.8 4.7-12.6 4.7-20.4v-18.1c-3 7.6-7.9 13.6-14.6 18.1-6.6 4.4-14.2 6.5-22.8 6.5-7.7 0-14.6-1.8-20.8-5.4-6.1-3.6-10.9-8.5-14.4-14.7-3.5-6.4-5.2-13.5-5.2-21.4 0-8 1.7-15.3 5.2-21.6 3.5-6.4 8.3-11.3 14.4-14.9s13.1-5.4 20.8-5.4c8.6 0 16.2 2.2 22.8 6.7 6.7 4.5 11.6 10.5 14.6 18.1v-24.8zm-40.7 80.2c7.1 0 13.5-1.6 19.1-4.9 5.7-3.4 10.2-7.9 13.4-13.7 3.2-5.9 4.9-12.5 4.9-19.8 0-7.4-1.6-14-4.9-19.8-3.2-5.9-7.7-10.6-13.4-13.9-5.6-3.3-12-5-19.1-5s-13.6 1.7-19.3 5c-5.6 3.4-10 8-13.2 13.9-3.1 5.8-4.7 12.4-4.7 19.8 0 7.3 1.6 13.9 4.7 19.8 3.2 5.8 7.7 10.4 13.2 13.7 5.7 3.3 12.1 4.9 19.3 4.9z"/><path d="m366.4 764.9c-7 0-13.6-1.3-19.5-4-5.7-2.5-11.3-6.4-16.6-11.6l-1.2-1.2 4.8-4.8 1.2 1.2c4.5 4.5 9.4 8 14.4 10.2 5.1 2.2 10.8 3.4 16.9 3.4 7.3 0 13.7-1.6 19.1-4.6s9.6-7.3 12.6-12.9c3-5.5 4.5-12.1 4.5-19.6v-10.9c-3 4.9-7 9-11.9 12.3-6.8 4.5-14.8 6.8-23.7 6.8-8 0-15.3-1.9-21.6-5.6-6.4-3.7-11.4-8.9-15-15.4-3.6-6.6-5.4-14.1-5.4-22.3 0-8.3 1.8-15.8 5.4-22.4s8.7-11.8 15-15.6c6.4-3.7 13.7-5.6 21.6-5.6 8.9 0 16.9 2.4 23.7 7 4.9 3.3 8.9 7.4 11.9 12.3v-19.3h6.8v78.7c0 8.7-1.8 16.5-5.4 23.1-3.5 6.6-8.6 11.8-15.1 15.4-6.4 3.6-14 5.4-22.5 5.4zm32.6-19.2c-3.1 4.5-7 8.2-11.9 10.8-2.2 1.2-4.5 2.2-7 3 2.5-.8 4.8-1.8 7-3 4.9-2.7 8.9-6.3 11.9-10.8zm-32.1-96.7c-6.8 0-13 1.6-18.4 4.8-5.3 3.2-9.5 7.6-12.6 13.3-3 5.5-4.5 11.9-4.5 19 0 6.9 1.5 13.3 4.5 19 3.1 5.5 7.3 9.9 12.6 13.1 5.4 3.1 11.6 4.6 18.4 4.6s12.9-1.6 18.2-4.6c5.4-3.2 9.7-7.6 12.8-13.1 3.1-5.6 4.6-12 4.6-18.9 0-7-1.6-13.4-4.6-18.9-3.1-5.6-7.4-10.1-12.8-13.3-5.3-3.4-11.4-5-18.2-5zm39 39.3c-.2 3.4-.7 6.6-1.5 9.7l1.5-3.8zm-1.6-14.7c.9 3.2 1.4 6.5 1.6 10v-6z"/><path d="m482.8 644.1c10.7 0 19 3 25 9s9 14.4 9 25.1v52.5h-3.4v-52.5c0-9.7-2.7-17.3-8.2-22.6-5.4-5.5-12.8-8.2-22.5-8.2-11.5.2-20.5 4-27 11.2s-9.7 17-9.7 29.7v42.4h-3.4v-124.3h3.4v62.6c2.8-7.8 7.3-13.9 13.6-18.3 6.4-4.3 14.1-6.5 23.2-6.6z"/><path d="m518.5 732.4h-6.8v-54.2c0-9.2-2.6-16.4-7.7-21.4-5-5.1-12.2-7.7-21.3-7.7-10.9.2-19.6 3.8-25.7 10.7-6.2 6.8-9.3 16.4-9.3 28.5v44.1h-6.8v-127.7h6.8v56.6c2.8-4.8 6.4-8.8 10.9-11.9 6.5-4.5 14.6-6.9 24.1-7 11.2 0 20 3.2 26.2 9.6 6.3 6.3 9.5 15.2 9.5 26.3v54.1zm-74-53.7v6.7c.2-3.7.6-7.2 1.4-10.5zm48.4-31.8c5.4 1.3 10 3.9 13.6 7.6 3.1 3 5.3 6.7 6.8 11-1.4-4.3-3.7-8-6.7-11.1-3.6-3.7-8.2-6.2-13.7-7.5zm-22.6.7c-2 .6-3.8 1.3-5.6 2.2 1.8-.9 3.6-1.6 5.6-2.2z"/><path d="m583.9 724.5c-5.4 4.1-11.1 6.2-17.1 6.2s-10.6-2.2-13.7-6.7c-3.1-4.6-4.7-11.4-4.7-20.4v-78.4h3.4v20.6h30.5v3.4h-30.5v54.5c0 7.8 1.3 13.7 3.9 17.8 2.6 4 6.3 6 11.2 6 5.5 0 10.5-1.8 15.1-5.5z"/><path d="m566.8 732.4c-6.6 0-11.7-2.5-15.1-7.4-3.3-4.9-5-12.1-5-21.4v-80.1h6.8v20.5h30.5v6.8h-30.5v52.8c0 7.5 1.2 13.1 3.6 16.8 2.3 3.5 5.5 5.2 9.8 5.2 5.1 0 9.8-1.7 14-5.2l1.4-1.1 4.1 5.4-1.3 1c-5.8 4.5-11.9 6.7-18.3 6.7zm-15.8-18.6c.7 3.8 1.9 6.9 3.5 9.3 2.1 3 4.8 4.8 8.3 5.6-3.6-.9-6.5-3-8.6-6.4-1.5-2.3-2.5-5.2-3.2-8.5z"/><path d="m637.3 727.4c12.8 0 23.3-5.3 31.3-15.9l2.8 1.8c-9 11.6-20.5 17.4-34.4 17.4-8 0-15.3-1.8-21.8-5.5-6.4-3.8-11.4-9-15.1-15.6-3.6-6.6-5.4-14-5.4-22.3s1.8-15.6 5.4-22.1c3.7-6.6 8.7-11.7 15.1-15.4 6.4-3.8 13.6-5.7 21.6-5.7 8.9 0 16.8 2.4 23.5 7.2 6.8 4.7 11.5 11.1 13.9 19.1l-74.2 30.2c2.5 8.2 7 14.7 13.6 19.6 6.7 4.8 14.6 7.2 23.7 7.2zm-.5-80c-7.4 0-14 1.7-19.9 5.2-5.8 3.4-10.4 8-13.7 14.1-3.2 6-4.9 12.9-4.9 20.6 0 3.5.3 6.8 1 10.1l70.7-28.8c-2.5-6.6-6.6-11.7-12.6-15.4-5.9-3.9-12.8-5.8-20.6-5.8z"/><path d="m637.1 732.4c-8.3 0-15.9-1.9-22.6-5.8-6.6-4-11.9-9.4-15.7-16.2-3.7-6.8-5.6-14.6-5.6-23.1s1.9-16.2 5.6-22.9c3.8-6.8 9.1-12.2 15.7-16.1s14.1-5.9 22.5-5.9c9.3 0 17.5 2.5 24.5 7.5 7.1 4.9 12 11.6 14.5 20l.5 1.5-74.2 30.2c2.4 7.1 6.6 12.9 12.5 17.3 6.3 4.6 14 6.9 22.6 6.9 12.4 0 22.2-5 30-15.2l1-1.3 5.7 3.7-1.1 1.5c-9.5 11.8-21.6 17.9-35.9 17.9zm-.3-83.3c-7 0-13.5 1.7-19.1 5-5.5 3.2-9.9 7.7-13.1 13.4-3.1 5.7-4.6 12.4-4.6 19.8 0 2.6.2 5.2.6 7.7l67.2-27.4c-2.4-5.5-6.2-9.9-11.3-13-5.7-3.7-12.3-5.5-19.7-5.5zm33.2 15.4c.6 1.1 1.1 2.3 1.5 3.4l.6 1.5h.1c-.6-1.7-1.3-3.4-2.2-4.9z"/><path d="m739.7 644.1c10.7 0 19 3 25 9s9 14.4 9 25.1v52.5h-3.3v-52.5c0-9.7-2.7-17.3-8.2-22.6-5.4-5.5-12.8-8.2-22.5-8.2-10.7.2-19.3 3.5-25.6 9.9-6.4 6.4-10 15.1-10.9 26.3v47.1h-3.3v-86.6h3.3v24.5c2.8-7.7 7.3-13.7 13.6-17.9 6.2-4.3 13.9-6.5 22.9-6.6z"/><path d="m775.4 732.4h-6.8v-54.2c0-9.2-2.6-16.4-7.7-21.4-5-5.1-12.2-7.7-21.3-7.7-10.2.2-18.4 3.4-24.4 9.4s-9.5 14.5-10.4 25.2v48.7h-6.8v-90h6.8v18.5c2.8-4.7 6.4-8.7 10.9-11.7 6.5-4.4 14.5-6.7 23.9-6.8 11.1 0 20 3.2 26.2 9.6 6.3 6.3 9.5 15.2 9.5 26.3v54.1zm-73.9-54.3v4.8c.3-3.2.8-6.3 1.6-9.1zm48.3-31.2c5.4 1.3 10 3.9 13.6 7.6 3 2.9 5.2 6.5 6.7 10.8-1.4-4.3-3.6-7.9-6.6-10.9-3.6-3.7-8.2-6.2-13.7-7.5zm-18.1-.4c-5.3.9-10 2.8-14 5.5-3 2-5.6 4.5-7.8 7.4.9-1.2 1.9-2.3 2.9-3.3 5.1-5 11.4-8.2 18.9-9.6z"/></g><path d="m350.2 425.8s1.3 0 3.6-.1 5.8-.2 10.2-.3c8.8-.2 21.3-.6 36.3-.9 7.5-.1 15.6-.3 24.3-.4 8.6-.1 17.7-.2 27.1-.3s19.1-.1 28.9-.2c9.9 0 19.9-.1 29.9-.1s20 .1 29.9.1 19.6.1 28.9.2c18.8.2 36.3.4 51.3.7s27.5.7 36.3.9c4.4.1 7.8.2 10.2.3 2.3.1 3.6.1 3.6.1s-1.2 0-3.6.1c-2.3.1-5.8.2-10.2.3-8.8.2-21.3.6-36.3.9s-32.5.5-51.3.7c-9.4.1-19.1.2-28.9.2-9.9 0-19.9.1-29.9.1s-20-.1-29.9-.1c-9.9-.1-19.6-.1-28.9-.2-9.4-.1-18.5-.2-27.1-.3s-16.7-.3-24.3-.4c-15-.3-27.5-.7-36.3-.9-4.4-.1-7.8-.3-10.2-.3-2.4-.1-3.6-.1-3.6-.1z" fill="#b19a79"/><path d="m510.4 224s0 1.2.1 3.6c.1 2.3.2 5.8.3 10.2.2 8.8.6 21.3.9 36.3.1 7.5.3 15.6.4 24.2s.2 17.7.3 27.1.1 19.1.2 28.9c0 9.9.1 19.9.1 29.9s-.1 20-.1 29.9-.1 19.6-.2 28.9c-.2 18.8-.4 36.3-.7 51.3s-.7 27.5-.9 36.3c-.1 4.4-.3 7.8-.3 10.2-.1 2.3-.1 3.6-.1 3.6s0-1.3-.1-3.6-.2-5.8-.3-10.2c-.2-8.8-.6-21.3-.9-36.3s-.5-32.5-.7-51.3c-.1-9.4-.2-19.1-.2-28.9 0-9.9-.1-19.9-.1-29.9s.1-20 .1-29.9c.1-9.9.1-19.6.2-28.9.1-9.4.2-18.5.3-27.1s.3-16.7.4-24.2c.3-15 .7-27.5.9-36.3.1-4.4.2-7.8.3-10.2 0-2.4.1-3.6.1-3.6z" fill="#b19a79"/><path d="m567.9 483.3s-1.9-1.7-5.1-4.8-7.9-7.4-13.3-12.7c-5.5-5.3-11.9-11.5-18.7-18.2s-14-13.9-21.2-21c-7.2-7.2-14.3-14.5-21-21.2-6.7-6.8-12.8-13.2-18.2-18.7-5.3-5.5-9.6-10.1-12.7-13.3-3-3.2-4.8-5.1-4.8-5.1s1.9 1.7 5.1 4.8 7.9 7.4 13.3 12.7c5.5 5.3 11.9 11.5 18.7 18.2s14 13.9 21.2 21c7.1 7.2 14.3 14.4 21 21.2s12.8 13.2 18.2 18.7c5.3 5.5 9.7 10.1 12.7 13.3 3.1 3.2 4.8 5.1 4.8 5.1z" fill="#b19a79"/><path d="m438 498.2s1.7-1.9 4.8-5.1 7.4-7.9 12.7-13.3 11.5-11.9 18.2-18.7 13.9-14 21-21.2c7.2-7.2 14.5-14.3 21.2-21 6.8-6.7 13.2-12.8 18.7-18.2 5.5-5.3 10.1-9.6 13.3-12.7 3.2-3 5.1-4.8 5.1-4.8s-1.7 1.9-4.8 5.1-7.4 7.9-12.7 13.3c-5.3 5.5-11.5 11.9-18.2 18.7s-13.9 14-21 21.2c-7.2 7.1-14.5 14.3-21.2 21-6.8 6.7-13.2 12.8-18.7 18.2-5.5 5.3-10.1 9.6-13.3 12.7s-5.1 4.8-5.1 4.8z" fill="#b19a79"/><path d="m510.4 491.5c-36.2 0-65.7-29.5-65.7-65.7s29.5-65.7 65.7-65.7 65.7 29.5 65.7 65.7-29.5 65.7-65.7 65.7zm0-129.9c-35.4 0-64.1 28.8-64.1 64.1 0 35.4 28.8 64.1 64.1 64.1 35.4 0 64.1-28.8 64.1-64.1.1-35.3-28.7-64.1-64.1-64.1z" fill="#b19a79"/></svg>
