<?xml version="1.0" encoding="utf-8"?>
<!-- Generator: Adobe Illustrator 21.0.0, SVG Export Plug-In . SVG Version: 6.00 Build 0)  -->
<svg version="1.1" id="Layer_1" xmlns="http://www.w3.org/2000/svg" xmlns:xlink="http://www.w3.org/1999/xlink" x="0px" y="0px"
	 viewBox="0 0 2048 2048.1" enable-background="new 0 0 2048 2048.1" xml:space="preserve">
<rect fill="#844025" width="2048" height="2048.1"/>
<path fill="#F5F5F5" d="M1001.5,943.3c0-31.7-9.7-62.7-26.9-89.6c-2.1-5.5-7.6-8.3-13.1-6.2h-0.7c-0.7,0-0.7,0.7-1.4,0.7
	c0,0,0,0-0.7,0l-0.7,0.7c-3.4,3.4-4.1,8.3-2.1,12.4c0.7,3.4,0.7,7.6-0.7,11c-2.1,4.1-4.8,6.9-9,8.3c-4.1,1.4-8.3,1.4-12.4-0.7
	c-4.1-2.1-6.9-4.8-8.3-9c0,0,0,0,0-0.7c0,0,0-0.7-0.7-0.7c0,0,0-0.7-0.7-0.7l-2.8-2.8h-0.7c0,0-0.7,0-0.7-0.7c0,0-0.7,0-0.7-0.7
	h-0.7c-0.7,0-0.7,0-1.4,0h-0.7c-0.7,0-0.7,0-1.4,0h-0.7c-0.7,0-0.7,0-0.7,0h-0.7c0,0,0,0-0.7,0c0,0-0.7,0-0.7,0.7c0,0-0.7,0-0.7,0.7
	l-2.8,2.8c-2.1,3.4-5.5,6.2-10.3,6.9c-4.1,0.7-8.3,0-12.4-2.1c-7.6-4.8-9.7-14.5-4.8-22.1c0,0,0-0.7,0.7-0.7c0,0,0-0.7,0.7-0.7V848
	c0-0.7,0-0.7,0-1.4c0,0,0,0,0-0.7v-0.7c0-0.7,0-0.7,0-1.4v-0.7c0-0.7,0-0.7-0.7-0.7c0,0,0-0.7-0.7-0.7l-2.8-2.8c0,0,0,0-0.7-0.7
	c0,0,0,0-0.7,0c0,0-0.7,0-0.7-0.7c0,0-0.7,0-0.7-0.7h-1.4c0,0-0.7,0-1.4,0s-0.7,0-0.7,0s0,0-0.7,0c-9,0.7-16.5-5.5-17.9-14.5
	c-0.7-9,5.5-16.5,14.5-17.9h1.4c0.7,0,0.7,0,1.4-0.7c0,0,0,0,0.7,0s0.7-0.7,1.4-0.7c0,0,0,0,0.7,0s0.7-0.7,1.4-0.7c0,0,0,0,0.7-0.7
	l0.7-0.7c0,0,0-0.7,0.7-0.7c0-0.7,0.7-0.7,0.7-1.4v-0.7c0-0.7,0-0.7,0-1.4V796c0-0.7,0-0.7,0-1.4s0-0.7,0-0.7v-0.7
	c0-0.7,0-0.7,0-1.4v-0.7c0-0.7,0-0.7-0.7-0.7c0,0,0-0.7-0.7-0.7L875,789c0,0,0-0.7-0.7-0.7l-0.7-0.7c0,0-0.7,0-0.7-0.7
	c0,0-0.7-0.7-1.4-0.7h-0.7c-0.7,0-0.7,0-1.4-0.7h-2.1c-8.3-1.4-16.5-2.1-24.8-2.1c-88.9,0-160.6,72.4-160.6,160.6
	s69.6,159.2,158.6,159.2C929.8,1103.9,1001.5,1031.5,1001.5,943.3z M700.9,943.3c0-75.1,60-137.2,134.4-139.9
	c-3.4,6.2-4.8,13.8-4.1,21.4c1.4,9.7,5.5,18.6,13.8,24.8c3.4,2.8,7.6,4.8,11.7,6.2c-0.7,4.1-0.7,9,0.7,13.8
	c2.1,9.7,8.3,17.9,16.5,22.7c6.2,3.4,12.4,5.5,19.3,5.5c2.8,0,5.5,0,8.3-0.7c4.8-1.4,9-2.8,12.4-5.5c6.9,7.6,16.5,11.7,26.9,11.7
	c4.1,0,8.3-0.7,12.4-2.1c6.9-2.8,13.1-6.9,17.2-13.1c7.6,17.2,11.7,35.8,11.7,55.1c0,77.2-62.7,139.9-139.9,139.9
	S700.9,1020.5,700.9,943.3z M787.1,850.9c-7.6,0-13.8,6.2-13.8,13.8s6.2,13.8,13.8,13.8s13.8-6.2,13.8-13.8
	C800.9,857.1,794.7,850.9,787.1,850.9z M743.7,920.5c-7.6,0-13.8,6.2-13.8,13.8s6.2,13.8,13.8,13.8s13.8-6.2,13.8-13.8
	S751.3,920.5,743.7,920.5z M858.1,1043.2c0-7.6-6.2-13.8-13.8-13.8s-13.8,6.2-13.8,13.8c0,7.6,6.2,13.8,13.8,13.8
	C851.9,1057,858.1,1050.9,858.1,1043.2z M831.2,920.5c0-7.6-6.2-13.8-13.8-13.8s-13.8,6.2-13.8,13.8s6.2,13.8,13.8,13.8
	S831.2,928.2,831.2,920.5z M944.3,958.5c7.6,0,13.8-6.2,13.8-13.8s-6.2-13.8-13.8-13.8s-13.8,6.2-13.8,13.8S936.6,958.5,944.3,958.5
	z M882.9,960.5c7.6,0,13.8-6.2,13.8-13.8s-6.2-13.8-13.8-13.8s-13.8,6.2-13.8,13.8S875.3,960.5,882.9,960.5z M910.5,1023.9
	c7.6,0,13.8-6.2,13.8-13.8s-6.2-13.8-13.8-13.8s-13.8,6.2-13.8,13.8C896.7,1017.8,902.9,1023.9,910.5,1023.9z M845.7,979.1
	c0-7.6-6.2-13.8-13.8-13.8s-13.8,6.2-13.8,13.8s6.2,13.8,13.8,13.8C839.5,992.9,845.7,986.8,845.7,979.1z M767.8,992.9
	c-7.6,0-13.8,6.2-13.8,13.8s6.2,13.8,13.8,13.8s13.8-6.2,13.8-13.8C781.6,999.1,775.4,992.9,767.8,992.9z M523.3,833.8
	c14.6,0,27.4,2.9,39.1,7.6c11.7,4.7,22.2,12.3,32.1,22.8c5.8,7,13.4,10.5,22.8,10.5c4.7,0,9.3-1.2,13.4-4.1
	c8.2-5.8,12.8-12.8,12.8-21.6c0-5.8-2.3-10.5-5.8-15.2l0,0c-30.4-35-68.9-52.5-114.4-52.5c-30.4,0-57.8,7-81.7,21
	c-24.5,14-43.2,33.3-56.6,57.8s-19.8,52.5-19.8,83.5c0,30.4,6.4,58.4,20.4,82.9s33.3,43.8,57.8,57.8s52,21,82.9,21
	c42,0,77.1-12.8,105.1-39.1c4.7-4.7,7-9.9,7-15.8c0-7.6-4.1-14.6-11.1-21c-4.7-3.5-9.9-5.3-15.2-5.3c-7,0-14.6,2.9-21.6,8.2
	c-16.3,14-37.9,20.4-64.2,20.4c-20.4,0-38.5-4.7-54.3-14s-28-22.2-36.8-38.5s-12.8-35.6-12.8-56.6c0-32.7,9.3-59.5,28-79.4
	C469,844.3,493,833.8,523.3,833.8z M1199.9,833.8c14.6,0,27.4,2.9,39.1,7.6c11.7,4.7,22.2,12.3,32.1,22.8c5.8,7,13.4,10.5,22.8,10.5
	c4.7,0,9.3-1.2,13.4-4.1c8.2-5.8,12.8-12.8,12.8-21.6c0-5.8-2.3-10.5-5.8-15.2l0,0c-30.4-35-68.9-52.5-114.4-52.5
	c-30.4,0-57.8,7-81.7,21c-24.5,14-43.2,33.3-56.6,57.8s-19.8,52.5-19.8,83.5c0,30.4,6.4,58.4,20.4,82.9s33.3,43.8,57.8,57.8
	s52,21,82.9,21c42,0,77.1-12.8,105.1-39.1c4.7-4.7,7-9.9,7-15.8c0-7.6-4.1-14.6-11.1-21c-4.7-3.5-9.9-5.3-15.2-5.3
	c-7,0-14.6,2.9-21.6,8.2c-16.3,14-37.9,20.4-64.2,20.4c-20.4,0-38.5-4.7-54.3-14s-28-22.2-36.8-38.5s-12.8-35.6-12.8-56.6
	c0-32.7,9.3-59.5,28-79.4C1145.6,844.3,1169.5,833.8,1199.9,833.8z M1682.9,943.6c0-45-16.3-82.9-47.9-114.4
	c-31.5-31.5-69.5-47.9-114.4-47.9c-45,0-82.9,16.3-114.4,47.9c-31.5,31.5-47.3,69.5-47.3,114.4c0,45,15.8,82.9,47.3,114.4
	s69.5,47.3,114.4,47.3c45,0,82.9-15.8,114.4-47.3S1682.9,988.5,1682.9,943.6z M1595.9,1018.3c-21,21-46.1,30.9-75.3,30.9
	c-29.2,0-54.3-9.9-74.7-30.9c-21-20.4-30.9-45.5-30.9-74.7s9.9-54.3,30.9-75.3c20.4-20.4,45.5-30.9,74.7-30.9s54.3,10.5,75.3,30.9
	c20.4,21,30.9,46.1,30.9,75.3S1616.3,997.9,1595.9,1018.3z M416.6,1206.1c-2.1-3-4.6-5.6-7.7-7.7c-3-2-6.6-3-10.8-3
	c-3.4,0-6.5,0.8-9.4,2.1c-2.8,1.3-5.2,3.2-7.2,5.5c-2.1,2.4-3.6,5.1-4.7,8.2s-1.6,6.4-1.6,9.8c0,3.3,0.5,6.4,1.6,9.5
	c1.1,3,2.7,5.8,4.7,8c2,2.4,4.4,4.3,7.2,5.6c2.8,1.4,5.9,2.1,9.3,2.1l0,0c1.7,0,3.5-0.2,5.2-0.7c1.7-0.4,3.3-1,4.8-1.9
	s2.8-1.9,4.2-3.1c1.3-1.2,2.5-2.7,3.4-4.2v8.7c0,2.7-0.5,4.8-1.4,6.7c-0.9,1.9-2.1,3.5-3.6,4.7c-1.5,1.3-3.3,2.3-5.4,2.8
	c-2.1,0.7-4.2,0.9-6.4,0.9c-3.6,0-7-0.7-10-2.2c-3.1-1.4-5.7-3.6-7.6-6.5l-4.8,4.3c2.3,3.4,5.2,6.2,8.7,8c3.5,1.9,8,2.8,13.7,2.8
	c3.4,0,6.7-0.5,9.7-1.4s5.8-2.3,8-4.2c2.3-1.8,4.1-4.1,5.4-6.7c1.3-2.7,2-5.8,2-9.4V1196h-7.4L416.6,1206.1L416.6,1206.1z
	 M415.6,1228.4c-0.4,1.4-0.9,2.7-1.9,4.1c-0.9,1.3-2.2,2.6-3.5,3.6c-1.4,1-2.9,1.9-4.5,2.5c-1.7,0.7-3.4,0.9-5.1,0.9
	c-2.5,0-4.6-0.5-6.7-1.4s-3.8-2.3-5.3-4c-1.5-1.6-2.7-3.5-3.6-5.8c-0.9-2.2-1.3-4.5-1.3-7c0-2.3,0.4-4.4,1.1-6.7
	c0.8-2.3,1.8-4.3,3.2-6.1c1.3-1.7,3-3.1,5-4.3c2-1,4.3-1.6,6.8-1.6c1.6,0,3.2,0.3,4.8,0.9c1.6,0.6,3.1,1.4,4.5,2.5
	c1.3,1,2.6,2.3,3.7,3.6c1.1,1.4,2,2.9,2.7,4.6L415.6,1228.4L415.6,1228.4z M511.5,1235.5v-39.2h-8.3v30.9c-1.5,3.8-3.7,6.8-6.7,9
	s-6.2,3.2-9.6,3.2c-7,0-10.5-5-10.5-15.1v-28H468v29.6c0,6.9,1.3,12.1,4,15.5c2.7,3.5,6.5,5.2,11.7,5.2l0,0c4.3,0,8.2-0.9,11.8-2.9
	c3.6-2,6.4-4.8,8.7-8.6l0.2,5.8c0,1.5,0.6,2.7,1.7,3.7c1.1,0.9,2.5,1.4,4.2,1.4h1.5c0.6,0,1.3-0.1,2.3-0.3v-7.2
	C512.3,1238.5,511.5,1237.5,511.5,1235.5z M556.6,1187h8.3v-10.4h-8.3V1187z M556.6,1245.7h8.3v-49.4h-8.3V1245.7z M626.2,1238.5
	c-0.9,0.2-1.8,0.3-2.5,0.3c-1.8,0-3.2-0.5-4.2-1.5c-0.9-1-1.4-2.5-1.4-4.4v-56.3h-8.3v59.3c0,3.3,0.9,5.9,2.7,7.7
	c1.9,1.9,4.4,2.7,7.7,2.7c1.4,0,3.1-0.2,5-0.6s3.5-0.9,4.9-1.4l-1.3-6.7C628,1238,627.2,1238.3,626.2,1238.5z M688.6,1237.9
	c-1.3,0.6-2.8,0.8-4.4,0.8c-1.5,0-2.7-0.4-3.8-1.2c-1.1-0.8-1.7-2.1-1.8-4v-30.7h11.1v-6.5h-11.1v-16.5h-8.3v16.5h-6.7v6.5h6.7v33.2
	c0,3.6,1,6.2,3.3,7.9c2.2,1.7,4.8,2.5,7.9,2.5c1.3,0,2.6-0.1,3.8-0.3c1.2-0.2,2.4-0.5,3.4-0.9s2-0.7,2.8-1c0.8-0.4,1.4-0.7,2-0.9
	l-2-6.6C690.9,1237,689.9,1237.4,688.6,1237.9z M731.7,1223.7h27.9v-7.6h-27.9V1223.7z M845.5,1175.7c-4.7,0-8.4,1.8-11.1,5.2
	c-2.7,3.5-4.1,8.3-4.1,14.4v1h-6.7v6.5h6.7v42.9h8.3v-42.9h13.2v-6.5h-13.2v-1.3c0-4,0.7-7,2.2-9.1c1.4-2.1,3.5-3.1,6.3-3.1
	c1.2,0,2.5,0.2,3.8,0.6s2.4,0.9,3.3,1.5l2.1-6.2c-1.5-0.9-3.2-1.6-5.1-2.2C849.4,1176,847.4,1175.7,845.5,1175.7z M914.8,1195.9
	c-3.2,0.3-6.2,1.5-8.9,3.6c-2.8,2.1-5,4.8-6.7,8.2v-11.5h-7.8v49.4h8.3v-30.5c1.3-3.6,3.5-6.3,6.7-8.4c3.2-2,6.9-3,11.1-3.2v-7.6
	c-0.4,0-0.8-0.1-1.1-0.1L914.8,1195.9L914.8,1195.9z M995.8,1203.1c-2.2-2.3-4.8-4.2-7.9-5.6c-3-1.3-6.4-2.1-10.1-2.1
	c-3.8,0-7.2,0.8-10.2,2.1c-3.1,1.3-5.8,3.2-8,5.5c-2.3,2.4-4,5.1-5.2,8.1c-1.2,3.1-1.8,6.4-1.8,9.8c0,3.5,0.6,6.8,1.8,9.9
	s2.9,5.9,5.2,8.1c2.2,2.4,4.8,4.3,8,5.6c3,1.3,6.4,2,10.2,2c2.5,0,4.8-0.3,7.1-0.9s4.3-1.4,6.2-2.6c1.9-1.1,3.5-2.5,4.9-4
	s2.6-3.1,3.4-5l-7.2-2c-0.6,1.3-1.3,2.5-2.3,3.4c-0.9,1-2.1,1.9-3.3,2.6c-1.3,0.8-2.7,1.3-4.1,1.7c-1.5,0.4-2.9,0.6-4.4,0.6
	c-2.2,0-4.3-0.4-6.2-1.2c-1.9-0.8-3.6-1.9-5.1-3.4c-1.5-1.4-2.7-3.1-3.7-5.2c-0.9-2-1.5-4.3-1.7-6.7h41c0-0.3,0.1-0.8,0.1-1.3
	c0-0.6,0.1-1.1,0.1-1.9c0-3.2-0.7-6.4-1.8-9.5C999.6,1208.1,997.9,1205.4,995.8,1203.1z M961.2,1217.7c0.2-2.3,0.7-4.4,1.6-6.4
	c0.9-1.9,2.1-3.6,3.6-5s3.2-2.6,5.2-3.3c1.9-0.8,4-1.2,6.2-1.2s4.3,0.5,6.2,1.2c1.9,0.8,3.6,1.9,5.1,3.2c1.5,1.4,2.7,3.1,3.7,5.1
	s1.6,4.2,1.8,6.4L961.2,1217.7L961.2,1217.7z M1083.1,1203.1c-2.2-2.3-4.8-4.2-7.9-5.6c-3-1.3-6.4-2.1-10.1-2.1
	c-3.8,0-7.2,0.8-10.2,2.1c-3.1,1.3-5.8,3.2-8,5.5c-2.3,2.4-4,5.1-5.2,8.1c-1.2,3.1-1.8,6.4-1.8,9.8c0,3.5,0.6,6.8,1.8,9.9
	c1.2,3.1,2.9,5.9,5.2,8.1c2.2,2.4,4.8,4.3,8,5.6c3,1.3,6.4,2,10.2,2c2.5,0,4.8-0.3,7.1-0.9c2.3-0.6,4.3-1.4,6.2-2.6
	c1.9-1.1,3.5-2.5,4.9-4s2.6-3.1,3.4-5l-7.2-2c-0.6,1.3-1.3,2.5-2.3,3.4c-0.9,1-2.1,1.9-3.3,2.6c-1.3,0.8-2.7,1.3-4.1,1.7
	c-1.5,0.4-2.9,0.6-4.4,0.6c-2.2,0-4.3-0.4-6.2-1.2c-1.9-0.8-3.6-1.9-5.1-3.4c-1.5-1.4-2.7-3.1-3.7-5.2c-0.9-2-1.5-4.3-1.7-6.7h41
	c0-0.3,0.1-0.8,0.1-1.3c0-0.6,0.1-1.1,0.1-1.9c0-3.2-0.7-6.4-1.8-9.5C1086.8,1208.1,1085.1,1205.4,1083.1,1203.1z M1048.4,1217.7
	c0.2-2.3,0.7-4.4,1.6-6.4c0.9-1.9,2.1-3.6,3.6-5s3.2-2.6,5.2-3.3c1.9-0.8,4-1.2,6.2-1.2s4.3,0.5,6.2,1.2c1.9,0.8,3.6,1.9,5.1,3.2
	c1.5,1.4,2.7,3.1,3.7,5.1s1.6,4.2,1.8,6.4L1048.4,1217.7L1048.4,1217.7z M1187.3,1234.8c-0.9,0.9-2,1.7-3.1,2.4
	c-1.1,0.8-2.5,1.3-3.9,1.7c-1.4,0.4-2.8,0.6-4.3,0.6c-2.3,0-4.4-0.5-6.4-1.4s-3.7-2.2-5.2-3.9c-1.5-1.7-2.7-3.7-3.5-6
	c-0.9-2.3-1.3-4.6-1.3-7.3c0-2.7,0.4-5,1.2-7.3c0.9-2.2,2-4.1,3.5-5.8c1.4-1.6,3.1-2.8,5.2-3.8c2-0.9,4.2-1.4,6.4-1.4
	c2.7,0,5.3,0.7,7.6,2c2.3,1.3,4,3.1,5.3,5.4l8.1-2.6c-1.9-3.6-4.5-6.5-8.1-8.7s-7.8-3.3-12.7-3.3c-3.8,0-7.3,0.8-10.3,2.1
	c-3,1.3-5.7,3.2-7.9,5.5c-2.3,2.3-4,5-5.1,8c-1.2,3.1-1.8,6.4-1.8,9.8l0,0c0,3.5,0.6,6.8,1.8,9.9c1.2,3.1,2.9,5.9,5.2,8.1
	c2.2,2.4,4.8,4.3,8,5.6c3,1.4,6.4,2.1,10.2,2.1c2.5,0,4.7-0.3,7-0.9s4.3-1.4,6.2-2.6c1.8-1,3.4-2.4,4.7-3.9c1.3-1.5,2.5-3.1,3.2-5
	l-8.1-2.5C1188.8,1232.9,1188.2,1233.9,1187.3,1234.8z M1277.1,1203.1c-2.2-2.3-4.8-4.2-7.9-5.6c-3.1-1.3-6.5-2.1-10.1-2.1
	c-3.7,0-7.1,0.8-10.1,2.1c-3,1.4-5.7,3.3-7.9,5.6c-2.2,2.4-3.9,5.1-5.1,8.1c-1.2,3.1-1.8,6.4-1.8,9.8s0.6,6.7,1.8,9.7
	c1.1,3.1,2.8,5.9,5,8.1c2.2,2.4,4.8,4.3,7.9,5.6c3,1.4,6.4,2.1,10.2,2.1l0,0c3.7,0,7.1-0.7,10.1-2.1c3-1.3,5.7-3.2,8-5.6
	c2.2-2.3,3.9-5,5.1-8.1c1.1-3,1.8-6.3,1.8-9.7c0-3.4-0.7-6.7-1.9-9.8C1281,1208.2,1279.3,1205.5,1277.1,1203.1z M1274.2,1228.3
	c-0.9,2.3-2,4.2-3.5,5.9c-1.5,1.7-3.3,2.9-5.3,3.9c-2,0.9-4.1,1.4-6.3,1.4c-2.3,0-4.4-0.5-6.4-1.4s-3.7-2.2-5.2-3.9
	c-1.5-1.6-2.7-3.5-3.5-5.8c-0.9-2.2-1.2-4.5-1.2-7.2c0-2.6,0.4-4.9,1.2-7.2c0.9-2.3,2-4.2,3.5-5.9c1.5-1.7,3.2-3,5.2-4
	c2-0.9,4.2-1.5,6.4-1.5c2.3,0,4.4,0.5,6.3,1.4c2,0.9,3.8,2.3,5.3,4s2.7,3.6,3.5,5.9s1.3,4.6,1.3,7.1
	C1275.6,1223.7,1275.1,1226,1274.2,1228.3z M1365,1203.1c-2.2-2.3-4.8-4.2-7.9-5.6c-3.1-1.3-6.5-2.1-10.1-2.1
	c-3.7,0-7.1,0.8-10.1,2.1c-3,1.4-5.7,3.3-7.9,5.6c-2.2,2.4-3.9,5.1-5.1,8.1c-1.2,3.1-1.8,6.4-1.8,9.8s0.6,6.7,1.8,9.7
	c1.1,3.1,2.8,5.9,5,8.1c2.2,2.4,4.8,4.3,7.9,5.6c3,1.4,6.4,2.1,10.2,2.1l0,0c3.7,0,7.1-0.7,10.1-2.1c3-1.3,5.7-3.2,8-5.6
	c2.2-2.3,3.9-5,5.1-8.1c1.1-3,1.8-6.3,1.8-9.7c0-3.4-0.7-6.7-1.9-9.8C1368.9,1208.2,1367.2,1205.5,1365,1203.1z M1362.2,1228.3
	c-0.9,2.3-2,4.2-3.5,5.9c-1.5,1.7-3.3,2.9-5.3,3.9c-2,0.9-4.1,1.4-6.3,1.4s-4.4-0.5-6.4-1.4s-3.7-2.2-5.2-3.9
	c-1.5-1.6-2.6-3.5-3.5-5.8c-0.9-2.2-1.2-4.5-1.2-7.2c0-2.6,0.4-4.9,1.2-7.2s2-4.2,3.5-5.9c1.5-1.7,3.2-3,5.2-4
	c2-0.9,4.2-1.5,6.4-1.5s4.4,0.5,6.3,1.4c2,0.9,3.8,2.3,5.3,4s2.7,3.6,3.5,5.9c0.9,2.3,1.3,4.6,1.3,7.1
	C1363.5,1223.7,1363,1226,1362.2,1228.3z M1456.3,1196.4h-9.2l-25.4,25.6v-45.4h-8.3v69.1h8.3v-15.2l9.5-8.9l17,24.1h9l-20.6-28.9
	L1456.3,1196.4z M1495.6,1187h8.3v-10.4h-8.3V1187z M1495.6,1245.7h8.3v-49.4h-8.3V1245.7z M1588.6,1203.1c-2.2-2.3-4.8-4.2-7.9-5.6
	c-3-1.3-6.4-2.1-10.1-2.1c-3.8,0-7.2,0.8-10.2,2.1c-3.1,1.3-5.8,3.2-8,5.5c-2.3,2.4-4,5.1-5.2,8.1c-1.2,3.1-1.8,6.4-1.8,9.8
	c0,3.5,0.6,6.8,1.8,9.9c1.2,3.1,2.9,5.9,5.2,8.1c2.2,2.4,4.8,4.3,8,5.6c3,1.3,6.4,2,10.2,2c2.5,0,4.8-0.3,7.1-0.9
	c2.3-0.6,4.3-1.4,6.2-2.6c1.9-1.1,3.5-2.5,4.9-4s2.6-3.1,3.4-5l-7.2-2c-0.6,1.3-1.3,2.5-2.3,3.4c-0.9,1-2.1,1.9-3.3,2.6
	c-1.3,0.8-2.7,1.3-4.1,1.7c-1.5,0.4-2.9,0.6-4.4,0.6c-2.2,0-4.3-0.4-6.2-1.2c-1.9-0.8-3.6-1.9-5.1-3.4c-1.5-1.4-2.7-3.1-3.7-5.2
	c-0.9-2-1.5-4.3-1.7-6.7h41c0-0.3,0.1-0.8,0.1-1.3c0-0.6,0.1-1.1,0.1-1.9c0-3.2-0.7-6.4-1.8-9.5
	C1592.4,1208.1,1590.7,1205.4,1588.6,1203.1z M1554,1217.7c0.2-2.3,0.7-4.4,1.6-6.4c0.9-1.9,2.1-3.6,3.6-5s3.2-2.6,5.2-3.3
	c1.9-0.8,4-1.2,6.2-1.2s4.3,0.5,6.2,1.2c1.9,0.8,3.6,1.9,5.1,3.2c1.5,1.4,2.7,3.1,3.7,5.1s1.6,4.2,1.8,6.4L1554,1217.7L1554,1217.7z
	 M1668,1222.5c-1.6-1-3.6-2-6.1-2.7c-2.5-0.8-5.3-1.6-8.5-2.4c-2.1-0.5-3.9-0.9-5.4-1.4c-1.5-0.4-2.7-0.9-3.6-1.5s-1.7-1.2-2.1-2
	s-0.6-1.7-0.6-2.8c0-2.8,1-4.8,3.1-6.2c2.1-1.3,4.7-2,7.8-2c2.7,0,5.3,0.5,8,1.4c2.6,0.9,4.9,2.3,7,4.1l3.8-5
	c-2.3-1.9-4.9-3.5-8.1-4.7c-3.2-1.1-6.7-1.8-10.4-1.8c-2.7,0-5.2,0.4-7.5,1c-2.3,0.7-4.3,1.6-6,2.9s-3.1,2.9-4.1,4.8
	c-0.9,1.9-1.4,4.1-1.4,6.5c0,2,0.3,3.6,0.9,4.9s1.6,2.5,3,3.4c1.3,0.9,3.1,1.8,5.3,2.5c2.1,0.8,4.6,1.4,7.7,2.2
	c2.3,0.6,4.4,1.1,6.2,1.6c1.7,0.6,3.2,1.1,4.4,1.7c1.1,0.7,2,1.4,2.6,2.3s0.9,1.9,0.9,3c0,2.7-1.1,4.6-3.2,6.1
	c-2.1,1.4-4.9,2.1-8.5,2.1c-3.2,0-6.3-0.5-9.2-1.6c-2.9-1.1-5.9-2.7-8.7-5l-3.6,5.6c2.7,2.4,6.1,4.2,9.9,5.4
	c3.8,1.2,7.8,1.8,11.7,1.8c6,0,10.7-1.3,14.3-4.1c3.5-2.7,5.3-6.3,5.3-11c0-2.1-0.5-3.8-1.2-5.3
	C1670.8,1224.9,1669.6,1223.7,1668,1222.5z"/>
</svg>
