<svg enable-background="new 0 0 1024 1024" height="1024" viewBox="0 0 1024 1024" width="1024" xmlns="http://www.w3.org/2000/svg"><path d="m0 0h1024v1024h-1024z" fill="#f99e1e"/><g fill="#f2f7f6"><path d="m464.7 328.68c0-9.09 7.37-16.46 16.46-16.46s16.46 7.37 16.46 16.46-7.37 16.46-16.46 16.46-16.46-7.37-16.46-16.46"/><path d="m473.68 404.53c-3.54 8.1-8.98 32.45-17.65 35.91-13.43 5.36-26.85 10.72-40.28 16.08-6.52-15.08 14.19-20.4 23.84-24.56 10.01-4.32 10.01-8.7 14.19-19.08 6.6-16.38 7.4-32.99 9.46-50.53-4.75 1.52-14.07 2.35-16.51 6.88-4.61 8.57-10.8 22.37-23.31 15.63 3.39-6.3 9.75-26.63 16.97-28.95 4.2-3.05 12.54-4.03 17.45-5.61 10.05-3.23 8.44.58 18.56 3.2 6.36 1.64 14.29-3.45 19-.62 5.83 3.5 11.66 7 17.49 10.49 9.51 5.7 19.01 11.41 28.52 17.12-10.02 16.7-37.74-7.35-47.93-13.47-4.75 40.36 1.79 73.55 8.59 113.81-22.3 3.01-25.4-61.53-28.39-76.3z"/><circle cx="569.79" cy="371.3" r="14.96"/><path d="m575.69 481.02c-20.24-.9.63-36.1-16.51-41-4.77-1.36-6.68 7.62-13.6 7.62h-27.86c0-17.9 26.09-4.24 28.05-12.06 2.7-10.81 5.41-21.63 8.11-32.44-15.06-4.18-13.47 21.07-27.81 13.91 8.95-17.9 15.75-31.36 38.49-24.52 6.04 1.82 11.76-3.1 16.07 1.21l11.68 11.68 17.2 17.2c-9.25 9.25-24.16-8.57-30.59-13.91-1.08 24.1-2.16 48.2-3.23 72.31z"/><path d="m264.59 728.11c-3.77-1.51-6.02-4.37-6.78-8.58-.6-4.07-3.16-7.38-7.68-9.94 1.2-7.68 2.56-15.44 4.07-23.27s3.39-16.72 5.65-26.66c2.41-10.09 5.35-21.76 8.81-35.02 3.61-13.4 8.13-29.59 13.55-48.57-4.97 0-8.89.08-11.75.23s-5.65.45-8.36.9c-.6-.6-1.13-1.43-1.58-2.48-.3-1.05-.45-2.03-.45-2.94 1.51-.6 4.59-1.36 9.26-2.26 4.67-1.05 9.79-1.96 15.36-2.71 3.61-11.45 7.76-21.69 12.43-30.72 4.67-9.19 9.71-17.02 15.14-23.49 5.42-6.48 11.15-11.45 17.17-14.91s12.12-5.2 18.3-5.2c1.81 0 3.54.15 5.2.45 1.66.15 2.94.23 3.84.23 1.36-1.05 3.16-1.96 5.42-2.71 2.26-.9 4.22-1.36 5.87-1.36 1.81 0 4.14.98 7 2.94-1.2 2.11-2.49 4.97-3.84 8.58-1.36 3.61-2.49 7.15-3.39 10.62-3.77 11.14-7.76 18.37-11.97 21.69-1.66 0-2.56-2.18-2.71-6.55-.15-3.16-.6-6.25-1.36-9.26-.6-1.36-1.05-2.56-1.36-3.61-.15-1.05-.23-2.41-.23-4.07 0-.9.08-1.96.23-3.16.15-1.36.45-3.54.9-6.55-2.56 0-5.42 1.58-8.58 4.74-3.01 3.16-6.25 7.68-9.71 13.55-3.31 5.72-6.7 12.58-10.17 20.56-3.46 7.98-6.78 16.79-9.94 26.43l18.98-.68c.75.75 1.36 2.48 1.81 5.2.6 2.56.98 5.27 1.13 8.13l-24.85-1.37c-5.72 17.02-11.07 33.28-16.04 48.8s-9.41 29.82-13.33 42.92-7.3 24.78-10.17 35.02c-2.71 10.39-4.66 18.75-5.87 25.08z"/><path d="m390.83 657.85c-2.86-2.41-4.82-5.42-5.87-9.04-.9-3.61-1.36-6.7-1.36-9.26 0-3.16.38-5.87 1.13-8.13-.6 0-1.96 1.2-4.07 3.61s-4.44 5.27-7 8.58c-2.41 3.31-4.82 6.55-7.23 9.71s-4.22 5.5-5.42 7c-1.96 2.11-3.84 3.77-5.65 4.97-1.66 1.2-3.01 1.88-4.07 2.03-2.41-.15-4.97-.68-7.68-1.58-2.56-.75-5.05-1.88-7.46-3.39-2.26-1.51-4.29-3.31-6.1-5.42-1.66-2.11-2.79-4.52-3.39-7.23 0-4.22.08-7.68.23-10.39.3-2.71.83-5.65 1.58-8.81 1.36-5.72 3.31-12.2 5.87-19.43 2.71-7.23 5.8-14.31 9.26-21.24 3.46-7.08 7.3-13.63 11.52-19.65 4.37-6.17 8.96-10.99 13.78-14.46 1.36 0 2.94.15 4.74.45 1.81.15 3.61.53 5.42 1.13 1.96.6 3.77 1.36 5.42 2.26 1.81.75 3.31 1.81 4.52 3.16-1.36 1.51-4.82 6.55-10.39 15.14-5.42 8.58-11.52 20.93-18.3 37.05-.75 1.66-1.66 4.07-2.71 7.23s-2.11 6.48-3.16 9.94-1.96 6.85-2.71 10.17c-.6 3.31-.9 5.95-.9 7.91 0 1.2.15 2.11.45 2.71.45.6.83 1.05 1.13 1.36 2.26-.9 5.12-3.39 8.58-7.46s8.28-10.32 14.46-18.75c1.51-2.11 3.24-4.52 5.2-7.23 2.11-2.71 4.22-5.57 6.33-8.58 2.11-3.16 4.07-6.4 5.87-9.71 1.96-3.31 3.54-6.63 4.74-9.94.6-1.81 1.36-3.92 2.26-6.33 1.05-2.56 2.26-5.2 3.61-7.91 1.51-2.71 3.16-5.42 4.97-8.13 1.96-2.86 4.22-5.5 6.78-7.91 1.96 0 4.07.23 6.33.68s4.37 1.05 6.33 1.81c2.11.6 3.92 1.36 5.42 2.26 1.51.75 2.64 1.58 3.39 2.49-2.71 6.63-5.72 13.18-9.04 19.65-3.31 6.48-6.4 12.88-9.26 19.2-2.86 6.17-5.27 12.35-7.23 18.52s-2.94 12.2-2.94 18.07c0 3.16.23 5.95.68 8.36.6 2.26 1.2 4.22 1.81 5.87.6 1.51 1.13 2.79 1.58 3.84.6 1.05.9 1.96.9 2.71 0 .15-.15.38-.45.68-.15.15-.3.23-.45.23-1.05 0-2.41-.23-4.07-.68s-3.54-1.13-5.65-2.03c-1.96-.75-3.99-1.66-6.1-2.71-1.94-1.05-3.82-2.18-5.63-3.38z"/><path d="m477.61 553.25c3.92 1.2 7.61 3.92 11.07 8.13 3.46 4.07 6.02 8.58 7.68 13.55-1.66 4.07-4.22 8.96-7.68 14.68s-6.93 11.6-10.39 17.62c-3.46 5.87-6.63 11.52-9.49 16.94-2.71 5.27-4.29 9.64-4.74 13.1 2.41-2.56 5.05-5.5 7.91-8.81 3.01-3.46 5.87-6.85 8.58-10.17 2.86-3.46 5.5-6.55 7.91-9.26 2.41-2.86 4.29-4.97 5.65-6.33 2.86-3.01 6.25-6.48 10.17-10.39 3.92-4.07 7.98-7.83 12.2-11.3 4.37-3.61 8.74-6.63 13.1-9.04 4.37-2.56 8.36-3.84 11.97-3.84 3.92 0 7.15 1.36 9.71 4.07 2.71 2.56 4.82 5.27 6.33 8.13 0 .3-.6.75-1.81 1.36-1.05.45-2.64 1.88-4.74 4.29-2.11 2.71-4.52 6.48-7.23 11.3-2.56 4.67-5.12 9.79-7.68 15.36-2.41 5.42-4.44 10.99-6.1 16.72-1.66 5.72-2.49 10.92-2.49 15.59 0 3.77.45 6.17 1.36 7.23 1.05 1.05 2.49 1.58 4.29 1.58 1.66 0 3.39-.38 5.2-1.13s3.24-1.13 4.29-1.13c.6.3 1.05.98 1.36 2.03.45.9.68 1.73.68 2.49-1.2 1.05-2.64 2.11-4.29 3.16-1.66 1.05-3.39 2.03-5.2 2.94-1.81.9-3.61 1.66-5.42 2.26-1.66.6-3.16.9-4.52.9-4.37 0-7.98-.68-10.84-2.03-2.71-1.2-4.89-2.86-6.55-4.97-1.51-2.11-2.56-4.59-3.16-7.46-.6-3.01-.9-6.17-.9-9.49 0-1.81.15-3.84.45-6.1s.9-4.89 1.81-7.91c.9-3.16 2.18-6.85 3.84-11.07 1.66-4.37 3.77-9.56 6.33-15.59-.3 0-2.33 1.05-6.1 3.16s-7.83 5.35-12.2 9.71c-7.08 6.78-13.48 13.48-19.2 20.11-5.57 6.63-11.3 14.01-17.17 22.14-3.31 4.67-6.25 8.58-8.81 11.75-2.41 3.31-4.52 5.5-6.33 6.55-3.16-1.81-5.5-4.37-7-7.68-1.51-3.16-2.64-6.48-3.39-9.94 0-2.86.38-6.48 1.13-10.84.9-4.37 2.03-9.19 3.39-14.46 1.51-5.42 3.31-11.07 5.42-16.94s4.44-11.75 7-17.62c5.72-13.25 10.92-23.65 15.59-31.18 4.79-7.5 7.81-11.57 9.01-12.17z"/><path d="m575.22 728.11c-3.77-1.51-6.02-4.37-6.78-8.58-.6-4.07-3.16-7.38-7.68-9.94 1.2-7.68 2.56-15.44 4.07-23.27s3.39-16.72 5.65-26.66c2.41-10.09 5.35-21.76 8.81-35.02 3.61-13.4 8.13-29.59 13.55-48.57-4.97 0-8.89.08-11.75.23s-5.65.45-8.36.9c-.6-.6-1.13-1.43-1.58-2.48-.3-1.05-.45-2.03-.45-2.94 1.51-.6 4.59-1.36 9.26-2.26 4.67-1.05 9.79-1.96 15.36-2.71 3.61-11.45 7.76-21.69 12.43-30.72 4.67-9.19 9.71-17.02 15.14-23.49 5.42-6.48 11.14-11.45 17.17-14.91s12.12-5.2 18.3-5.2c1.81 0 3.54.15 5.2.45 1.66.15 2.94.23 3.84.23 1.36-1.05 3.16-1.96 5.42-2.71 2.26-.9 4.22-1.36 5.87-1.36 1.81 0 4.14.98 7 2.94-1.2 2.11-2.49 4.97-3.84 8.58-1.36 3.61-2.49 7.15-3.39 10.62-3.77 11.14-7.76 18.37-11.97 21.69-1.66 0-2.56-2.18-2.71-6.55-.15-3.16-.6-6.25-1.36-9.26-.6-1.36-1.05-2.56-1.36-3.61-.15-1.05-.23-2.41-.23-4.07 0-.9.08-1.96.23-3.16.15-1.36.45-3.54.9-6.55-2.56 0-5.42 1.58-8.58 4.74-3.01 3.16-6.25 7.68-9.71 13.55-3.31 5.72-6.7 12.58-10.17 20.56-3.46 7.98-6.78 16.79-9.94 26.43l18.98-.68c.75.75 1.36 2.48 1.81 5.2.6 2.56.98 5.27 1.13 8.13l-24.85-1.36c-5.72 17.02-11.07 33.28-16.04 48.8-4.97 15.51-9.41 29.82-13.33 42.92s-7.3 24.78-10.17 35.02c-2.71 10.38-4.66 18.74-5.87 25.07z"/><path d="m640.24 647.68c0-1.36.08-3.01.23-4.97.3-2.11.75-4.82 1.36-8.13.6-3.46 1.36-7.61 2.26-12.43 1.05-4.82 2.33-10.62 3.84-17.4.3-1.51.98-3.92 2.03-7.23s2.41-6.78 4.07-10.39c1.81-3.77 3.92-7.38 6.33-10.84 2.56-3.46 5.57-6.02 9.04-7.68 2.56.6 5.95 2.18 10.17 4.74 4.22 2.41 7.83 5.8 10.84 10.17-3.46 3.92-6.4 7.83-8.81 11.75-2.26 3.92-4.37 7.98-6.33 12.2-1.81 4.22-3.54 8.58-5.2 13.1-1.51 4.52-3.24 9.26-5.2 14.23-1.66 4.22-3.16 8.58-4.52 13.1-1.36 4.37-2.11 8.21-2.26 11.52 0 2.71-.08 4.59-.23 5.65 0 1.2-.38 1.81-1.13 1.81-.6 0-1.81-.38-3.61-1.13-1.81-.75-3.69-1.88-5.65-3.39-1.81-1.66-3.46-3.69-4.97-6.1s-2.26-5.26-2.26-8.58zm43.15-98.04c0-.9.23-2.26.68-4.07-.75-.75-1.43-1.88-2.03-3.39-.45-1.51-.68-2.86-.68-4.07 0-1.36.15-3.16.45-5.42.45-2.41.98-4.97 1.58-7.68s1.36-5.5 2.26-8.36c.9-3.01 1.81-5.72 2.71-8.13 1.81 0 3.99.53 6.55 1.58 2.71.9 5.42 2.18 8.13 3.84 2.71 1.51 5.2 3.24 7.46 5.2 2.26 1.81 3.99 3.54 5.2 5.2-1.66 1.66-3.84 3.99-6.55 7-2.71 2.86-5.35 5.95-7.91 9.26-2.56 3.16-4.89 6.17-7 9.04-2.11 2.86-3.46 4.89-4.07 6.1-1.81-.3-3.39-1.05-4.74-2.26-1.37-1.36-2.04-2.64-2.04-3.84z"/><path d="m704.96 576.29c-.75-.9-1.43-2.79-2.03-5.65-.6-3.01-.9-5.57-.9-7.68 3.92.3 7.68.6 11.3.9 3.61.15 6.93.3 9.94.45 2.26-4.52 4.67-8.96 7.23-13.33 2.71-4.52 5.27-8.58 7.68-12.2 2.56-3.77 4.89-6.93 7-9.49 2.26-2.56 3.99-4.22 5.2-4.97 1.51 0 3.39.3 5.65.9 2.41.45 4.82 1.13 7.23 2.03 2.41.75 4.59 1.58 6.55 2.48s3.31 1.81 4.07 2.71c-4.52 5.72-8.43 11.07-11.75 16.04-3.16 4.82-6.63 10.39-10.39 16.72 3.01 0 6.02-.08 9.04-.23 3.16-.15 6.33-.38 9.49-.68.75.75 1.36 1.73 1.81 2.94.45 1.05.68 2.18.68 3.39-7.38 2.71-16.34 4.22-26.88 4.52-3.77 7.23-7.15 14.46-10.17 21.69-2.86 7.08-5.35 13.93-7.46 20.56-1.96 6.63-3.54 12.88-4.74 18.75-1.05 5.87-1.58 11.15-1.58 15.81 0 6.63 2.49 10.32 7.46 11.07 4.52-.6 8.81-1.73 12.88-3.39s7.68-3.77 10.84-6.33c.9 1.36 1.43 2.49 1.58 3.39-.9 1.36-2.48 2.94-4.74 4.74-2.11 1.81-4.44 3.54-7 5.2-2.56 1.81-5.05 3.31-7.46 4.52-2.41 1.2-4.22 1.88-5.42 2.03-3.77-.15-7.53-.98-11.3-2.49s-7.23-3.39-10.39-5.65c-3.01-2.26-5.5-4.74-7.46-7.46-1.96-2.86-2.94-5.65-2.94-8.36 0-3.61.45-8.13 1.36-13.55 1.05-5.57 2.48-11.6 4.29-18.07 1.81-6.48 3.92-13.25 6.33-20.33s5.05-14.08 7.91-21.01h-12.91z"/></g></svg>