<?xml version="1.0" encoding="utf-8"?>
<!-- Generator: Adobe Illustrator 21.0.0, SVG Export Plug-In . SVG Version: 6.00 Build 0)  -->
<svg version="1.1" id="Layer_1" xmlns="http://www.w3.org/2000/svg" xmlns:xlink="http://www.w3.org/1999/xlink" x="0px" y="0px"
	 viewBox="0 0 1024 1024" enable-background="new 0 0 1024 1024" xml:space="preserve">
<path fill="#084645" d="M0,0h1024v1024H0V0z"/>
<path fill="#42D2C8" d="M328.9,468.2c18.4,1.8,33,14.9,37.8,31.7c-4.6-14.3-17.3-25.2-33.1-26.7c-13.5-1.3-26,4.5-33.9,14.3
	c7.3-7.8,18-12.3,29.4-11.1c16,1.6,28.5,13.5,31.4,28.6c-2.9-12.8-13.7-22.9-27.4-24.2c-10.9-1-21,3.6-27.4,11.5
	c5.9-6.3,14.5-9.9,23.8-9c15.8,1.5,27.3,15.6,25.8,31.4c-1.5,15.8-15.6,27.4-31.3,25.9c-7.7-0.8-14.3-4.5-19-9.9
	c5.1,6.9,12.9,11.7,22.1,12.5c15,1.5,28.5-7.9,32.9-21.7c-4.6,16.3-20.2,27.6-37.6,25.9c-9.5-0.9-17.8-5.5-23.5-12.2
	c6.3,8.5,16,14.4,27.4,15.5c18.3,1.8,34.8-9.5,40.5-26.3c-5.9,19.7-25,33.1-46.1,31.1c-11.7-1.1-21.8-6.8-28.9-15.1
	c7.7,10.5,19.7,17.8,33.6,19.1c26.2,2.5,49.5-16.7,52-43c2.5-26.3-16.6-49.6-42.8-52.2c-16.5-1.6-31.9,5.5-41.6,17.5
	C301.8,472.3,314.9,466.9,328.9,468.2L328.9,468.2z"/>
<g>
	<path fill="#DED7CD" d="M261.2,510.3c1.8,0,3.2,0.6,4.3,1.8c1.2,1.1,1.8,2.6,1.8,4.4v28.7c0,1.9-0.6,3.4-1.9,4.4
		c-8.4,7-18.2,10.4-29.4,10.4c-8.6,0-16.4-2.1-23.5-6.4c-7-4.2-12.6-10-16.7-17.4s-6.1-15.5-6.1-24.4c0-8.8,2-16.8,6.1-24.1
		c4.1-7.4,9.6-13.2,16.7-17.4c7.1-4.3,15-6.5,23.5-6.5c6.1,0,11.3,0.8,15.7,2.4c4.5,1.6,9,4.2,13.6,7.9c1,0.7,1.6,1.5,1.9,2.3
		c0.3,0.7,0.5,1.6,0.5,2.6c0,1.6-0.6,2.9-1.8,4c-1.1,1-2.5,1.6-4.1,1.6c-1.4,0-2.8-0.5-4.1-1.6c-3.3-2.8-6.5-4.8-9.6-6
		c-3.1-1.3-7.2-1.9-12.1-1.9c-6.2,0-12,1.6-17.3,4.9c-5.2,3.3-9.4,7.8-12.5,13.4c-3,5.6-4.6,11.7-4.6,18.4c0,6.7,1.5,12.9,4.6,18.5
		c3.1,5.6,7.3,10,12.5,13.3c5.3,3.3,11,4.9,17.3,4.9c6.7,0,13.2-2,19.3-6v-21.4h-16.6c-1.8,0-3.4-0.5-4.6-1.6c-1.1-1-1.7-2.4-1.7-4
		s0.6-2.9,1.7-4c1.2-1,2.7-1.6,4.6-1.6L261.2,510.3z"/>
	<path fill="#DED7CD" d="M446.9,560.1c-9.3,0-17.6-2-24.8-6.1c-7.2-4.1-12.8-9.8-16.8-17c-4-7.4-6-15.7-6-25s2-17.6,6-24.8
		s9.6-13,16.8-17c7.3-4.1,15.6-6.1,24.8-6.1c9.2,0,17.4,2,24.6,6.1c7.3,4.1,12.9,9.8,16.9,17c4.1,7.3,6.1,15.6,6.1,24.8
		s-2,17.6-6.1,25c-4,7.3-9.6,13-16.8,17S456.2,560.1,446.9,560.1L446.9,560.1z M446.9,548.8c6.8,0,12.9-1.6,18.4-4.8
		c5.4-3.3,9.7-7.7,12.7-13.3s4.6-11.8,4.6-18.7s-1.5-13.1-4.6-18.7s-7.3-10-12.7-13.2c-5.4-3.2-11.5-4.8-18.4-4.8s-13,1.6-18.5,4.8
		c-5.4,3.2-9.6,7.6-12.6,13.2s-4.6,11.8-4.6,18.7c0,6.9,1.5,13.1,4.6,18.7s7.3,10,12.7,13.3C434,547.2,440.1,548.8,446.9,548.8z"/>
	<path fill="#DED7CD" d="M610.1,465.1c1.8,0,3.2,0.6,4.4,1.8s1.8,2.7,1.8,4.4v81.2c0,1.8-0.6,3.2-1.9,4.4c-1.2,1.2-2.6,1.8-4.3,1.8
		c-1.8,0-3.2-0.6-4.4-1.8s-1.8-2.7-1.8-4.4V493l-29,59.2c-1.4,2.1-3.2,3.1-5.4,3.1c-2.6,0-4.6-1.2-5.8-3.7L535,494.1v58.6
		c0,1.8-0.6,3.2-1.8,4.4s-2.7,1.8-4.4,1.8s-3.2-0.6-4.4-1.8s-1.8-2.7-1.8-4.4v-81.2c0-1.8,0.6-3.2,1.8-4.4s2.7-1.8,4.4-1.8
		c2.4,0,4.2,1.1,5.5,3.4l35.6,71.4l34.7-71.4C605.9,466.3,607.7,465.1,610.1,465.1L610.1,465.1z"/>
	<path fill="#DED7CD" d="M692.1,560.1c-9.3,0-17.6-2-24.8-6.1c-7.2-4.1-12.8-9.8-16.8-17c-4-7.4-6-15.7-6-25s2-17.6,6-24.8
		s9.6-13,16.8-17c7.3-4.1,15.6-6.1,24.8-6.1c9.2,0,17.4,2,24.6,6.1c7.3,4.1,12.9,9.8,16.9,17c4.1,7.3,6.1,15.6,6.1,24.8
		s-2,17.6-6.1,25c-4,7.3-9.6,13-16.8,17S701.4,560.1,692.1,560.1z M692.1,548.8c6.8,0,12.9-1.6,18.4-4.8c5.4-3.3,9.7-7.7,12.7-13.3
		s4.6-11.8,4.6-18.7s-1.5-13.1-4.6-18.7s-7.3-10-12.7-13.2c-5.4-3.2-11.5-4.8-18.4-4.8s-13,1.6-18.5,4.8c-5.4,3.2-9.6,7.6-12.6,13.2
		s-4.6,11.8-4.6,18.7c0,6.9,1.5,13.1,4.6,18.7s7.3,10,12.7,13.3C679.2,547.2,685.3,548.8,692.1,548.8z"/>
	<path fill="#DED7CD" d="M774,558.9c-1.8,0-3.2-0.6-4.4-1.8s-1.8-2.7-1.8-4.4v-81.2c0-1.8,0.6-3.3,1.8-4.4c1.2-1.2,2.7-1.8,4.4-1.8
		h54.2c1.8,0,3.3,0.6,4.4,1.7c1.1,1,1.7,2.4,1.7,4.2c0,1.7-0.6,3-1.7,4.1s-2.6,1.6-4.4,1.6h-48v29.2h34.4c1.8,0,3.2,0.6,4.3,1.7
		c1.2,1,1.8,2.4,1.8,4.1c0,1.7-0.6,3.1-1.8,4.2c-1.1,1-2.6,1.6-4.3,1.6h-34.4v30h48c1.8,0,3.3,0.5,4.4,1.6s1.7,2.4,1.7,4.1
		c0,1.8-0.6,3.2-1.7,4.3c-1.1,1-2.6,1.6-4.4,1.6H774z"/>
</g>
</svg>
