<?xml version="1.0" encoding="utf-8"?>
<!-- Generator: Adobe Illustrator 21.0.0, SVG Export Plug-In . SVG Version: 6.00 Build 0)  -->
<svg version="1.1" id="Layer_1" xmlns="http://www.w3.org/2000/svg" xmlns:xlink="http://www.w3.org/1999/xlink" x="0px" y="0px"
	 viewBox="0 0 1024 1024" enable-background="new 0 0 1024 1024" xml:space="preserve">
<path fill="#2462B7" d="M0,0h1024v1024H0V0z"/>
<g>
	<path fill="#1CDBE6" d="M401.6,303.9l-0.8,15.8c-0.3,4.1,3.8,3.6,7.6,3.9c5.1,0,4.2-3.7,4.3-3.8l200,9.6c1,0-0.2,0.2,13.1-3.7
		c3-0.9,3-5.1,0.3-6.2l-11.8-4.8c-0.2-0.1-0.6-0.2-0.6-0.2c-0.3,0-200.2-9.7-200.2-9.7c-0.2-0.3,1.1-3.7-4.1-4.2
		C406,300.5,401.8,299.6,401.6,303.9z M412.9,317l0.4-9.3c0,0,199.6,9.6,199.9,9.6c14.8,6.8,17.3,3.8-0.5,9.2L412.9,317z
		 M404.6,303.5c0,0,0.3-0.2,1.4-0.1l3.2,0.2c1.1,0.1,1.3,0.2,1.4,0.2c0,0,0.1,0.1,0.1,0.6c0,1,0.2-4.6-0.9,16.3c0,0-0.3,0.1-1.2,0.1
		l-3.7-0.2c-0.9,0-1.1-0.2-1.2-0.2C403.7,320.1,404.7,301.1,404.6,303.5L404.6,303.5z M622.5,338.6c-0.1-4-3.6-3.5-7.7-3.3
		c-5,0-4.1,4-4.2,4.1l-20.2,0.8c-4-6.5-10.7-4.5-10.7,0.4l-5,0.2c-0.8-1.1-1.8-2.2-3.1-3.1c-2.5-1.7-6.8-0.7-7.3,3.5l-4.8,0.2
		c-1-1.4-2.4-2.7-4.2-3.7c-2.8-1.4-6.8,0.5-6.8,4.1l-4.8,0.2c-0.8-1.1-1.8-2.2-3.1-3.1c-2.1-1.4-5.1-0.8-6.5,1.2
		c-0.5,0.7-0.7,1.5-0.8,2.3l-5,0.2c-0.8-1.1-1.8-2.2-3.1-3.1c-2.5-1.7-6.8-0.7-7.3,3.5l-4.3,0.2c-4.9-6.9-11-4-11,0.4l-4.8,0.2
		c-0.8-1.1-1.8-2.2-3.1-3.1c-2.5-1.7-6.8-0.7-7.3,3.5l-5,0.2c-0.8-1.1-1.8-2.2-3.1-3.1c-2.5-1.7-6.8-0.7-7.3,3.5l-5.5,0.2
		c-0.8-1.1-1.8-2.2-3.1-3.1c-2.1-1.4-5.1-0.8-6.5,1.2c-0.5,0.7-0.7,1.5-0.8,2.3c-2.4,0.1-4.7,0.2-6.9,0.3c-0.8-1.1-1.8-2.2-3.1-3.1
		c-2.5-1.7-6.8-0.7-7.3,3.5c-29,1.2-29.1,1.2-29.4,1.2c0,0-0.4,0.1-0.6,0.2l-10.8,4.9c-2.8,1.1-2.8,5.3,0.2,6.2
		c13.8,4.1,12.1,3.8,13.1,3.8l28.8-1.1c0,0.2,0,0.5,0.1,0.6c0,1.6,0.1,1.1,0.1,1.5c-0.2,1.1-0.1,2.8,1.6,4.7c-1.8,1.8-2,4.6,0.4,7.3
		c-1.9,1.9-2.1,4.9,0.4,7.6c-2,2-2.4,5,0.4,7.8c-2.1,1.9-2.4,5.1,0.2,7.7c-2.4,2.4-1.9,5.3,0.3,7.6c-2,2-2.4,4.9,0.2,7.6
		c-2,2-2.1,5.1,0.6,7.7c-2,1.8-2.5,5,0.3,7.8c-2.5,2.6-2,5.5,0.4,7.8c-0.8,0.7-1.4,1.6-1.6,2.8c-0.2,1.1-0.1,3,1.8,4.9
		c-2.3,2.3-1.9,5.2,0.2,7.5c-2.2,2.2-1.8,5.1,0.3,7.4c-2,2-2.1,4.8,0.3,7.4c-1.9,1.9-2.2,4.7,0.4,7.5c-2.4,2.4-1.9,5.3,0.3,7.6
		c-6.8,6.8,9.4,17,19.3,9.4c1.6,0.8,3.6,2,7.3,2c3.2,0,6.1-1,8.4-2.7c1.7,0.8,3.6,2,7.3,2c3.4,0,6.4-1.1,8.8-3
		c0.7,0.4,1.5,0.8,2.4,1.2c3.9,1.7,9.2,1.5,13.4-1.2c0.4,0.2,0.8,0.4,1.2,0.6c3.8,1.7,9,1.5,13.2-1.1c5.9,2.9,11.6,1.7,15.4-1.3
		c6.5,3.7,13,2.6,17-1c5,2.5,12,1.7,16.2-2.7c3.8,2.4,7.5,2.9,9.7,2.5c-1.1,10.2,0.7,25.1,1.8,27.8c0.4,0.9,1.2,1.2,2.2,0.9
		c5-2.6,8.5-2.9,6.8-5.4c-1.1-2.5-2.9-21.7-1.2-25.7l0.2-0.5c0.5-1,1-2.3,0.8-3.6c1.8-3.4-0.4-6.2-1.2-6.2c0.3-0.4,0.6-0.7,0.8-1.1
		c1.4-2.2,1.1-4.9-0.7-6.4c-0.1-0.1-0.2-0.2-0.4-0.2c0.3-0.3,0.5-0.7,0.7-1c2-3.2,0-6.5-1-6.5c0.2-0.3,0.4-0.6,0.6-0.9
		c1.4-2.2,1.1-4.9-0.7-6.4c-0.1-0.1-0.2-0.1-0.2-0.2c0.2-0.3,0.4-0.6,0.6-0.9c1.4-2.2,1.1-4.9-0.7-6.4c-0.1-0.1-0.2-0.1-0.2-0.2
		c0.2-0.3,0.4-0.6,0.6-0.9c1.4-2.2,1.1-4.9-0.7-6.4c-0.1-0.1-0.2-0.1-0.3-0.2c0.2-0.3,0.5-0.6,0.7-1c1.7-2.6,0.8-5.7-1.2-6.7
		c0.3-0.4,0.6-0.8,0.9-1.2c1.4-2.2,1.1-4.9-0.7-6.4c-0.1-0.1-0.3-0.2-0.4-0.3c0.3-0.4,0.6-0.7,0.8-1.1c1.7-2.6,0.8-5.7-1.2-6.7
		c0.3-0.4,0.6-0.8,0.9-1.2c1.4-2.2,1.1-4.9-0.7-6.4c-0.1-0.1-0.2-0.1-0.3-0.2c0.2-0.3,0.5-0.6,0.7-0.9c1.4-2.2,1.1-4.9-0.7-6.4
		c-0.1-0.1-0.3-0.2-0.4-0.3c2-2.1,2.4-5.6,0.1-7.5c-0.1-0.1-0.2-0.1-0.3-0.2c0.2-0.3,0.5-0.6,0.7-1c1.4-2.2,1.1-4.9-0.7-6.4
		c-0.2-0.1-0.4-0.2-0.5-0.3c0.3-0.4,0.6-0.8,0.9-1.3c1.4-2.2,1.1-4.9-0.7-6.4c-0.1-0.1-0.3-0.2-0.4-0.2c2-2.1,2.4-5.6,0.1-7.5
		c-0.1-0.1-0.2-0.1-0.3-0.2c0.2-0.3,0.4-0.6,0.6-0.9c1.4-2.2,1.1-4.9-0.7-6.4c0,0-0.1,0-0.1-0.1c1-1,1.7-3,1.1-5l18.6-0.7
		c0.1,0.1-0.6,4.3,4.2,3.8c4-0.1,5.2,0.1,6.4-0.8C623.9,355,622.5,353,622.5,338.6L622.5,338.6z M575.7,387.3
		c1.4,1.8,4.4,2.7,6.9,2.5c3.4-0.2,4.9-2.2,5.7-3.5c0.5-0.3,1-0.6,1.4-0.9c3.7,1.2-1.2,5.6-3.7,6.6c-1.8,0.8-3.5,0.9-4.5,0.9
		c-1.3,0-2.5-0.2-3.6-0.6c-0.7-0.9-1.6-1.5-2.7-1.7C575.7,389.4,575.8,388.3,575.7,387.3L575.7,387.3z M575.9,394.9
		C576,394.9,576,394.9,575.9,394.9c1.4,1.8,4.5,2.7,6.9,2.5c2.9-0.2,4.5-1.7,5.4-3c0.8-0.4,1.5-0.9,2.1-1.4c2.8,1.4-1.5,5.4-4,6.5
		c-1.8,0.8-3.6,1-4.6,1c-1.3,0-2.6-0.3-3.7-0.7c-0.7-0.8-1.6-1.3-2.7-1.6C576,397.1,576.1,395.9,575.9,394.9z M586.1,383.8
		c-1.9,0.9-3.8,1.1-4.8,1.1c-1.5,0-2.9-0.3-4-0.8c-0.7-0.6-1.5-1.1-2.4-1.3c0.6-1.2,0.8-2.4,0.6-3.6c1.4,1.8,4.4,2.7,6.9,2.6
		c3-0.2,4.6-1.8,5.4-3.1c0.7-0.4,1.3-0.8,2-1.3C592.5,378.8,588.9,382.4,586.1,383.8z M577.2,376.5c-0.7-0.8-1.6-1.4-2.7-1.7
		c0.7-1.3,0.5-2.4,0.5-3.3c3.3,3.3,9.1,3.8,12.1-0.2c0.9-0.4,1.7-1,2.4-1.6C592.9,371.4,585.8,379.6,577.2,376.5z M585.4,339.5
		c3.8,2.9,4.7,7.4,3.6,12c-0.5-0.2-1-0.3-1.6-0.3h-1.2c0.7-2.9,0-7.6-2.6-9.2C582.1,341,583.6,338.3,585.4,339.5z M584.3,357.5
		c-0.6,0-1.1-0.5-1.2-1.1c0-0.5-0.2-1.1,0.3-1.6h0.1c0.5-0.5,0.9-0.2,4.2-0.4c0.1,0,0.2,0.1,0.3,0.1c0.4,0.1,0.7,0.4,0.8,0.8v0.2
		C588.6,357.6,588.6,357.2,584.3,357.5L584.3,357.5z M580.9,343.6c1.2,1.6,2.1,1.5,2.3,3.8c0.3,3.3-0.1,3.7-0.2,3.8
		c-0.4,0.2-1.3,0.8-2,1.7l-4.2,0.2c0.6-2.8,0.7-6.2-0.4-9.3L580.9,343.6z M580,356.4c-0.9-0.1-1.7-0.4-2.2-0.6
		c2.5-0.1,2.2-0.1,2.2,0V356.4z M576.2,358.5c1.8,1.1,3.5,1.2,5.4,1.2c1.8,1.6,3.8,0.8,5.4,0.9c-2.5,1.9-6.2,2.8-9.9,1.7
		c-0.5-0.9-1.4-1.5-2.3-1.9C575,359.8,575.4,360,576.2,358.5L576.2,358.5z M574.8,364.7c0.2,0.1,0.5,0.1,0.7,0.2
		c2.4,2.3,7.8,3.1,11-0.5c1.1-0.5,2.1-1.1,2.9-1.9c0.3,0,1.2,1.1,0.2,2.4c-2,3.1-4.8,4.8-9.1,4.8c-1.3,0-2.5-0.2-3.6-0.6
		c-0.7-0.9-1.5-1.6-2.7-1.9C574.7,366.4,574.8,365.5,574.8,364.7L574.8,364.7z M573.5,411.5c-0.1,0.3-0.2,0.6-0.3,0.8
		c-3.3,4.7-8.4,5.6-12.3,4.3c0.2-0.2,0.4-0.5,0.5-0.7c0.4-0.7,0.6-1.4,0.8-2.1c1,0.2,2,0.3,3,0.3c3.3-0.2,5.2-2.5,5.2-2.8
		c0.8-0.4,1.6-0.9,2.3-1.5c0.2,0.1,0.3,0.1,0.5,0.2C573.6,410.4,573.6,411,573.5,411.5z M573.8,419.4c-0.1,0.3-0.2,0.6-0.3,0.8
		c-1.3,1.8-2.1,2.8-4.4,3.9c-2.9,1.2-5.5,1.2-8,0.5c0.2-0.2,0.4-0.5,0.5-0.7c0.4-0.7,0.6-1.4,0.8-2.1c4.4,0.9,6.8-0.3,8.7-3.2
		c0.5-0.3,1-0.6,1.5-1c0.3,0.1,0.6,0.2,0.8,0.3C573.9,418.3,574,418.9,573.8,419.4z M571.3,364.1c1.7,1.4-1.4,4.2-1.4,4.3
		c-2.9,2.9-7.9,3.5-11,2.3c-0.1-0.1-0.2-0.3-0.3-0.4c0.1-0.1,0.2-0.2,0.2-0.3c0.5-0.7,0.7-1.5,0.8-2.2c3,1,6.7,0.6,8.7-1.8
		C569.4,365.5,570.4,364.9,571.3,364.1C571.1,364,571.2,364,571.3,364.1z M568.9,358.1c-0.2,0-0.4,0-0.5-0.1
		c-0.9-0.5-0.7-1.6-0.7-1.7c0-0.2,0-0.6,0.3-0.9c0.5-0.5,0.8-0.4,0.9-0.4c3.7,0,3.2-0.3,4,0.1c0.3,0.2,0.5,0.5,0.5,0.9
		c0,0.1,0,0.9,0,0.8c0,1.5-1.9,1.2-2,1.2L568.9,358.1z M559.7,375.2c1.3,0.4,2.6,0.6,3.9,0.5c3.3-0.2,5.1-2.4,5.1-2.7
		c0.9-0.4,1.7-1,2.4-1.6c0.1,0.1,0.3,0.1,0.4,0.2c1.8,1.4-2,7.2-8.9,7.2c-1.4,0-2.7-0.3-3.8-0.7c-0.1-0.1-0.1-0.2-0.2-0.2
		C558.9,377.2,559.5,376.9,559.7,375.2z M560.1,385.1c0.4-0.7,0.6-1.4,0.8-2.1c1,0.2,2,0.3,3,0.3c2.6-0.2,4.7-1.7,5.4-3.1
		c0.7-0.4,1.4-0.8,2-1.3c0.2,0.1,0.4,0.2,0.6,0.3c1.9,1.5-2.3,7.3-8.9,7.3c-1.2,0-2.3-0.2-3.2-0.5
		C559.8,385.6,560,385.4,560.1,385.1L560.1,385.1z M560.5,393.1c0.4-0.7,0.6-1.4,0.8-2.1c4.4,0.9,6.8-0.3,8.7-3.2
		c0.5-0.3,1-0.6,1.4-0.9c0.3,0.1,0.6,0.2,0.9,0.4c0.7,0.6,0.5,1.6,0.1,2.4c-0.5,0.7-1,1.3-1.5,1.9c-3.2,2.9-7.5,3.5-10.8,2.4
		C560.1,393.6,560.3,393.3,560.5,393.1L560.5,393.1z M560.8,400.7c0.4-0.7,0.6-1.4,0.8-2.1c1,0.2,2,0.3,3,0.3
		c3.5-0.3,4.6-2.2,5.3-2.9c0.8-0.4,1.5-0.9,2.2-1.4c0.2,0.1,0.4,0.2,0.5,0.3c0.5,0.4,0.5,1,0.4,1.6c-0.2,0.8-0.1,0.7-1.8,2.7
		c-0.1,0-4.5,4.6-10.8,2.5C560.4,401.2,560.6,400.9,560.8,400.7L560.8,400.7z M561.1,408.4c0.4-0.7,0.6-1.4,0.8-2.1
		c1,0.2,2,0.3,3,0.3c2.6-0.2,4.7-1.7,5.4-3.1c0.7-0.4,1.3-0.8,1.9-1.3c0.2,0.1,0.5,0.2,0.6,0.3c0.5,0.4,0.5,1,0.4,1.6
		c-0.1,0.3-0.2,0.6-0.3,0.8c-2,3.6-7.1,6-12.3,4.4C560.7,408.9,560.9,408.6,561.1,408.4L561.1,408.4z M561.9,429.2
		c5.1,1.6,8.8-0.9,9.4-2.8c0.6-0.3,1.2-0.7,1.8-1.2c0.3,0.1,0.5,0.2,0.7,0.3c2.3,1.8-4.3,9.5-13.1,6.6
		C560.9,431.5,561.6,431.3,561.9,429.2L561.9,429.2z M567.8,341.2c0-0.1,0.1-0.3,0.2-0.4c1.9-2.5,7.5,2.8,5.9,11.3
		c-0.5-0.2-1.1-0.4-1.7-0.4h-1c0.2-1.2,0.1-2.6,0-3.9c-0.5-4.5-3.3-4.6-3.3-5.9C567.7,341.7,567.7,341.5,567.8,341.2L567.8,341.2z
		 M565.3,344.2c1,1.8,2.4,1.3,2.6,4.1c0.3,3.3-0.1,3.7-0.2,3.8c-0.1,0-0.2,0.1-0.3,0.2c-1.2,0.4-1.7,1.1-1.8,1.2l-3.4,0.1
		c0-0.6,0.9-4.8-0.9-9.2L565.3,344.2z M561.4,357.2c0-0.1,0-0.9,0-0.8l3.2-0.1c0,0.1,0,0.9,0,0.8c0,0.1,0,0.2,0.1,0.3
		c-1.6,0.9-2.9,0.5-3.4,0.5C561.3,357.6,561.4,357.4,561.4,357.2L561.4,357.2z M566.1,360.1c1.6,1.4,3.2,1.1,3.4,1.1
		c-3.2,2.9-7.1,3.6-10.8,2.5c-0.1-0.2-0.3-0.4-0.5-0.6c0-0.1,0.1-0.1,0.1-0.2c0.3-0.5,0.5-1,0.6-1.5c0.3-0.1,0.5-0.4,0.8-0.6
		C561.6,361,564,361.4,566.1,360.1z M538.7,366.7c0.3,0.2,0.6,0.3,0.9,0.5c0.8,2.3-4.2,7.5-11.4,6.3c-0.5-1.2-1.1-1.3-1.3-1.5
		c0.6-1,0.5-0.4,1-1.7c3,0.8,6.2,0.5,8.1-2C537,367.9,537.9,367.3,538.7,366.7z M537.4,359c-0.6-0.4-0.5-1.5-0.5-1.6
		c0-0.2,0-0.6,0.3-0.9c0.7-0.7,1.2-0.3,3.3-0.5h0.9c0.5,0,1.2,0.5,1.2,1.1c0,0.1,0,0.9,0,0.8c0,0.8-0.7,1.2-1.1,1.2
		C537.9,359.3,537.8,359.4,537.4,359L537.4,359z M528.2,377.8c3.4,0.9,6.3,0.4,8.5-2.4c0.8-0.4,1.6-0.9,2.3-1.5
		c0.2,0.1,0.6,0.1,0.6,0.4c1.1,1.3-1.1,3.8-2.4,4.7c-0.1,0-0.1,0.1-0.2,0.1c-0.1,0.1-0.3,0.1-0.4,0.2c-2.8,1.9-5.5,2.1-8.4,1.7
		c-0.3-0.6-1-1.3-1.3-1.3C528.1,378.8,528.1,378,528.2,377.8L528.2,377.8z M531.8,447.6c2.9,0.4,4.8,0.3,7.1-2c1.5-1.8,1-2.3,2-2.3
		c0.1,0,0.2,0,0.3,0.1c0.3,0.1,0.7,0.2,0.9,0.4v0.1c1.8,1.5-2.9,8.2-11,6.9c-0.2-0.3-0.4-0.7-0.7-1
		C531.7,448.2,531.5,448.1,531.8,447.6z M553.8,358.7c-1.4,0-1.1-1.7-1.1-1.8c0-0.2,0-0.6,0.3-0.9c0.2-0.2,0.5-0.4,0.8-0.4
		c0.1,0,3.6-0.1,3.4-0.1c0.4,0,0.8,0.2,1,0.6c0.2,0.2,0.1,1.4,0.1,1.3C558.3,359.1,556.4,358.4,553.8,358.7z M555.4,369
		c-3.1,4-8.5,4.9-12,3.5c-0.5-0.6-1-1.2-1.7-1.5c0.1-0.1,0.2-0.3,0.3-0.4c0.3-0.6,0.6-1.1,0.7-1.7c1.5,0.9,3.5,1.3,5.2,1.2
		c2.2-0.2,3.3-0.8,4.8-2.3c1.1-0.5,2.1-1.2,3-1.9C556.3,365.9,557,367.4,555.4,369z M553.5,340.5c1.6,0,7,4.1,5.7,12.4v0.2
		c-0.7-0.4-1.4-0.6-2.2-0.6h-0.4c0.2-1.4-0.1-2.9-0.4-4.4c-1.2-4.9-4.1-4-4.1-6.1C551.8,341.1,552.7,340.5,553.5,340.5z
		 M549.8,344.8c1.4,2.1,2.5,0.7,3.2,3.9c0.7,3.2,0.3,3.7,0.2,3.8c-0.1,0-0.1,0.1-0.2,0.2c-0.9,0.2-1.8,0.5-2.5,1.2l-0.1,0.1
		l-4.5,0.2c0.6-2.8,0.7-6.2-0.4-9.2L549.8,344.8z M545.7,357.1L545.7,357.1c4.1-0.2,3.7-0.3,3.7-0.1v0.7c0,0.2,0.1,0.3,0.1,0.5
		c0,0.3-0.1,0.5,0,0.9c-1.1,0.9-2.7,0.8-4.1,0.5C545.6,359,545.7,357.5,545.7,357.1z M550.7,362c0.4-0.2,0.7-0.5,1-0.7
		c2,1,2.4,0.4,3.5,0.5c-0.3,0.2-2.7,4.2-8.6,4.2c-1.2,0-2.3-0.2-3.3-0.5c-0.5-0.8-1.1-1.4-1.8-1.8c0-0.1,0.1-0.1,0.1-0.2
		c0.3-0.4,0.4-0.8,0.5-1.3c0.2,0,0.5-0.1,0.7-0.2C545.4,363,548.4,363.4,550.7,362L550.7,362z M536.9,342.5c0-0.1,0.1-0.3,0.2-0.4
		c0.3-0.4,0.8-0.7,1.3-0.7c0.3,0,0.6,0.1,0.9,0.3c0.3,0.2,0.5,0.4,0.8,0.7c3.1,2.8,3.7,6.9,2.9,10.9c-0.5-0.2-1.1-0.3-1.7-0.3h-1.1
		c0.2-1.2,0.1-2.6,0-3.9c-0.5-4.5-3.3-4.6-3.3-5.9C536.8,343,536.8,342.7,536.9,342.5L536.9,342.5z M534.4,345.4
		c1,1.8,2.4,1.3,2.6,4.1c0.3,3.3-0.1,3.7-0.2,3.8c-0.1,0-0.2,0.1-0.3,0.2c-0.6,0.2-1.2,0.6-1.6,1.1c0,0,0,0.1-0.1,0.1l-4.1,0.2
		c0.6-2.8,0.7-6.2-0.4-9.2L534.4,345.4z M530.7,357.7c0.2,0,3.2-0.2,3.1-0.2c0,0.1,0,0.9,0,0.8c0,0.1,0.1,0.2,0.1,0.3
		c-1.4,2.2-3.4,1.9-3.5,1.9c0,0,0,0-0.1,0C530.9,359.2,530.6,358.7,530.7,357.7z M534.5,362.3c0.4-0.3,0.7-0.6,1-0.8
		c1.6,1.1,2.8,0.9,3.1,0.9c0,0.1-0.1,0.1-0.1,0.2c-0.3,0.3,0,0.6-2.2,2.2c-1.7,1.2-4.4,1.9-6.2,1.9c-0.7,0-1.3-0.1-2-0.2
		c-0.2-0.6-0.6-1.2-1.1-1.6c0,0-0.1,0-0.1-0.1c0.2-0.2,0.4-0.5,0.5-0.7c0.2-0.3,0.2-0.5,0.3-0.8C530,363.7,532.5,363.6,534.5,362.3z
		 M513.7,378.3c2.8,0.7,3.7,0.4,5.1,0.1c2.2-0.6,3-2,3.5-2.4c0.5-0.2,0.9-0.5,1.3-0.8c0.4,0.2,0.7,0.4,1.1,0.6h0.1
		c0.2,0.2,0.4,0.4,0.7,0.6c-1.5,3-5.1,5.3-9.3,5.3c-0.5,0-1-0.1-1.5-0.1c-0.3-0.6-1.2-1.4-2-1.6C513.4,379,513.4,379.3,513.7,378.3
		L513.7,378.3z M512.3,372.6c0.7-1,0.8-1,1-1.8c1.2,0.3,2.4,0.5,3.5,0.4c1.8,0,4.2-1.3,4.7-2.3c0.6-0.3,1.1-0.6,1.6-1
		c0.4,0.2,0.7,0.4,1.1,0.6c0.2,0.1,0.3,0.1,0.5,0.2c0.1,0.1,0.2,0.2,0.3,0.3c-0.2,0.5,0.2,0-1.4,2.1c-0.1,0.1-0.3,0.2-0.4,0.4
		c-3,2.6-5.9,3.3-9.8,2.7C513.2,373.1,512.4,372.7,512.3,372.6L512.3,372.6z M514.8,386.2c1.6,0.3,2.8,0.4,5.1-0.3
		c1.5-0.6,2.4-1.7,3-2.6c0.4-0.2,0.7-0.4,1-0.7c0.4,0.2,0.7,0.4,1.1,0.6c0.3,0.1,0.6,0.2,0.9,0.3c0,2.3-5.3,6.9-11.2,5.7
		c-0.2-0.3-0.4-0.5-0.6-0.8c-0.2-0.1-0.4-0.2-0.5-0.3C514.7,387,514.7,386.5,514.8,386.2z M523.1,359.9c-0.2,0-0.3,0-0.4-0.1
		c-0.5-0.1-0.8-0.5-0.8-1.1V358c0-0.1-0.2-0.8,0.7-1.2c0.1,0,0.3-0.1,0.4-0.1c0.1,0,3.6-0.2,3.4-0.2c0.1,0,0.2,0,0.3,0.1
		c1,0.2,0.8,1.2,0.8,2.1c-0.1,0.5-0.5,0.9-1.1,0.9L523.1,359.9z M521.7,343.1c0-0.4,1.1-1.7,2.4-0.8c2.8,1.8,4.8,5.8,3.7,11.6
		c-0.5-0.1-0.9-0.3-1.4-0.3h-1.3c0.2-1.2,0.1-2.6,0-3.9c-0.5-4.5-3.3-4.6-3.3-5.9C521.5,343.6,521.6,343.3,521.7,343.1L521.7,343.1z
		 M519.2,346c1,1.8,2.4,1.3,2.6,4.1c0.4,4.7-0.2,3.4-2,5.2l-3.3,0.1c0-0.1,0-0.1,0.1-0.2c0.4-2.7,0.3-6-0.9-9L519.2,346z
		 M516.4,358.3l2.2-0.2c-1.2,1.4-1.1,2.4-1.2,2.6c-0.8,0.3-1.4,0.2-1.5,0.2c0,0,0,0-0.1,0C516.4,359.7,516.4,357.8,516.4,358.3z
		 M518.2,363.8c1.1-0.3,2-0.9,2.7-1.5c1.5,1,2.7,0.6,3.3,0.7c-0.2,0.3-0.4,0.5-0.6,0.8c-0.2,0.2-0.4,0.4-0.6,0.6
		c-0.9,0.8-1.8,1.4-2.7,1.9c-2.4,1.2-4.7,1.2-6.9,0.9c-0.2-0.6-0.6-1.2-1.1-1.6c0,0-0.1,0-0.1-0.1c0.4-0.4,0.7-1.1,0.9-1.6
		C516.5,364.2,515.9,364.2,518.2,363.8L518.2,363.8z M483.1,436.3c-0.3-0.2-0.5-0.5-0.8-0.7c1.5-2,0.9-1.4,1.4-2.4
		c2.8,1.2,6.5,1.3,8.8-1c2-1.8,1.3-2.8,2.5-2.8c0.4,0,0.9,0.2,1.2,0.4C498.1,432.9,490,439.4,483.1,436.3z M483.6,444.4
		c-0.3-0.4-0.7-0.7-1.1-1c0.2-0.3,0.5-0.6,0.7-0.9c0.3-0.4,0.4-0.9,0.6-1.3c3.9,1.7,8.5,0.8,10.2-2.7c0.5-0.3,1-0.6,1.5-1
		c0.3,0.1,0.6,0.2,0.9,0.4C498.3,439.5,492.9,446.9,483.6,444.4L483.6,444.4z M480.2,361.9c-0.6,0.6-1,0.3-2.3,0.5l-1.9,0.1
		c-1.5,0-1.4-2.1-0.9-2.6c0.7-0.7,0.9-0.2,4.2-0.5h0.1c0.3,0,0.4,0.2,0.6,0.3c0.1,0.1,0.2,0.2,0.2,0.3c0.1,0.2,0.2,0.3,0.2,0.5
		C480.4,360.7,480.7,361.4,480.2,361.9L480.2,361.9z M478.2,370.2c0,0.8-0.8,1.9-1.4,2.5c0,0.1-0.1,0.1-0.1,0.2
		c-2.6,3-7.8,4.1-11.4,2.7c-0.3-0.4-0.7-0.8-1.2-1.1c0.6-0.9,0.7-0.7,1.1-2.1c2.4,1,5,1.2,7.4,0c0.8-0.4,1.4-1,1.9-1.5
		c0.8-0.4,1.6-0.9,2.3-1.4C477.3,369.7,477.7,369.9,478.2,370.2L478.2,370.2z M465,381.1c0.3-0.4,0.4-0.9,0.6-1.3
		c3.4,1.5,7.5,1.1,9.7-2c0.7-0.3,1.3-0.8,1.9-1.2c0.4,0.2,0.9,0.5,1.4,0.7c0.4,2.2-5.5,8.4-13.2,5.6c-0.3-0.4-0.7-0.7-1.1-0.9
		C464.5,381.7,464.8,381.4,465,381.1z M465.3,388.8c0.3-0.4,0.4-0.9,0.6-1.3c1.4,0.6,3.1,0.9,4.5,0.8c2.9-0.2,4.3-1.6,5.5-3.1
		c0.6-0.3,1.1-0.7,1.6-1.1c0.4,0.2,0.9,0.5,1.4,0.7c1,2.9-6.8,8.8-13.4,5.8c-0.3-0.2-0.5-0.5-0.9-0.7
		C464.7,389.5,465,389.2,465.3,388.8L465.3,388.8z M466.2,395.4c3.6,1.5,8,1.1,10.2-2.8c0.5-0.3,1-0.6,1.4-0.9
		c0.3,0.1,0.7,0.2,0.9,0.4c0.7,0.6,0.5,1.6,0,2.3c-2.3,3.7-6.9,5.8-12.8,4.2c-0.3-0.4-0.7-0.7-1.1-1
		C465.7,396.9,466,395.7,466.2,395.4z M465.9,404.3c0.3-0.4,0.4-0.9,0.6-1.3c2.6,1.1,5.7,1.2,8.1-0.4c0.8-0.6,1.4-1.2,1.8-1.8
		c0.8-0.4,1.5-0.9,2.1-1.4c2.8,1.4-1.4,5.4-4,6.5c-2.9,1.3-5.7,1.3-8.4,0.3c-0.3-0.3-0.6-0.6-1-0.9
		C465.4,404.9,465.7,404.6,465.9,404.3L465.9,404.3z M466.8,410.7c2.6,1.1,5.7,1.2,8.1-0.4c0.9-0.6,1.5-1.4,1.9-2
		c0.7-0.4,1.3-0.8,1.9-1.3c0.2,0.1,0.5,0.2,0.7,0.3c1.8,1.6-2.2,5.3-4.7,6.2c-2.6,1-5.4,1.2-8,0.3c-0.3-0.4-0.7-0.8-1.1-1.1
		C466.2,412.4,466.7,410.8,466.8,410.7z M467.1,418.2c3.5,1.5,7.7,1,9.8-2.1c0.8-0.4,1.6-0.9,2.3-1.5c3.5,1.7-4.4,10.1-12.6,6.7
		c-0.3-0.3-0.6-0.5-0.9-0.7C467.2,418.6,466.6,419.2,467.1,418.2L467.1,418.2z M493,368.5c0.3,0.2,0.6,0.3,0.9,0.5
		c0.6,1.9-2.8,5-5,5.7c-2.4,0.9-5.6,1.1-7.9,0.2c-0.3-0.4-0.7-0.8-1.1-1.1c0.2-0.3,0.4-0.5,0.6-0.8c0.3-0.4,0.4-0.9,0.6-1.3
		c3.2,1.4,7.3,1.1,9.3-1.6C491.3,369.7,492.2,369.2,493,368.5z M491.5,361c-0.8-0.4-0.5-1.3-0.6-1.7c0,0,0,0,0-0.1
		c0-0.6,0.5-1.1,1.1-1.1c0.1,0,3.5-0.1,3.4-0.1c1.6,0,1.5,3.1,0,3.1C494.6,361.1,491.9,361,491.5,361z M467.3,426.1
		c3.8,1.6,8.1,0.9,10.2-2.7c0.5-0.3,1-0.6,1.5-1c0.3,0.1,0.6,0.2,0.9,0.4c2.1,1.8-4.6,9.4-12.9,6.4c-0.3-0.3-0.6-0.6-1-0.8
		C467,427.4,467.1,426.9,467.3,426.1L467.3,426.1z M467.7,433.9c1.4,0.6,3.1,0.9,4.5,0.8c3.7-0.3,5.6-3.1,5.6-3.3
		c0.6-0.3,1.2-0.7,1.7-1.2c4.4,1.5-4.7,10.3-12.5,6.8c-0.3-0.3-0.6-0.5-0.9-0.7C467.2,435.4,467.1,435.1,467.7,433.9L467.7,433.9z
		 M467.5,443.1c0.3-0.4,0.4-0.9,0.6-1.3c1.4,0.6,3.1,0.9,4.5,0.8c3.9-0.3,5.1-2.8,5.8-3.5c0.5-0.3,1-0.6,1.4-0.9
		c0.3,0.2,0.7,0.4,1.1,0.6c0.8,1.2-0.4,2.7-1.4,3.7c-3.3,3.3-6.9,3.8-11.4,2.6c-0.3-0.4-0.7-0.7-1.1-1
		C467,443.7,467.2,443.4,467.5,443.1L467.5,443.1z M480.3,381.2c0.2-0.2,0.3-0.5,0.5-0.7c0.3-0.4,0.4-0.9,0.6-1.3
		c3.3,1.4,7.1,1.2,9.7-2c0.8-0.4,1.6-0.9,2.3-1.5c0.2,0.1,0.6,0.1,0.6,0.4c1.1,1.4-1.3,4-2.4,4.7c-0.1,0.1-0.1,0.1-0.2,0.1
		c-0.1,0.1-0.3,0.2-0.4,0.2c-3,2-6.8,2.3-8.9,1.5C481.6,382,481,381.5,480.3,381.2L480.3,381.2z M496,372.8c0.1-0.1,0.2-0.3,0.3-0.4
		c0.3-0.6,0.6-1.1,0.7-1.7c2.9,1.7,7,1.9,10-1.1c0.6-0.3,1.2-0.7,1.7-1c0.4,0.2,0.8,0.4,1.3,0.7c0.2,0.1,0.4,0.1,0.5,0.2
		c0,0,0,0.1,0.1,0.1c-0.1,0.1-0.5,1.4-1.6,2.3c-0.1,0.1-0.2,0.1-0.2,0.2c-3.1,3.1-8,3.6-11.1,2.4C497.2,373.7,496.7,373.1,496,372.8
		L496,372.8z M508.8,360.5c-0.2,0-0.4,0-0.5-0.1c-0.8-0.4-0.5-1.3-0.6-1.7c0,0,0,0,0-0.1c0-0.6,0.5-1.1,1.1-1.1
		c0.3,0,1.9-0.1,1.8-0.1c1.8,0,1.5-0.3,2.3,0.1c0.3,0.2,0.6,0.5,0.6,0.9c0,0.1,0,0.9,0,0.8c0,0.2-0.1,0.5-0.2,0.7
		c0,0.1-0.1,0.1-0.1,0.2c-0.2,0.2-0.5,0.4-0.8,0.4L508.8,360.5L508.8,360.5z M508.5,342.5c3.4,1.7,5.9,6,5,12
		c-0.5-0.2-1-0.3-1.6-0.3h-1.1c0.2-1.4-0.1-2.9-0.4-4.4c-1.2-4.9-4.3-4.1-4-6.1C506,343,507.3,341.9,508.5,342.5z M504.1,346.6
		c1.3,1.9,2.5,0.9,3.2,3.9c0.9,4.1,0.1,3.8-0.3,4.2c-0.6,0.3-1.1,0.7-1.6,1.2l-5.3,0.2c0.6-2.8,0.7-6.2-0.4-9.2L504.1,346.6z
		 M499.6,358.9c0.4,0,4.7-0.3,4.6-0.3c-0.6,0.7-1.1,1.6-1.1,2.7c-1,0.2-2,0.6-3.7,0C499.9,360,499.6,359.2,499.6,358.9z
		 M503.9,364.3c1.1-0.4,1.9-0.9,2.6-1.5c1.5,1.1,2.7,0.7,3.2,0.8c-0.5,0.7-1,1.2-1.1,1.3c-2.4,2.4-6.6,3.8-10.9,2.5
		c-0.5-0.8-1.1-1.4-1.8-1.8c0-0.1,0.1-0.1,0.1-0.2c0.3-0.4,0.4-0.9,0.5-1.3c0.2-0.1,0.4-0.1,0.6-0.2
		C499.4,364.7,501.6,365,503.9,364.3L503.9,364.3z M493.6,343.5c3,2,4.9,6.4,3.6,11.8c-0.6-0.3-1.3-0.5-2-0.5h-0.7
		c0.2-1.2,0.1-2.6,0-3.9c-0.5-4.5-3.3-4.6-3.3-5.9C490.8,344.1,492.2,342.5,493.6,343.5z M488.7,347.2c1,1.8,2.4,1.3,2.6,4.1
		c0.3,2.9,0,3.6-0.2,3.7c-1,0.2-1.8,0.7-2.4,1.4l-3.8,0.1c0.6-2.8,0.7-6.2-0.4-9.2L488.7,347.2z M483.6,360.5c0.2-0.3,0.3-0.7,0.4-1
		c5.4-0.1,3-0.4,3.9,1.3c-1.5,2.1-3.7,1.4-4.4,1.4C483.9,360.7,483.6,360.9,483.6,360.5z M489.7,363.4c1.5,1,2.7,0.8,3.1,0.8
		c0,0.1-0.1,0.1-0.1,0.2c-0.1,0.1-0.2,0.3-0.3,0.5c-2.8,3.2-7.5,4.3-11.4,3.1c-0.3-0.5-0.8-1-1.2-1.4c0.3-0.3,0.7-1,0.8-1.3
		c0.4-0.1,0.7-0.2,1.1-0.4C484.4,365.7,487.7,365.4,489.7,363.4z M476,344.9c0-0.3,0.7-1.1,1.5-1.1c1.9,0,6.6,5.4,4.4,12.9
		c0,0.1-0.1,0.1-0.1,0.2c-0.1-0.1-0.3-0.1-0.4-0.2c-0.6-0.3-1.3-0.6-2.1-0.6h-0.1c0.8-2.9-0.1-8.2-2.6-9.5c-0.3-0.2-0.6-0.6-0.6-1
		C475.9,345.4,475.9,345.1,476,344.9L476,344.9z M473.5,347.8c1,1.8,2.4,1.3,2.6,4.1c0.4,4.3-0.1,3.6-1.5,4.7
		c-0.4,0.1-0.7,0.3-1,0.5l-4.4,0.2c0.6-2.8,0.7-6.2-0.4-9.2L473.5,347.8z M471.8,360c0,0.3-0.1,0.5-0.1,0.8v0.7
		c0,0.1,0.1,0.2,0.1,0.3c-1,1.2-3,1.2-3.5,1c0.2-0.8,0.4-1.6,0-2.7L471.8,360z M473.3,364.6c1.4,1.2,3,1,3.2,1
		c-0.7,0.8-1.7,1.8-4,2.7c-2.1,0.8-4.7,1-7.3,0.2c-0.3-0.6-0.8-1-1.3-1.4c0.2-0.2,0.3-0.4,0.5-0.6c0.1-0.2,0.1-0.3,0.2-0.5
		c0.6,0,1.1-0.2,1.6-0.5C469.6,366.4,471.3,365.9,473.3,364.6L473.3,364.6z M459.8,362.3c0-0.1-0.4-1.3,0.2-1.9
		c0.1-0.2,0.3-0.2,0.5-0.3c0.1,0,0.2-0.1,0.3-0.1l2.8-0.1c0.6,0.1,0.5-0.1,1.2,0.2c0.1,0,0.6,0.6,0.6,1c0,0.1,0,0.9,0,0.8
		c0,0.6-0.6,1.1-1.1,1.1C460.9,363,460.3,363.2,459.8,362.3z M460.2,345.5c0-0.3,0.7-1.1,1.5-1.1c1.2,0,3.2,2.5,3.8,3.7
		c1.4,2.9,1.4,6.4,0.6,9.1c-0.6-0.3-1.2-0.5-2-0.5h-0.7c0.8-2.9-0.1-8.2-2.6-9.5C460.2,346.9,460,346.1,460.2,345.5L460.2,345.5z
		 M457.7,348.4c1,1.8,2.4,1.3,2.6,4.1c0.3,3.3-0.1,3.7-0.2,3.8c-0.4,0.2-1,0.7-1.7,1.4l-6.5,0.3c0.6-2.8,0.7-6.2-0.4-9.2
		C453.5,348.6,455.6,348.5,457.7,348.4z M456.6,361.5c-1.3,2.5-4.4,1.8-4.7,1.8c0.4-1.6,0.1-2.2,0.1-2.6l4.8-0.2
		c0,0.3-0.1,0.5-0.1,0.8L456.6,361.5z M457.8,364.9c0.7,0.7,1.7,1.2,2.9,1.2c-0.8,0.8-1.6,1.5-2.4,2c-0.6,0.4-2.1,1.1-2.6,1.1
		c-3.2,0.9-7.2,0.3-10.7-2.4c0.1,0,3.1-0.1,2.9-0.1c0.7,0,1.4-0.3,2-0.6C453.3,367.2,455.7,366.4,457.8,364.9L457.8,364.9z
		 M443,346.2c0-0.4,1.1-1.7,2.4-0.8c2.9,1.9,4.9,6.2,3.6,12.2c-0.4-0.1-0.8-0.2-1.3-0.2l-1.5,0.1c0.4-1.4,0.3-3,0.1-4.6
		c-0.5-4.5-3.3-4.6-3.3-5.9C442.8,346.7,442.9,346.4,443,346.2L443,346.2z M442.9,357c-0.4,0.2-1.1,0.6-1.7,1.4l-29.9,1.2l-12.3-3.8
		c-0.2,0-0.3-0.2-0.3-0.4c0-0.5-0.2-0.1,12.1-5.1c0.3,0,12-0.5,29.7-1.2c1,1.8,2.4,1.3,2.6,4.1C443.4,356.5,443,356.9,442.9,357
		L442.9,357z M443.2,361.6c0-0.2,0.1-0.4,0.3-0.5c0.2-0.2,0.5-0.4,0.8-0.4c0.1,0,3.7-0.1,3.5-0.1h0.1c0.3,0,0.5,0.2,0.7,0.3
		c0.2,0.2,0.4,0.5,0.4,0.8s0.1,1.1-0.3,1.5c-0.7,0.7-0.6,0.2-4.2,0.5c-0.3,0-0.6-0.1-0.8-0.4C443,363.1,443.2,362.4,443.2,361.6z
		 M444.3,370.1c0.8,0.5,1.7,1.1,2.9,1.6c0.1,0.1,0.3,0.1,0.5,0.2c1.8,1.7,5.9,2.8,9.2,1.2c0.8-0.4,1.4-1,1.9-1.5
		c0.8-0.4,1.6-0.9,2.3-1.4c0.4,0.2,0.9,0.5,1.4,0.7c0,1-1,1.9-1.4,2.5c0,0.1-0.1,0.1-0.1,0.2c-2.3,2.6-7.2,4.2-11.4,2.7
		c-0.2-0.1-0.5-0.1-0.7-0.2C446,374.8,442,372.3,444.3,370.1L444.3,370.1z M444.7,377.4c0.8,0.5,1.6,1,2.7,1.5h0.1
		c2.3,2.8,9,3.6,11.9-0.5c0.7-0.3,1.3-0.8,1.9-1.3c0.4,0.2,0.9,0.5,1.4,0.7c0.2,1.1-0.9,2.1-1.4,2.8c-0.1,0.1-0.2,0.3-0.3,0.4
		c-2,2-4.3,2.6-4.7,2.8c-3.4,0.9-6.9-0.1-7.3-0.5C446,381.9,442.1,379.1,444.7,377.4L444.7,377.4z M445.3,385
		c0.7,0.4,1.5,0.9,2.4,1.3c2.2,3.3,9.6,4,12.3-0.4c0,0,0-0.1,0.1-0.1c0.6-0.3,1.1-0.7,1.6-1c0.4,0.2,0.9,0.5,1.4,0.7
		c0.6,1.9-3,4.7-4.8,5.6c-3.1,1.2-6.5,1.1-8.5,0.2c-0.1,0-0.2-0.1-0.3-0.1C443.1,388.3,443.6,385.4,445.3,385z M446,392.9
		c0.5,0.3,1.1,0.6,1.7,0.8c0,0,0.1,0,0.1,0.1c1.7,3,8.9,5,12.7-0.1c0.4-0.8,0.7-0.6,1.6-1.3c0.3,0.2,0.7,0.4,1.1,0.6
		c1.5,1.8-2.7,5-4.8,6.1c-3,1.5-8.3,1-11.4-1.7C442.4,394.6,445.5,392.4,446,392.9L446,392.9z M445.8,400.5c0.7,0.5,1.6,0.9,2.5,1.4
		c2.4,3,9.5,3.9,12.3-0.6c0.6-0.3,1.1-0.7,1.7-1.1c0.4,0.2,0.9,0.5,1.4,0.7c0.6,2.9-7.4,10.5-16.2,4.2
		C444,403.1,444.4,401.2,445.8,400.5L445.8,400.5z M445.1,409.6c0.1-0.8,0.7-1.3,1.1-1.4c0.7,0.4,1.4,0.8,2.3,1.2
		c2.2,3.3,9.6,4,12.4-0.4c0-0.1,0.1-0.1,0.1-0.2c0.5-0.3,1-0.6,1.5-1c0.4,0.2,0.9,0.5,1.4,0.7c0.5,1.6-2.6,5.4-6.2,6.3
		c-3.3,0.9-7.1,0.4-10.5-2.2C445.8,411.6,445,410.5,445.1,409.6L445.1,409.6z M446.3,415.7c0.8,0.5,1.6,1,2.6,1.4
		c2.4,2.9,9.1,3.7,12.1-0.5c0.6-0.3,1.2-0.7,1.8-1.2c0.4,0.2,0.9,0.5,1.4,0.7c0.2,1.2-1.2,2.8-2,3.6c-2.8,2.8-8,3.5-11.4,2.1
		c-0.1,0-0.2-0.1-0.3-0.1c-0.9-0.4-1.7-0.9-2.4-1.3C444.6,418.4,445.1,416.3,446.3,415.7L446.3,415.7z M445.7,425
		c0.1-0.8,0.7-1.5,1.4-1.5c0.5,0.3,1.1,0.6,1.8,0.9c2.2,3.8,10.5,4.4,13-0.6c0.5-0.3,0.9-0.5,1.4-0.9c0.4,0.2,0.7,0.4,1.1,0.6
		c1.7,2.6-6,9-13.1,6.2c-0.1-0.1-0.3-0.1-0.4-0.1C449.2,428.7,445.5,427,445.7,425L445.7,425z M446,432.8c0.1-0.8,0.8-1.4,1.2-1.5
		c0.6,0.4,1.3,0.8,2.2,1.1c1.9,3.2,9.6,4.3,12.5-0.3c0.1-0.1,0.1-0.2,0.2-0.3c0.5-0.3,1-0.6,1.5-0.9c0.4,0.2,0.8,0.4,1.3,0.7
		c1.2,2.5-6.4,8.9-13.4,6c-0.1,0-0.2-0.1-0.3-0.1C449.4,436.7,445.8,434.8,446,432.8L446,432.8z M446.3,440.7
		c0.1-0.9,0.8-1.4,1.2-1.5h0.2c0.5,0.3,1.1,0.6,1.7,0.9c0,0,0,0,0.1,0.1c1.4,2.5,6.3,4.1,10.1,2.2c2-1,2.8-2.7,2.9-2.8
		c0.5-0.3,0.9-0.5,1.4-0.8c0.3,0.2,0.7,0.4,1.1,0.6c1.2,1.7-1.8,4.2-3.5,5.4c-2.3,1.7-7.9,2.6-12.7-1
		C447.1,442.7,446.3,441.7,446.3,440.7L446.3,440.7z M447.6,446.9c0.7,0.5,1.6,0.9,2.5,1.4c2.4,3,9.5,3.9,12.3-0.6
		c0.6-0.3,1.1-0.7,1.6-1.1c0.4,0.2,0.9,0.5,1.4,0.7c0.3,1.6-1.5,2.8-1.5,3.2c-0.7,0.8-1.5,1.4-2.3,1.8
		C453.6,457.1,443.3,449,447.6,446.9L447.6,446.9z M447.8,454.4c0.8,0.5,1.6,1,2.7,1.5h0.1c2.3,2.8,9,3.5,11.8-0.4
		c0.7-0.3,1.4-0.8,2-1.3c0.4,0.2,0.9,0.5,1.4,0.7c0.3,1.3-1.5,2.7-1.5,3C457.1,466.2,443.3,456.6,447.8,454.4z M448.1,461.8
		c0.8,0.5,1.6,1,2.7,1.5h0.1c2.3,2.8,9,3.6,11.8-0.4c0.7-0.3,1.4-0.8,2-1.3c0.4,0.2,0.9,0.5,1.4,0.7c0.3,1.3-1.5,2.7-1.5,3
		c-3.6,4.1-11,4.4-15.5,0.5c-1.3-1-2-2-1.9-2.9C447.3,462.5,447.7,462.1,448.1,461.8z M448.4,469.2c0.8,0.5,1.6,1,2.7,1.5h0.1
		c1.4,1.7,4.3,2.5,6.7,2.3c1.2-0.1,2.1-0.4,2.9-0.8c1-0.5,1.7-1.2,2.2-1.9c0.7-0.3,1.4-0.8,2-1.3c0.4,0.2,0.9,0.5,1.4,0.7
		c0.3,1.3-2.4,4.9-6.4,5.9c-3.4,0.9-7-0.2-7.3-0.5C449.9,473.8,445.9,471,448.4,469.2L448.4,469.2z M448.9,476.8
		c0.7,0.4,1.5,0.9,2.4,1.3c2.3,3.3,9.6,3.8,12.3-0.5c0,0,0-0.1,0.1-0.1c0.6-0.3,1.1-0.7,1.6-1c0.4,0.2,0.9,0.5,1.4,0.7
		c0.9,2.7-6.3,8.5-13.1,5.8c-0.3-0.3,0.2,0.4-3.2-1.7C448.4,479.9,446.8,477.8,448.9,476.8L448.9,476.8z M460.6,491.1
		c-6.1,1.8-12.7-2.8-12.4-5.1c0.1-0.8,0.7-1.3,1.1-1.4c0.7,0.4,1.4,0.8,2.3,1.2c1.9,2.9,8.8,4.6,12.5-0.3c0.1-0.1,0.1-0.2,0.1-0.2
		c0.5-0.3,1-0.6,1.5-1c0.4,0.2,0.9,0.5,1.4,0.7C467.1,487.5,463.3,490.4,460.6,491.1z M467.8,450.7c0.3-0.4,0.4-0.9,0.6-1.3
		c3.5,1.5,7.5,1,9.8-2.2c0.6-0.3,1.2-0.7,1.7-1.1c0.4,0.2,0.9,0.5,1.4,0.7c0.6,2.8-6.2,8.4-13,5.9c-0.3-0.5-0.7-0.8-1.2-1.2
		C467.3,451.2,467.6,451,467.8,450.7L467.8,450.7z M468,458.1c0.3-0.4,0.4-0.9,0.6-1.3c1.4,0.6,3.1,0.9,4.5,0.8
		c2.8-0.2,3.9-1.4,5.2-2.7c0.7-0.3,1.3-0.8,1.9-1.3c0.4,0.2,0.9,0.5,1.4,0.7c0,3.5-6.9,7.9-13,5.7c-0.3-0.5-0.7-0.8-1.2-1.2
		C467.6,458.7,467.9,458.4,468,458.1z M467.7,466.3c0.6-0.9,0.7-0.7,1.1-2.1c1.4,0.6,3.1,0.9,4.5,0.8c2.2-0.2,3.8-1.1,5.1-2.7
		c0.7-0.3,1.3-0.8,1.9-1.3c0.4,0.2,0.9,0.5,1.4,0.7c0.5,2.5-6.2,8.2-13,5.7C468.6,467,468.2,466.6,467.7,466.3L467.7,466.3z
		 M469.2,471.7c1.4,0.6,3.1,0.9,4.5,0.8c2.1-0.2,3.9-1.1,5.1-2.8c0.7-0.3,1.3-0.8,1.9-1.3c0.4,0.2,0.9,0.5,1.4,0.7
		c0.4,1.8-3.7,6.4-9.5,6.4c-1.3,0-2.6-0.3-3.7-0.7c-0.3-0.4-0.7-0.7-1.1-1C468.7,473.4,469,472,469.2,471.7L469.2,471.7z
		 M468.9,480.6c0.3-0.4,0.4-0.9,0.6-1.3c4.2,1.8,8.2,0.4,9.9-2.3c0.6-0.3,1.1-0.7,1.6-1.1c0.4,0.2,0.9,0.5,1.4,0.7
		c0.5,1.5-1.4,2.9-1.7,3.5c-2.4,2.4-6.9,3.9-11.4,2.3c-0.3-0.3-0.6-0.6-1-0.9C468.4,481.3,468.7,481,468.9,480.6z M473.3,490.9
		c-3.2,0-4.8-1.1-5-1.2c0.3-0.4,0.7-0.8,1-1.3c0.3-0.4,0.4-0.9,0.6-1.3c4.2,1.8,8.2,0.4,9.9-2.3c0-0.1,0.1-0.1,0.1-0.1
		c0.6-0.3,1.1-0.7,1.6-1c0.4,0.2,0.9,0.5,1.3,0.7C483.2,486.3,479.3,490.9,473.3,490.9L473.3,490.9z M483.5,450.1
		c0.3-0.4,0.4-0.9,0.6-1.3c3.6,1.5,7.8,1,9.9-2.2c0.7-0.4,1.4-0.9,2.1-1.4c0.2,0.1,0.4,0.1,0.6,0.3c2.2,1.9-4.9,9.2-12.6,6.4
		c-0.3-0.4-0.7-0.8-1.1-1.2C483.2,450.6,483.4,450.4,483.5,450.1z M483.8,457.5c0.3-0.4,0.4-0.9,0.6-1.3c4.2,1.8,8,0.5,9.7-2
		c0.8-0.4,1.6-0.9,2.3-1.5c0.2,0.1,0.5,0.3,0.7,0.4c1.7,2.1-5,9-12.6,6.3c-0.3-0.4-0.7-0.8-1.1-1.1
		C483.4,458,483.7,457.8,483.8,457.5L483.8,457.5z M483.5,465.7c0.2-0.3,0.4-0.5,0.6-0.8c0.3-0.4,0.4-0.9,0.6-1.3
		c4.2,1.8,8,0.5,9.7-2c0.8-0.4,1.6-0.9,2.3-1.5c0.2,0.1,0.5,0.3,0.7,0.4c1.8,2.1-5.1,9-12.6,6.3C484.4,466.4,484,466,483.5,465.7
		L483.5,465.7z M484.9,471c4.2,1.8,8,0.5,9.7-2c0.8-0.4,1.6-0.9,2.3-1.5c0.2,0.1,0.5,0.3,0.7,0.4c1.7,2-4.9,9.1-12.9,6.2
		c-0.3-0.4-0.6-0.7-1-0.9C484.3,472.8,484.7,471.7,484.9,471L484.9,471z M485.2,478.7c3.5,1.5,7.6,1.1,9.9-2.3
		c0.7-0.4,1.3-0.8,2-1.3c0.2,0.1,0.5,0.1,0.7,0.3c2.2,1.9-4.7,9.4-12.9,6.4c-0.3-0.3-0.6-0.6-1-0.9
		C484.3,480.6,484.9,479.9,485.2,478.7z M485,489.5c-0.3-0.1-0.5-0.3-0.8-0.4c0.3-0.4,0.7-0.9,1-1.3s0.4-0.9,0.6-1.3
		c3.5,1.5,7.7,1.1,10-2.4c0.6-0.3,1.2-0.8,1.8-1.2C501.6,484.2,492.9,493.1,485,489.5L485,489.5z M496.3,380.2
		c0.1-0.1,0.2-0.3,0.3-0.4c0.3-0.6,0.6-1.1,0.7-1.7c3.2,1.9,8.1,1.6,10.3-1.6c0.5-0.2,1-0.6,1.4-0.9c0.4,0.2,0.8,0.4,1.2,0.6
		c0.1,0,0.2,0,0.2,0.1c0.1,0.1,0.2,0.3,0.4,0.4c-0.4,0.7,0.1,0.3-1.8,2.6c-2,2-5.9,3.5-10.4,2.5
		C498.1,381.2,497.3,380.5,496.3,380.2L496.3,380.2z M499.3,449.5c0.3-0.6,0.6-1.1,0.7-1.7c2,1.2,5.2,1.7,7.7,0.6
		c2.2-1,3.1-2.8,3.5-3.6c0.3-0.8,4.7-0.1,0.7,3.9c-3,3.3-8,4.1-11.4,2.7c-0.5-0.6-1-1.2-1.7-1.5
		C499.1,449.7,499.2,449.6,499.3,449.5L499.3,449.5z M499.6,456.9c0.3-0.6,0.6-1.1,0.7-1.7c1.8,1.1,4.6,1.6,7.1,0.8
		c2.2-0.8,3-2.1,3.2-2.3c0.6-0.3,1.2-0.7,1.8-1.1c0.2,0.1,0.5,0.3,0.8,0.4c0.2,0.3,0.4,0.6,0.8,0.9c-0.1,0.2-0.5,1.4-1.6,2.3
		c-0.1,0.1-0.2,0.1-0.2,0.2c-3,3-7.8,3.7-11.1,2.4c-0.5-0.6-1-1.2-1.7-1.5C499.4,457.1,499.5,457,499.6,456.9L499.6,456.9z
		 M499.9,464.3c0.3-0.6,0.6-1.1,0.7-1.7c1.8,1.1,4.6,1.6,7.1,0.8c2.2-0.8,3-2.1,3.2-2.3c0.5-0.3,1-0.6,1.4-0.9
		c0.4,0.2,0.8,0.4,1.2,0.6c0.4,0,0.4,0.3,0.6,0.5c-0.1,0.2-0.5,1.4-1.6,2.3c-0.1,0.1-0.2,0.1-0.2,0.2c-3,3-7.8,3.7-11.1,2.4
		c-0.5-0.6-1-1.2-1.7-1.5C499.7,464.5,499.8,464.4,499.9,464.3L499.9,464.3z M500.9,470c1.8,1.1,4.6,1.6,7.1,0.8
		c2.2-0.8,3-2.1,3.2-2.3c0.5-0.3,1-0.6,1.4-0.9c0.4,0.2,0.8,0.4,1.2,0.6c0.4,0,0.4,0.3,0.6,0.5c-0.3,0.6-0.1,0.8-1.8,2.5
		c-2.6,2.6-7.1,3.9-11.4,2.3c-0.5-0.5-1-1-1.6-1.3C500.3,472,500.8,470.5,500.9,470L500.9,470z M501.2,477.7c1.8,1.1,4.9,1.7,7,0.8
		c2.5-0.8,3.3-2.4,3.6-2.7c0.4-0.2,0.8-0.5,1.1-0.7c0.4,0.2,0.8,0.4,1.3,0.7c0.2,0.1,0.5,0.1,0.7,0.2c0,1.5-3.4,5.1-6.5,5.6
		c-2.3,0.6-4.4,0.5-6.7-0.3c-0.4-0.5-1-0.9-1.6-1.2C500.2,479.7,501,478.7,501.2,477.7L501.2,477.7z M515.2,484.1
		c-2.4,4.8-8.5,7.4-15,4.1c0.1-0.1,1.2-1.5,1.4-2.7c1.8,1.1,4.6,1.6,7.1,0.8c2.5-0.9,3.1-2.3,3.6-2.8c0.4-0.2,0.7-0.4,1-0.7
		c0.3-0.2,0.6-0.3,0.8-0.6c0.3,0.1,0.5,0.2,0.7,0.3c0.3,0.3,0.5,0.7,0.4,1.1C515.3,483.7,515.2,483.9,515.2,484.1L515.2,484.1z
		 M514.1,395.9c0.3-0.3,0.5-0.7,0.7-1s0.2-0.5,0.3-0.8c3.5,0.8,6.4-0.3,8.4-3.3c0.5-0.3,1-0.6,1.4-0.9c0.3,0.1,0.7,0.2,0.9,0.4
		c1.7,1.5-2.5,7.1-9.1,7.1c-0.5,0-1-0.1-1.5-0.1C515,396.3,514.2,396,514.1,395.9L514.1,395.9z M515.7,457.1c0.7-1,0.8-1,1-1.8
		c4.8,1.2,7.8-0.4,9.3-3.4c0.5,0.3,1.1,0.6,1.7,0.9c0.4,0,0.4,0.3,0.8,0.7c0,0.1-0.2,0.8-1.4,2c-0.1,0.2-0.3,0.3-0.4,0.4
		c-2.6,2.3-5.4,3.3-9.7,2.7C516.5,457.3,516,457.4,515.7,457.1L515.7,457.1z M517,462.7c3.3,0.8,6.6,0.6,8.5-2.3
		c0.5-0.2,0.9-0.5,1.3-0.8c0.4,0.2,0.7,0.4,1.1,0.6h0.1c0.2,0.2,0.4,0.4,0.7,0.6c0,0.1-0.2,0.8-1.4,2c-0.1,0.2-0.3,0.3-0.4,0.4
		c-2.6,2.3-5.4,3.3-9.7,2.7c-0.5-1.4-1.2-1.2-1.2-1.5C516.3,464.1,516.7,463.5,517,462.7L517,462.7z M517.3,470.2
		c3.2,0.8,6.7,0.5,8.5-2.3c0.5-0.2,0.9-0.5,1.3-0.8c0.4,0.2,0.7,0.4,1.1,0.6h0.1c0.2,0.2,0.4,0.4,0.7,0.6c-0.2,0.5,0.3,0-1.7,2.4
		c0,0-0.1,0-0.1,0.1c-2.9,2.6-6.7,3.3-9.9,2.5c-0.6-1.2-1.2-1.2-1.3-1.3C516.4,471.8,517.1,470.9,517.3,470.2L517.3,470.2z
		 M529.6,475.4c0,0.2-0.1,0.4-0.1,0.6c-0.1,0.2-0.1,0.3-0.2,0.5c-0.5,0.8-1,1.4-1.6,1.9c-2.8,2.5-6.5,3.3-9.9,2.5
		c-0.8-1.1-1-1.1-1.2-1.3c1-1.3,1-1.4,1.2-2c4.5,1.1,7-0.1,8.9-2.7c0.4-0.2,0.7-0.4,1-0.7c0.4,0.2,0.7,0.4,1.1,0.6
		C528.9,475.2,529.2,475.3,529.6,475.4L529.6,475.4z M516.3,488.2c1.8-2.1,1.3-2.2,1.7-2.7c1.2,0.3,2.4,0.5,3.5,0.4
		c1.8,0,4.5-1.3,5.4-3.2c0.2-0.1,1.6-1,1.8-1.2C532.8,482.9,524.8,491.7,516.3,488.2z M530.3,456.5c1-1.5,0.6-0.9,0.9-1.7
		c4,1.1,7.1-0.3,8.5-2.4c0.8-0.4,1.6-0.9,2.3-1.5c0.2,0.1,0.5,0.3,0.7,0.4c1.4,1.6-3.3,8-11.1,6.7c-0.2-0.5-0.5-1-1-1.4
		C530.5,456.6,530.4,456.6,530.3,456.5L530.3,456.5z M531.5,462.3c4,1.1,7.1-0.3,8.5-2.4c0.8-0.4,1.6-0.9,2.3-1.5
		c0.2,0.1,0.5,0.2,0.7,0.4c0.9,1-0.3,2.6-1.3,3.6c-1.6,1.9-5.3,3.8-9.9,3c-0.2-0.5-0.8-1.5-1.3-1.5
		C530.8,463.7,531.4,462.5,531.5,462.3z M543.2,468.3c-2.2,3.2-5.9,5.2-11.2,4.5c-0.2-0.5-0.9-1.3-1.3-1.3c0.3-0.3,0.5-0.7,0.7-1
		s0.2-0.5,0.3-0.8c4,1.1,7.1-0.3,8.5-2.4c0.8-0.4,1.6-0.9,2.3-1.5c0.2,0.1,0.5,0.3,0.7,0.4C543.8,466.8,543.6,467.6,543.2,468.3z
		 M540.6,478.8c-1.5,1.2-4.6,2.2-8.4,1.7c-0.2-0.3-0.8-1.2-1.2-1.2c0.7-0.9,0.7-0.7,1.1-1.9c3,0.8,5.2,0.3,6.9-0.8
		c0.9-0.6,1.4-1.3,1.9-1.9c0.7-0.4,1.3-0.8,2-1.3c0.2,0.1,0.5,0.1,0.7,0.3C545.1,474.9,541.8,478.2,540.6,478.8L540.6,478.8z
		 M530.7,487.7c1.8-2.1,1.5-2,1.7-2.6c4,1.1,7.5,0,9.4-3.8c0.1-0.3,0.5-0.3,0.7-0.3c0.1,0,0.2,0,0.3,0.1c0.1,0,0.1,0.1,0.2,0.1
		c0.3,0.1,0.5,0.1,0.7,0.3C546.3,482.8,538.4,491.2,530.7,487.7L530.7,487.7z M542,378.4c0.1-0.1,0.2-0.3,0.3-0.4
		c0.3-0.6,0.6-1.1,0.7-1.7c3.1,1.9,8,1.8,10.4-1.6c0.9-0.4,1.7-1,2.5-1.6c1.4,0.7,0.9,2.1-0.2,3.2c-2.7,3.5-6.9,4.7-11.3,3.7
		C543.8,379.4,543,378.7,542,378.4z M545.9,430.9c1.4,0.6,3,0.9,4.5,0.8c2.3-0.2,3.4-0.9,5-2.5c0.1-0.1,0.9-1.1,1.1-1.7
		c0.2-0.5,1.1-0.4,1.8,0.1h0.1c1,0.8,0.3,2.1-0.7,3.1c-3.2,4.1-8.8,4.8-12.4,3.2c-0.2-0.2-0.5-0.4-0.8-0.6
		C544.8,432.8,545.7,432.1,545.9,430.9L545.9,430.9z M558.4,438.3c0,0.2-2.6,3.2-5.5,3.8c-2.4,0.7-4.4,0.6-6.8-0.1
		c-0.3-0.4-0.6-0.7-1-1c0.3-0.5,0.9-1,1.2-2.2c4.4,1.9,8.7,0.3,10.2-2.7c0.5-0.3,1-0.6,1.5-1c0.3,0.1,0.6,0.2,0.9,0.4
		C559.9,436.5,558.4,438.2,558.4,438.3L558.4,438.3z M545,447.7c0.3-0.6,0.6-1.1,0.7-1.7c3.2,1.9,8.1,1.8,10.7-1.8
		c0.8-0.4,1.5-0.9,2.1-1.4c0.2,0.1,0.4,0.2,0.6,0.3c0.9,0.8,0.3,2-0.6,3c-3,3.9-8.5,4.9-12,3.5c-0.5-0.6-1-1.2-1.7-1.5
		C544.8,447.9,544.9,447.8,545,447.7L545,447.7z M545.3,455.1c0.3-0.6,0.6-1.1,0.7-1.7c1.5,0.9,3.5,1.3,5.2,1.2
		c2.4-0.2,3.7-1,5.1-2.7c0.9-0.4,1.7-1,2.5-1.6c0.1,0.1,0.3,0.1,0.4,0.2c2.4,2-5.6,9.3-12.6,6.5c-0.5-0.6-1-1.2-1.7-1.5
		C545.1,455.3,545.2,455.2,545.3,455.1L545.3,455.1z M545.6,462.5c0.3-0.6,0.6-1.1,0.7-1.7c1.5,0.9,3.5,1.3,5.2,1.2
		c2.4-0.2,3.7-1,5.1-2.7c0.9-0.4,1.7-1,2.5-1.6c0.1,0.1,0.3,0.1,0.4,0.2c2.3,2-5.5,9.3-12.6,6.5c-0.5-0.6-1-1.2-1.7-1.5
		C545.4,462.7,545.5,462.6,545.6,462.5L545.6,462.5z M546.6,468.2c2.3,1.4,6,1.7,8.3,0.3c0.9-0.5,1.5-1.2,2-1.8
		c0.9-0.4,1.7-1,2.5-1.6c0.1,0.1,0.3,0.1,0.4,0.2c0.9,0.8,0.3,2-0.6,3c-3,3.9-8,5-12.3,3.4c-0.5-0.5-1-1-1.6-1.3
		C546,470.2,546.5,468.7,546.6,468.2L546.6,468.2z M546.2,477.5c0.3-0.6,0.6-1.1,0.7-1.7c3.1,1.9,7.9,1.9,10.6-1.8c0,0,0,0,0-0.1
		c0.7-0.4,1.4-0.8,2-1.3c0.2,0.1,0.4,0.2,0.6,0.3c0.9,0.8,0.3,2.2-0.5,3c-2.8,3.6-7.7,5.1-12.4,3.4c-0.4-0.5-1-0.9-1.6-1.2
		C545.9,478,546.1,477.8,546.2,477.5L546.2,477.5z M559.9,483.7c-3.2,4.1-9,5-12.7,3.3c-0.5-0.2-1-0.5-1.4-0.7
		c0.1-0.1,1.2-1.5,1.4-2.7c3.2,1.9,8,1.8,10.6-1.8c0-0.1,0.1-0.1,0.1-0.2c0.8-1.1,0.5-1.3,1.3-1.3c0.2,0,0.4,0,0.5,0.1
		C561.5,481,561.1,482.4,559.9,483.7L559.9,483.7z M561.1,439.8c0.4-0.4,0.9-1.3,1.1-2.6c1.2,0.4,2.6,0.6,3.9,0.5
		c2.9-0.2,4.4-1.6,5.7-3.5c0.5-0.3,1-0.6,1.5-1c0.3,0.1,0.6,0.2,0.8,0.4c0.7,0.5,0.5,1.6,0.1,2.4c-0.5,0.7-1,1.3-1.5,1.9
		c-2.1,1.9-4.6,2.9-7.6,2.9c-1.3,0-2.6-0.3-3.7-0.6C561.3,440,561.2,439.9,561.1,439.8L561.1,439.8z M561.7,447
		c0.5-0.7,0.7-1.5,0.8-2.2c1.2,0.4,2.6,0.6,3.9,0.5c3.5-0.3,4.6-2.2,5.3-2.9c0.8-0.4,1.5-0.9,2.2-1.4c0.2,0.1,0.4,0.2,0.5,0.3
		c1.4,1.1-0.7,3.8-1.5,4.2c-2,2-4.7,2.9-7.5,2.9c-1.3,0-2.4-0.2-3.5-0.6c-0.1-0.1-0.2-0.3-0.3-0.5
		C561.6,447.2,561.6,447.1,561.7,447z M562.8,452.1c1.3,0.4,2.6,0.6,3.9,0.6c3.3-0.2,5.1-2.4,5.1-2.7c0.9-0.4,1.7-1,2.5-1.6
		c0.1,0.1,0.3,0.1,0.4,0.2c1.4,1.1-0.7,3.8-1.5,4.2c-2,2-4.7,2.9-7.5,2.9c-1.3,0-2.4-0.2-3.5-0.6c-0.1-0.1-0.2-0.3-0.3-0.5
		C561.6,454.6,562.5,454.4,562.8,452.1L562.8,452.1z M563.1,459.6c1.2,0.4,2.6,0.6,3.9,0.5c3.3-0.2,5.1-2.4,5.1-2.7
		c0.9-0.4,1.7-1,2.5-1.6c0.1,0.1,0.3,0.1,0.4,0.2c1.4,1.1-0.6,3.8-1.5,4.2c-3,3-7.9,3.5-11,2.3c-0.1-0.1-0.2-0.3-0.3-0.5
		C561.9,462,562.8,461.8,563.1,459.6L563.1,459.6z M562.3,469.6c0.4-0.4,0.9-1.3,1.1-2.6c3.1,1,6.7,0.7,8.9-2c0-0.1,0.1-0.1,0.1-0.2
		c0.9-0.4,1.7-1,2.5-1.6c0.1,0.1,0.3,0.1,0.4,0.2c0.5,0.4,0.5,1,0.4,1.6c-0.2,0.8-0.1,0.7-1.8,2.7c0,0,0,0-0.1,0.1
		C570,471.5,563.8,471.1,562.3,469.6L562.3,469.6z M562.6,477.3c0.2-0.3,0.8-0.8,1.1-2.6c6.4,2.1,9.2-2.4,9.3-2.5
		c0.7-0.4,1.4-0.8,2-1.4c0.2,0.1,0.4,0.2,0.6,0.3c2.3,1.9-4.6,9.5-12.8,6.5C562.7,477.5,562.6,477.4,562.6,477.3L562.6,477.3z
		 M566.9,486c-1.5,0-2.9-0.3-4-0.8c0.2-0.4,0.9-1,1.2-2.8c3.8,1.3,7.9,0.5,10-3.7c0.1-0.4,1.1-0.3,1.2-0.2c0.2,0.1,0.5,0.2,0.7,0.3
		C577.4,480.6,573.5,486,566.9,486L566.9,486z M590.8,512.6c-1.1-5.2-2-18-1-25.7c1.1-0.3,2.1-0.8,3-1.4c-1,5.5-0.3,19.9,1.4,25.5
		L590.8,512.6z M578.8,482.5c0.7-1.2,0.8-2.5,0.6-3.6c2.4,3.1,10.1,4.3,12.8-1.2c0.1-0.1,0.1-0.3,0.2-0.4c0.1-0.4,1.1-0.3,1.2-0.2
		c0.3,0.1,0.5,0.2,0.7,0.3C596.5,479.6,587.8,488.5,578.8,482.5L578.8,482.5z M593.9,472c-2.5,4-7.9,5.9-12.8,4.1
		c-0.7-0.8-1.6-1.3-2.7-1.6c0.6-1.1,0.7-2.3,0.5-3.4c1.4,1.8,4.4,2.7,6.9,2.6c3-0.2,4.6-1.8,5.4-3.1c0.7-0.4,1.4-0.8,2-1.3
		c0.2,0.1,0.4,0.2,0.6,0.3C594.6,470.2,594.4,471.3,593.9,472z M592,466.2c-3.3,3-6.9,3.5-11.2,2.3c-0.7-0.8-1.6-1.4-2.7-1.7
		c0.5-1,0.6-2.1,0.5-3.1c0.1,0,0.2,0.1,0.3,0.1c2.7,2.8,8.8,3.5,11.7-0.4c0.9-0.4,1.7-1,2.5-1.6c0.1,0.1,0.3,0.1,0.4,0.2
		C594.9,463.1,593.3,464.9,592,466.2z M580.6,461c-0.7-0.9-1.5-1.6-2.7-1.9c0.4-1,0.6-2,0.4-2.9c0.1,0,0.2,0,0.3,0.1
		c1.5,1.6,4.3,2.4,6.6,2.3c2.7-0.2,4.3-1.5,5.2-2.7c0.9-0.4,1.7-1,2.5-1.6c0.1,0.1,0.3,0.1,0.4,0.2
		C595.5,456.7,588.2,463.8,580.6,461L580.6,461z M583.9,454.3c-1.3,0-2.5-0.2-3.6-0.6c-0.7-0.9-1.5-1.6-2.7-1.9c0.4-1,0.5-2,0.4-2.9
		c0-0.1,0-0.1,0-0.2c0.1,0.1,0.2,0.2,0.3,0.3c1.5,1.6,4.3,2.4,6.6,2.3c2.7-0.2,4.3-1.5,5.2-2.7c0.9-0.4,1.7-1,2.5-1.6
		c0.1,0.1,0.3,0.1,0.4,0.2C594.7,448.7,590.5,454.3,583.9,454.3L583.9,454.3z M592.7,442.1c-2,2.9-5.1,4.8-9.1,4.8
		c-1.3,0-2.5-0.2-3.6-0.6c-0.7-0.9-1.5-1.6-2.7-1.9c0.4-1,0.6-2.1,0.4-3.1c1.4,1.8,4.4,2.7,6.8,2.5c2.9-0.2,4.5-1.7,5.4-3
		c0.8-0.4,1.5-0.9,2.1-1.4C593.3,440,593.4,441.1,592.7,442.1L592.7,442.1z M587.8,438.4c-1.8,0.8-3.5,0.9-4.5,0.9
		c-1.3,0-2.5-0.2-3.6-0.6c-0.7-0.9-1.6-1.5-2.7-1.7c0.5-1.1,0.7-2.2,0.5-3.2c1.4,1.8,4.4,2.7,6.9,2.5c3.4-0.2,4.9-2.2,5.7-3.5
		c0.5-0.3,1-0.6,1.5-1C595.2,433,590.1,437.4,587.8,438.4L587.8,438.4z M587.8,430.3c-1.9,0.9-3.8,1.1-4.8,1.1c-1.5,0-2.9-0.3-4-0.8
		c-0.7-0.6-1.5-1.1-2.4-1.3c0.6-1.2,0.8-2.4,0.6-3.6c1.4,1.8,4.4,2.7,6.9,2.6c3.2-0.2,4.8-2,5.6-3.3c0.6-0.3,1.2-0.7,1.7-1.2
		C594.5,424.8,590.5,429.3,587.8,430.3z M590.1,420.9c-0.9,0.8-1.8,1.4-2.7,1.8c-1.9,0.8-3.7,1-4.7,1c-1.4,0-2.7-0.3-3.8-0.7
		c-0.7-0.8-1.5-1.3-2.6-1.5c0.6-1.1,0.7-2.3,0.5-3.4c1.4,1.8,4.4,2.7,6.9,2.6c3.3-0.2,4.9-2.2,5.7-3.5c0.5-0.3,1-0.6,1.5-1
		c0.3,0.1,0.6,0.2,0.9,0.4C593.1,417.4,591.3,419.7,590.1,420.9L590.1,420.9z M589.6,413.1c-0.8,0.7-1.6,1.2-2.4,1.6
		c-1.9,0.9-3.8,1-4.8,1c-1.5,0-2.8-0.3-4-0.7c-0.7-0.7-1.5-1.1-2.5-1.3c0.6-1.1,0.8-2.3,0.6-3.4v-0.1c0,0.1,0.1,0.1,0.2,0.2
		c1.4,1.7,4.4,2.5,6.7,2.4c2.8-0.2,4.4-1.6,5.3-2.9c0.8-0.4,1.6-0.9,2.3-1.5c0.2,0.1,0.4,0.2,0.5,0.3
		C592.9,409.5,590.8,412,589.6,413.1L589.6,413.1z M586.5,407.3c-1.8,0.7-3.5,0.9-4.4,0.9c-1.3,0-2.6-0.3-3.7-0.7
		c-0.7-0.9-1.5-1.5-2.6-1.8c0.5-1.1,0.6-2.2,0.4-3.2c1.4,1.8,4.4,2.7,6.9,2.5c3.1-0.2,4.7-1.9,5.5-3.2c0.7-0.4,1.3-0.8,1.9-1.3
		c0.2,0.1,0.5,0.2,0.7,0.3C592.9,402.8,589,406.4,586.5,407.3L586.5,407.3z M592,352.4c0.7-2.8,0.8-6.2-0.2-9.3l19-0.8l0.4,9.3
		L592,352.4z M620.3,355.1c0,0-0.3,0.2-1.2,0.2l-3.7,0.1c-0.9,0-1.2-0.1-1.2-0.1s-0.1-0.1-0.1-0.5c0-1.6,0.2,6-0.5-16.4
		c0,0,0.3-0.2,1.4-0.2l3.2-0.1c1.1,0,1.4,0.1,1.4,0.1C619.7,340.4,620.3,356.1,620.3,355.1L620.3,355.1z"/>
	<path fill="#1CDBE6" d="M290.1,573.2h18.6l-27,79.8h-18.6l-16.8-57.6l-17,57.6h-18.5L184,573.2h19.4l17.3,60.9l17.2-60.9h17.7
		l17.4,60.9L290.1,573.2z"/>
	<path fill="#1CDBE6" d="M337.9,591.1c44.3,0,43.7,62.6,0,62.6C293.9,653.7,293.6,591.1,337.9,591.1z M322.5,622.6
		c0,22.7,30.6,22.6,30.6,0S322.5,599.9,322.5,622.6z"/>
	<path fill="#1CDBE6" d="M410.1,591.1c37.7,0,42.5,45,17.1,58.7c-19.3,10.2-50,1.5-50-27.5C377.2,603.9,389.8,591.1,410.1,591.1z
		 M394.7,622.6c0,17.7,18.2,21.1,26.3,12.2c5.8-6.2,5.8-18.2,0-24.4C412.9,601.5,394.7,604.9,394.7,622.6z"/>
	<path fill="#1CDBE6" d="M455.1,568.4h17.6V653h-17.6V568.4z"/>
	<path fill="#1CDBE6" d="M519.9,659.9c-4.3,10.7-11.7,16.1-22.5,16.1c-6.6,0-11.7-2-16.7-5.9l7.4-12.7c2.7,2.2,5.3,3.3,8,3.3
		c7.2,0,8.2-6.6,9.8-8.9l-25.4-60.1h18.1l16.1,42.2l14.5-42.2h17.6L519.9,659.9z"/>
	<path fill="#1CDBE6" d="M678.9,573.2h18.6l-27,79.8h-18.6l-16.8-57.6l-17,57.6h-18.5l-26.9-79.8h19.4l17.3,60.9l17.2-60.9h17.7
		l17.4,60.9L678.9,573.2z"/>
	<path fill="#1CDBE6" d="M735.2,645.8c-8.1,10.1-26.5,10.3-34.7,2.8c-7.7-7.3-7.8-20.9,0.3-27.4c9-7.2,22.6-4.3,34.2-5
		c-0.1-0.7,0.7-5.5-3.3-8.6c-2.1-1.8-5.3-2.7-9.5-2.7c-5.7,0-11.8,1.8-18.2,5.4l-5.5-12.1c4.9-2.4,9.4-4.2,13.7-5.4
		c19.6-5,39.7-0.1,40,20.3l0.1,40h-17.1C735.2,652.9,735.2,645.6,735.2,645.8z M735.1,632.1v-5.5c-11.6,0.3-23.8-2.4-23.8,6.9
		C711.3,645.4,733,642.8,735.1,632.1z"/>
	<path fill="#1CDBE6" d="M767.5,591.7h17.6V653h-17.6V591.7z M776.2,564.4c12.7,0,12.7,19.6,0,19.6
		C763.6,584,763.7,564.4,776.2,564.4z"/>
	<path fill="#1CDBE6" d="M824.9,583.9c-3,2.6-1.8,6.9-2.1,10.5h14.5v12.2h-14.5V653h-17.4v-46.4h-8.2v-12.2h8.2
		c0.5-2.4-2.9-17.7,11.2-24.3c7.1-3.6,16-3.1,23.5,0l-2.6,13.7c-1.1-0.5-2.4-0.8-3.6-1.1C830.8,581.9,827.3,581.7,824.9,583.9
		L824.9,583.9z"/>
</g>
</svg>
