<?xml version="1.0" encoding="utf-8"?>
<!-- Generator: Adobe Illustrator 21.0.0, SVG Export Plug-In . SVG Version: 6.00 Build 0)  -->
<svg version="1.1" id="Layer_1" xmlns="http://www.w3.org/2000/svg" xmlns:xlink="http://www.w3.org/1999/xlink" x="0px" y="0px"
	 viewBox="0 0 1024 1024" enable-background="new 0 0 1024 1024" xml:space="preserve">
<rect fill="#2C303B" width="1024" height="1024"/>
<g id="logo-center" transform="translate(184.49593500000003 0)">
	<g id="icon" transform="">
		<g>
			<g>
				<g>
					<path fill="#4FE0DA" d="M110.2,572.5H90.4c-2.4,0-4.4-2-4.4-4.4s2-4.4,4.4-4.4h12.4l-42.3-76.4l-42.7,76.4h12.8
						c2.4,0,4.4,2,4.4,4.4s-2,4.4-4.4,4.4H10.3c-1.6,0-3-0.8-3.8-2.2c-0.8-1.3-0.8-3,0-4.4l50.2-89.8c0.8-1.4,2.2-2.3,3.8-2.3l0,0
						c1.6,0,3.1,0.9,3.8,2.3l49.8,89.8c0.8,1.4,0.7,3-0.1,4.4C113.2,571.6,111.8,572.5,110.2,572.5z"/>
				</g>
				<g>
					<path fill="#4FE0DA" d="M53.8,469.7c-1.6,0-3.1-0.8-3.9-2.3l-4.7-8.6c-1.2-2.1-0.4-4.8,1.7-6c2.1-1.2,4.8-0.4,6,1.7l4.7,8.6
						c1.2,2.1,0.4,4.8-1.7,6C55.3,469.6,54.5,469.7,53.8,469.7z"/>
				</g>
				<g>
					<path fill="#4FE0DA" d="M75.3,572.2c-2.4,0-4.4-2-4.4-4.4c0-5.9-4.8-10.7-10.7-10.7s-10.7,4.8-10.7,10.7c0,2.4-2,4.4-4.4,4.4
						s-4.4-2-4.4-4.4c0-10.7,8.7-19.5,19.5-19.5s19.5,8.7,19.5,19.5C79.7,570.2,77.8,572.2,75.3,572.2z"/>
				</g>
			</g>
			<g>
				<path fill="#4FE0DA" d="M68.9,469.7c-0.7,0-1.4-0.2-2.1-0.5c-2.1-1.2-2.9-3.8-1.7-6l4.7-8.6c1.2-2.1,3.8-2.9,6-1.7
					c2.1,1.2,2.9,3.8,1.7,6l-4.7,8.6C71.9,468.9,70.4,469.7,68.9,469.7z"/>
			</g>
		</g>
	</g>
	<g id="title">
		<path id="path752" fill="#FFFFFF" d="M167.5,557.2c-1.4,0-2.6-0.5-3.6-1.4c-1-1-1.4-2.2-1.4-3.6v-65.3c0-1.5,0.5-2.7,1.4-3.6
			c1-1,2.2-1.4,3.6-1.4h19.3c4.8,0,9,1.1,12.7,3.2c3.8,2.1,6.7,5.1,8.8,8.9s3.2,8.1,3.2,12.9c0,4.7-1.1,8.9-3.2,12.5
			c-2.1,3.7-5,6.5-8.8,8.6c-3.7,2.1-8,3.1-12.7,3.1h-14.3v21.1c0,1.4-0.5,2.6-1.4,3.6C170.2,556.8,169,557.2,167.5,557.2z
			 M186.8,521.8c4.4,0,8-1.4,10.8-4.1c2.8-2.8,4.2-6.4,4.2-10.8c0-4.6-1.4-8.3-4.2-11.3s-6.4-4.4-10.8-4.4h-14.3v30.7h14.3V521.8z"
			/>
		<path id="path754" fill="#FFFFFF" d="M247.4,504.1c5,0,9.4,1.2,13.4,3.6c4.1,2.3,7.2,5.5,9.6,9.6s3.6,8.6,3.6,13.6v21.5
			c0,1.4-0.5,2.6-1.4,3.6c-0.9,0.9-2.1,1.4-3.5,1.4s-2.6-0.5-3.6-1.4c-0.9-1-1.4-2.2-1.4-3.6v-3.6c-2.3,2.8-5,4.9-8.2,6.5
			s-6.7,2.3-10.4,2.3c-4.6,0-8.8-1.2-12.6-3.5c-3.7-2.3-6.7-5.5-8.9-9.6c-2.1-4.1-3.2-8.7-3.2-13.7s1.2-9.6,3.5-13.6
			c2.3-4.1,5.5-7.3,9.6-9.6C237.9,505.3,242.4,504.1,247.4,504.1z M247.4,548.9c3.2,0,6.1-0.8,8.7-2.3c2.6-1.6,4.7-3.8,6.2-6.5
			c1.5-2.8,2.2-5.9,2.2-9.3c0-3.4-0.7-6.5-2.2-9.3s-3.5-4.9-6.2-6.5c-2.6-1.6-5.5-2.4-8.7-2.4s-6.1,0.8-8.8,2.4
			c-2.6,1.5-4.6,3.7-6.2,6.5c-1.5,2.8-2.2,5.9-2.2,9.3c0,3.4,0.7,6.5,2.2,9.3c1.5,2.7,3.6,4.9,6.2,6.5S244.1,548.9,247.4,548.9z"/>
		<path id="path756" fill="#FFFFFF" d="M314.8,547.6c1.2,0,2.1,0.5,2.9,1.4s1.3,2.1,1.3,3.5s-0.5,2.6-1.6,3.5
			c-1,0.9-2.4,1.4-4.1,1.4h-1.7c-3.2,0-6-0.8-8.7-2.4c-2.6-1.7-4.6-3.9-6.1-6.8s-2.2-6-2.2-9.6v-23.8h-4.4c-1.4,0-2.4-0.4-3.3-1.2
			c-0.8-0.8-1.3-1.7-1.3-2.9c0-1.3,0.4-2.3,1.3-3.1c0.8-0.8,1.9-1.2,3.3-1.2h4.4v-13.9c0-1.4,0.5-2.6,1.4-3.5s2.1-1.4,3.5-1.4
			s2.6,0.5,3.5,1.4s1.4,2.1,1.4,3.5v13.9h8.2c1.4,0,2.4,0.4,3.3,1.2c0.8,0.8,1.3,1.8,1.3,3.1c0,1.2-0.4,2.1-1.3,2.9
			c-0.8,0.8-1.9,1.2-3.3,1.2h-8.2v23.8c0,2.6,0.7,4.7,2.1,6.5c1.4,1.7,3.2,2.6,5.2,2.6h3.1V547.6z"/>
		<path id="path758" fill="#FFFFFF" d="M360.9,504c4.4,0,8.4,1,12,2.9c3.5,1.9,6.3,4.8,8.3,8.5c2,3.7,3,8.1,3,13.3v23.7
			c0,1.4-0.5,2.6-1.4,3.6c-0.9,0.9-2.1,1.4-3.5,1.4s-2.6-0.5-3.6-1.4c-0.9-1-1.4-2.2-1.4-3.6v-23.7c0-5.2-1.4-9.1-4.2-11.8
			c-2.8-2.7-6.5-4.1-11.1-4.1c-2.7,0-5.2,0.5-7.4,1.6c-2.2,1.1-3.9,2.6-5.2,4.4c-1.2,1.9-1.8,4-1.8,6.3v27.2c0,1.4-0.5,2.6-1.4,3.6
			c-0.9,0.9-2.1,1.4-3.6,1.4c-1.4,0-2.6-0.5-3.6-1.4c-0.9-1-1.4-2.2-1.4-3.6v-65.6c0-1.5,0.5-2.7,1.4-3.6c1-0.9,2.2-1.4,3.6-1.4
			c1.5,0,2.7,0.5,3.6,1.4s1.4,2.1,1.4,3.6v23.6c2.1-2.1,4.5-3.6,7.3-4.7C354.6,504.6,357.7,504,360.9,504L360.9,504z"/>
		<path id="path760" fill="#FFFFFF" d="M410.3,557.2c-1.4,0-2.6-0.5-3.6-1.4c-1-1-1.4-2.2-1.4-3.6v-65.3c0-1.5,0.5-2.7,1.4-3.6
			c1-1,2.2-1.4,3.6-1.4h23.1c4.3,0,8.1,0.9,11.5,2.6c3.3,1.7,5.9,4.1,7.8,7.1s2.9,6.5,2.9,10.3c0,3.2-0.9,6-2.6,8.5s-4,4.5-6.9,6.1
			c4.4,1,7.8,3.1,10.3,6.2c2.5,3.1,3.8,7,3.8,11.8c0,4.4-1.1,8.3-3.2,11.8s-5,6.2-8.8,8.1c-3.7,1.9-8,2.9-12.7,2.9L410.3,557.2
			L410.3,557.2z M433.3,512.9c3.8,0,6.8-0.9,9.1-2.8c2.3-1.9,3.5-4.6,3.5-8.1s-1.2-6.2-3.5-8c-2.3-1.9-5.3-2.8-9.1-2.8h-18v21.7
			H433.3z M435.3,548c4.5,0,8.1-1.2,10.9-3.5c2.8-2.4,4.1-5.7,4.1-10c0-4-1.4-7-4.1-9.2c-2.7-2.1-6.3-3.2-10.9-3.2h-20.1V548H435.3z
			"/>
		<path id="path762" fill="#FFFFFF" d="M501.6,504.1c5,0,9.4,1.2,13.4,3.6c4.1,2.3,7.2,5.5,9.6,9.6c2.4,4.1,3.6,8.6,3.6,13.6v21.5
			c0,1.4-0.5,2.6-1.4,3.6c-0.9,0.9-2.1,1.4-3.5,1.4s-2.6-0.5-3.6-1.4c-0.9-1-1.4-2.2-1.4-3.6v-3.6c-2.3,2.8-5,4.9-8.2,6.5
			c-3.2,1.5-6.7,2.3-10.4,2.3c-4.6,0-8.8-1.2-12.6-3.5c-3.7-2.3-6.7-5.5-8.9-9.6c-2.1-4.1-3.2-8.7-3.2-13.7s1.2-9.6,3.5-13.6
			c2.3-4.1,5.5-7.3,9.6-9.6C492.1,505.3,496.7,504.1,501.6,504.1z M501.6,548.9c3.2,0,6.1-0.8,8.7-2.3c2.6-1.6,4.7-3.8,6.2-6.5
			c1.5-2.8,2.2-5.9,2.2-9.3c0-3.4-0.7-6.5-2.2-9.3s-3.5-4.9-6.2-6.5c-2.6-1.6-5.5-2.4-8.7-2.4s-6.1,0.8-8.8,2.4
			c-2.6,1.5-4.6,3.7-6.2,6.5c-1.5,2.8-2.2,5.9-2.2,9.3c0,3.4,0.7,6.5,2.2,9.3c1.5,2.7,3.6,4.9,6.2,6.5
			C495.5,548.2,498.4,548.9,501.6,548.9z"/>
		<path id="path764" fill="#FFFFFF" d="M565.8,557.6c-4.4,0-8.5-0.7-12.3-2c-3.9-1.4-6.9-3.1-9.1-5.3c-0.8-0.8-1.3-1.8-1.3-3
			c0-1.5,0.6-2.8,1.9-3.8c1.2-0.9,2.3-1.4,3.4-1.4c1.3,0,2.5,0.6,3.7,1.7c1.2,1.4,3.1,2.5,5.5,3.6c2.4,1,5,1.4,7.8,1.4
			c3.7,0,6.5-0.6,8.5-1.8c2.1-1.2,3.1-2.9,3.1-4.9s-1-3.6-3-4.9c-2-1.4-5.4-2.5-10.1-3.4c-12.3-2.4-18.5-7.5-18.5-15.2
			c0-3.2,0.9-5.8,2.8-8c1.9-2.2,4.3-3.8,7.3-4.9s6.2-1.6,9.6-1.6c4.2,0,7.9,0.7,11.2,2c3.3,1.4,6,3.2,7.9,5.6c0.8,1,1.3,2.1,1.3,3.1
			c0,1.1-0.5,2.1-1.6,3c-0.7,0.5-1.6,0.8-2.7,0.8c-1.7,0-3.2-0.6-4.5-1.8c-1.6-1.5-3.3-2.5-5.1-3.1s-4-1-6.6-1c-3,0-5.4,0.5-7.3,1.5
			c-1.9,1-2.8,2.3-2.8,4.1c0,1.3,0.3,2.4,1,3.3c0.6,0.8,1.9,1.6,3.7,2.4c1.8,0.7,4.4,1.4,7.8,2.1c7,1.4,12,3.4,14.9,5.9
			c3,2.5,4.4,5.8,4.4,9.7c0,3-0.8,5.7-2.4,8.1c-1.6,2.4-4,4.3-7.1,5.7C573.9,557,570.1,557.6,565.8,557.6L565.8,557.6z"/>
		<path id="path766" fill="#FFFFFF" d="M650,530c0,1.2-0.4,2.3-1.3,3.1c-0.8,0.8-1.9,1.2-3.2,1.2h-36.7c0.7,4.5,2.7,8.1,6.1,10.9
			c3.4,2.8,7.6,4.1,12.4,4.1c1.9,0,3.9-0.4,6-1.1c2.1-0.7,3.9-1.6,5.2-2.6c0.9-0.7,2-1.1,3.2-1.1s2.2,0.3,2.9,1
			c1.2,1,1.7,2.1,1.7,3.3s-0.5,2.1-1.5,2.9c-2.2,1.7-4.9,3.2-8.2,4.2c-3.2,1.1-6.3,1.6-9.3,1.6c-5.3,0-10-1.1-14.2-3.4
			c-4.2-2.3-7.5-5.5-9.8-9.6s-3.5-8.7-3.5-13.8s1.1-9.7,3.3-13.8c2.3-4.1,5.3-7.3,9.3-9.6c4-2.3,8.5-3.5,13.5-3.5s9.2,1.1,12.8,3.3
			c3.6,2.2,6.4,5.2,8.3,9.2C649,520.4,650,525,650,530L650,530z M626,512.4c-4.7,0-8.5,1.3-11.5,3.9c-2.9,2.6-4.7,6-5.5,10.3h32.1
			c-0.6-4.3-2.2-7.8-4.8-10.3C633.7,513.7,630.2,512.4,626,512.4L626,512.4z"/>
	</g>
</g>
</svg>
