<?xml version="1.0" encoding="utf-8"?>
<!-- Generator: Adobe Illustrator 21.0.0, SVG Export Plug-In . SVG Version: 6.00 Build 0)  -->
<svg version="1.1" id="Layer_1" xmlns="http://www.w3.org/2000/svg" xmlns:xlink="http://www.w3.org/1999/xlink" x="0px" y="0px"
	 viewBox="0 0 467.9 467.9" enable-background="new 0 0 467.9 467.9" xml:space="preserve">
<rect fill="#262720" width="467.9" height="467.9"/>
<path fill="#B6D620" d="M329.8,190c-4.4-5.1-10.2-8-16.4-8c-6.2,0-12,2.8-16.4,8c-9,10.6-9,27.8,0,38.4c3.9,4.6,9,7.3,14.4,7.9v12.5
	c0,1.3,0.9,2.3,2,2.3s2-1,2-2.3v-12.5c5.4-0.5,10.5-3.3,14.4-7.9C338.8,217.8,338.8,200.6,329.8,190z M327,225.1
	c-3.2,3.7-7.2,5.9-11.6,6.5v-5l8.3-9.8c0.5-0.6,0.5-1.6,0-2.2c-0.5-0.6-1.4-0.6-1.9,0l-6.5,7.6v-9.9l5-5.9c0.5-0.6,0.5-1.6,0-2.2
	c-0.5-0.6-1.3-0.6-1.9,0l-3.1,3.7v-8.3c0-1.3-0.9-2.3-2-2.3s-2,1-2,2.3v15.5l-5-5.8c-0.5-0.6-1.4-0.6-1.9,0s-0.5,1.6,0,2.2l6.8,8
	v12.2c-4.4-0.5-8.4-2.8-11.6-6.5c-7.5-8.8-7.5-23.1,0-31.8c3.6-4.3,8.4-6.6,13.6-6.6c5.1,0,9.9,2.3,13.6,6.6
	C334.5,202.1,334.5,216.4,327,225.1z"/>
<path fill="#FFFFFF" d="M101.5,218.3c-1.9-1.6-4.1-2.5-6.4-2.9c3.2-0.7,5.7-2.4,7.4-5.1c1.8-2.7,2.6-6.1,2.6-10.1
	c0-5.8-1.6-10.1-4.9-12.9c-3.3-2.9-7.9-4.3-13.8-4.3H71.3v67.2H90c3.5,0,6.6-0.7,9.2-2.1c2.7-1.4,4.7-3.6,6.2-6.3
	c1.5-2.8,2.2-6.2,2.2-10.1c0-2.7-0.6-5.2-1.7-7.5C104.9,221.8,103.4,219.8,101.5,218.3z M73.5,185.5h12.9c5.5,0,9.6,1.2,12.3,3.7
	c2.8,2.4,4.2,6,4.2,10.8c0,9.7-5.3,14.5-15.8,14.5H73.5V185.5z M103.7,240.3c-1.3,2.4-3.1,4.2-5.4,5.4c-2.3,1.3-5.1,1.9-8.3,1.9
	H73.5V217h17c3.3,0,6,0.7,8.3,2c2.3,1.4,4,3.2,5.2,5.4s1.7,4.7,1.7,7.3C105.6,235.1,105,237.9,103.7,240.3z M125.5,250.2h34.8v-2.5
	h-32.7v-30.8h28.7v-2.5h-28.7v-28.9h32.7V183h-34.8V250.2z M216.2,245.8l-37-62.8H177v67.2h2.2v-62.9l37,62.9h2.1V183h-2.1V245.8z
	 M267.2,218.9c-2.8-1.6-6.2-3-10.4-4.2c-4.5-1.4-8-2.8-10.5-4.4c-2.5-1.6-4.3-3.3-5.3-5.2s-1.5-4.1-1.5-6.6s0.7-4.8,2-6.9
	c1.3-2.1,3.3-3.8,5.8-5.1s5.6-1.9,9-1.9c3.3,0,6.3,0.8,8.8,2.3c2.6,1.5,4.6,3.6,6,6.2c1.4,2.6,2.1,5.6,2.1,8.9h2.1
	c0-3.9-0.8-7.4-2.4-10.3c-1.6-3-3.9-5.4-6.8-7c-2.9-1.7-6.2-2.5-9.8-2.5c-3.6,0-6.9,0.7-9.8,2c-2.9,1.3-5.2,3.2-6.8,5.7
	s-2.4,5.4-2.4,8.7c0,3.5,0.7,6.4,2.2,8.6c1.5,2.3,3.5,4.2,6.2,5.6c2.7,1.5,6.2,2.9,10.5,4.3c4.4,1.4,7.9,2.9,10.4,4.4
	s4.4,3.3,5.5,5.3c1.2,2,1.7,4.4,1.7,7.3c0,2.8-0.7,5.4-2.2,7.6c-1.5,2.2-3.5,3.9-6.1,5.1c-2.6,1.2-5.6,1.8-8.9,1.8
	c-3.1,0-6.1-0.6-9-1.7c-2.9-1.1-5.2-3-7.2-5.5c-1.9-2.6-2.9-6-2.9-10.2h-2.1c0,4.7,1,8.6,3.1,11.5c2.1,3,4.7,5.1,7.9,6.4
	c3.2,1.3,6.6,1.9,10.2,1.9c3.6,0,6.9-0.7,9.8-2c3-1.4,5.3-3.3,7-5.9c1.7-2.6,2.6-5.6,2.6-9.2c0-3.6-0.8-6.6-2.4-9
	C272.1,222.5,270,220.4,267.2,218.9z M394.5,183v62.8l-37-62.8h-2.2v67.2h2.2v-62.9l37,62.9h2.1V183H394.5z"/>
<path id="path27" fill="#B6D620" d="M165.7,285.6h-0.9v-11.3l0.1-2.7l0,0l-4.7,14h-0.9l-4.7-14l0,0l0.1,2.7v11.3h-0.9v-15.1h1.5
	L159,282l0.6,2.3l0,0l0.6-2.3l3.9-11.5h1.5L165.7,285.6z"/>
<path id="path29" fill="#B6D620" d="M172.6,274c1.4,0,2.6,0.5,3.4,1.6c0.8,1.1,1.2,2.5,1.2,4.3s-0.4,3.3-1.2,4.4s-2,1.6-3.4,1.6
	s-2.6-0.5-3.4-1.6c-0.8-1.1-1.2-2.5-1.2-4.4s0.4-3.3,1.2-4.3C170,274.5,171.1,274,172.6,274z M172.6,274.9c-1.1,0-2,0.4-2.7,1.3
	s-1,2.1-1,3.6s0.3,2.8,1,3.6s1.5,1.3,2.7,1.3c1.1,0,2-0.4,2.7-1.3s1-2.1,1-3.6s-0.3-2.8-1-3.6C174.6,275.4,173.7,274.9,172.6,274.9z
	"/>
<path id="path31" fill="#B6D620" d="M188,268.9v16.7h-0.9L187,283c-0.3,0.9-0.7,1.6-1.4,2.1c-0.6,0.5-1.4,0.7-2.3,0.7
	c-1.4,0-2.5-0.5-3.3-1.6s-1.2-2.5-1.2-4.4s0.4-3.3,1.2-4.4s1.9-1.6,3.3-1.6c0.8,0,1.6,0.2,2.2,0.7c0.6,0.5,1.1,1.1,1.4,1.9v-7.7h1.1
	V268.9z M183.6,284.9c1,0,1.8-0.4,2.5-1.2c0.6-0.8,1-1.9,1-3.3v-1c-0.1-1.4-0.4-2.5-1-3.2c-0.6-0.8-1.4-1.2-2.4-1.2
	c-1.1,0-2,0.4-2.7,1.3c-0.6,0.9-1,2.1-1,3.6s0.3,2.8,1,3.6C181.6,284.4,182.5,284.9,183.6,284.9z"/>
<path id="path33" fill="#B6D620" d="M199.2,279.6c0,0.3,0,0.5,0,0.8h-7.7c0.1,1.4,0.4,2.5,1.1,3.3c0.7,0.8,1.5,1.2,2.6,1.2
	c0.8,0,1.4-0.2,2-0.5c0.6-0.4,1-0.9,1.2-1.6l0.8,0.5c-0.4,0.8-0.9,1.5-1.6,1.9c-0.7,0.4-1.5,0.7-2.4,0.7c-1.4,0-2.6-0.5-3.4-1.6
	c-0.8-1.1-1.2-2.5-1.2-4.4s0.4-3.3,1.2-4.4s1.9-1.6,3.3-1.6c1.3,0,2.4,0.5,3.1,1.6S199.2,277.9,199.2,279.6z M194.9,275
	c-1.1,0-1.9,0.4-2.5,1.2c-0.6,0.8-1,1.8-1,3.2h6.9c-0.1-1.4-0.4-2.4-1-3.2C196.7,275.4,195.9,275,194.9,275L194.9,275z"/>
<path id="path35" fill="#B6D620" d="M205.6,274c0.5,0,0.9,0.1,1.2,0.4l-0.3,1.1c-0.3-0.3-0.7-0.4-1.2-0.4s-1,0.2-1.4,0.5
	c-0.4,0.4-0.8,0.9-1.1,1.5s-0.4,1.4-0.4,2.2v6.4h-1v-11.4h0.8l0.1,2.3c0.3-0.8,0.7-1.4,1.2-1.9C204.2,274.2,204.8,274,205.6,274z"/>
<path id="path37" fill="#B6D620" d="M212.7,274c1.1,0,2,0.4,2.7,1.1s1,1.8,1,3.2v7.4h-1v-7c0-1.2-0.3-2.1-0.8-2.7s-1.2-0.9-2.1-0.9
	c-0.6,0-1.2,0.2-1.7,0.5s-1,0.8-1.3,1.5c-0.3,0.6-0.5,1.4-0.5,2.2v6.5h-1v-11.4h0.9v2.3c0.3-0.8,0.8-1.4,1.4-1.9
	C211.2,274.2,211.9,274,212.7,274z"/>
<path id="path39" fill="#B6D620" d="M233.8,284.6v1.1h-8.7v-15.1h1v14.1h7.7V284.6z"/>
<path id="path41" fill="#B6D620" d="M243.3,284.9c0.3,0,0.6-0.1,0.8-0.2l-0.1,0.9c-0.2,0.2-0.6,0.2-1,0.2c-0.5,0-0.8-0.1-1.1-0.4
	s-0.4-0.8-0.5-1.5c-0.3,0.6-0.8,1.1-1.4,1.4c-0.7,0.3-1.4,0.5-2.1,0.5c-1,0-1.7-0.3-2.3-0.8s-0.9-1.2-0.9-2.2c0-1.8,1.2-2.9,3.7-3.4
	l3-0.6v-1c0-0.9-0.2-1.6-0.7-2.2c-0.5-0.5-1.1-0.8-2-0.8c-1.5,0-2.6,0.8-3.1,2.4l-0.7-0.6c0.3-0.9,0.8-1.6,1.4-2.1
	c0.7-0.5,1.5-0.7,2.4-0.7c1.1,0,2,0.3,2.7,1c0.7,0.6,1,1.6,1,2.8v5.9C242.4,284.5,242.7,284.9,243.3,284.9L243.3,284.9z M238,284.9
	c0.5,0,1.1-0.1,1.6-0.3c0.5-0.2,0.9-0.6,1.3-1c0.4-0.4,0.5-1,0.5-1.6v-2.1l-2.7,0.6c-1.1,0.2-1.8,0.5-2.3,1
	c-0.5,0.4-0.7,0.9-0.7,1.6c0,0.6,0.2,1.1,0.6,1.4C236.7,284.7,237.3,284.9,238,284.9L238,284.9z"/>
<path id="path43" fill="#B6D620" d="M259,274.2l-3.3,11.4h-1l-3.1-10l-3,10h-1l-3.3-11.4h1.1l2.7,10.1l3-10.1h1l3,10.1l2.8-10.1H259
	z"/>
<path id="path45" fill="#B6D620" d="M265.2,274c1.1,0,2,0.4,2.7,1.1s1,1.8,1,3.2v7.4h-1v-7c0-1.2-0.3-2.1-0.8-2.7s-1.2-0.9-2.1-0.9
	c-0.6,0-1.2,0.2-1.7,0.5s-1,0.8-1.3,1.5c-0.3,0.6-0.5,1.4-0.5,2.2v6.5h-1v-11.4h0.9v2.3c0.3-0.8,0.8-1.4,1.4-1.9
	C263.6,274.2,264.3,274,265.2,274L265.2,274z"/>
<path id="path47" fill="#B6D620" d="M287.7,281.8c-0.4,1.3-1,2.3-1.9,3s-2,1.1-3.2,1.1s-2.2-0.3-3.1-0.9s-1.6-1.5-2-2.7
	c-0.5-1.2-0.7-2.5-0.7-4.1s0.2-2.9,0.7-4.1s1.2-2.1,2-2.7c0.9-0.6,1.9-1,3.1-1c2.6,0,4.2,1.2,5,3.7l-1,0.5c-0.3-1.1-0.8-1.9-1.4-2.4
	c-0.7-0.5-1.5-0.8-2.5-0.8s-1.8,0.3-2.6,0.8c-0.7,0.5-1.3,1.3-1.7,2.3c-0.4,1-0.6,2.2-0.6,3.6s0.2,2.6,0.6,3.6s1,1.8,1.7,2.3
	s1.6,0.8,2.6,0.8s1.9-0.3,2.7-0.9c0.7-0.6,1.2-1.4,1.5-2.5L287.7,281.8z"/>
<path id="path49" fill="#B6D620" d="M297.8,284.9c0.3,0,0.6-0.1,0.8-0.2l-0.1,0.9c-0.2,0.2-0.6,0.2-1,0.2c-0.5,0-0.8-0.1-1.1-0.4
	c-0.3-0.3-0.4-0.8-0.5-1.5c-0.3,0.6-0.8,1.1-1.4,1.4c-0.7,0.3-1.4,0.5-2.1,0.5c-1,0-1.7-0.3-2.3-0.8c-0.6-0.5-0.9-1.2-0.9-2.2
	c0-1.8,1.2-2.9,3.7-3.4l3-0.6v-1c0-0.9-0.2-1.6-0.7-2.2c-0.5-0.5-1.1-0.8-2-0.8c-1.5,0-2.6,0.8-3.1,2.4l-0.7-0.6
	c0.3-0.9,0.8-1.6,1.4-2.1c0.7-0.5,1.5-0.7,2.4-0.7c1.1,0,2,0.3,2.7,1c0.7,0.6,1,1.6,1,2.8v5.9C296.9,284.5,297.2,284.9,297.8,284.9
	L297.8,284.9z M292.5,284.9c0.5,0,1.1-0.1,1.6-0.3c0.5-0.2,0.9-0.6,1.3-1s0.5-1,0.5-1.6v-2.1l-2.7,0.6c-1.1,0.2-1.8,0.5-2.3,1
	s-0.7,0.9-0.7,1.6c0,0.6,0.2,1.1,0.6,1.4C291.2,284.7,291.8,284.9,292.5,284.9L292.5,284.9z"/>
<path id="path51" fill="#B6D620" d="M304.1,274c0.5,0,0.9,0.1,1.2,0.4l-0.3,1.1c-0.3-0.3-0.7-0.4-1.2-0.4s-1,0.2-1.4,0.5
	c-0.4,0.4-0.8,0.9-1.1,1.5c-0.3,0.6-0.4,1.4-0.4,2.2v6.4h-1v-11.4h0.8l0.1,2.3c0.3-0.8,0.7-1.4,1.2-1.9
	C302.7,274.2,303.4,274,304.1,274z"/>
<path id="path53" fill="#B6D620" d="M314.2,279.6c0,0.3,0,0.5,0,0.8h-7.7c0.1,1.4,0.4,2.5,1.1,3.3s1.5,1.2,2.6,1.2
	c0.8,0,1.4-0.2,2-0.5c0.6-0.4,1-0.9,1.2-1.6l0.8,0.5c-0.4,0.8-0.9,1.5-1.6,1.9s-1.5,0.7-2.4,0.7c-1.4,0-2.6-0.5-3.4-1.6
	s-1.2-2.5-1.2-4.4s0.4-3.3,1.2-4.4c0.8-1.1,1.9-1.6,3.3-1.6c1.3,0,2.4,0.5,3.1,1.6C313.8,276.6,314.2,277.9,314.2,279.6z M310,275
	c-1.1,0-1.9,0.4-2.5,1.2c-0.6,0.8-1,1.8-1,3.2h6.9c-0.1-1.4-0.4-2.4-1-3.2S311,275,310,275z"/>
</svg>
