<svg  viewBox="0 0 512 52" xmlns="http://www.w3.org/2000/svg"><path d="m439.81 52-7.54-14.39h-10.05v14.39h-13.52v-52h23.28c6.84 0 12.16 1.59 15.92 4.78 7.99 6.77 8.31 23.97-3.59 30.23l10.79 16.99zm-17.59-25.22h9.83c10.22 0 10.12-10.52 6.39-13.91-3.42-3.09-8.31-1.67-16.22-2.04z" fill="#cfe0f5"/><path d="m389.63 52-3.55-9.2h-22.38l-3.62 9.2h-13.89l22.24-52h13.89l21.72 52zm-21.87-19.58h14.34l-7.1-18.55z" fill="#cfe0f5"/><path d="m282.19 0h14.71l15 30.41 14.92-30.41h14.71v52h-11.97l-.07-32.94-13.23 27.74h-8.72l-13.3-27.74v32.94h-12.05z" fill="#cfe0f5"/><g fill="#92b1e1"><path d="m243.41 52h-21.8v-52h22.31c36.81 0 37.19 52-.51 52zm.22-40.95h-8.5v29.97h9.17c17.99 0 18.04-29.97-.67-29.97z"/><path d="m198.92 0h12.56v52h-11.82l-23.5-31.08v31.08h-12.63v-52h11.9l23.57 31.3z"/><path d="m144.46 52-3.55-9.2h-22.39l-3.62 9.2h-13.89l22.24-52h13.89l21.72 52zm-21.87-19.58h14.34l-7.1-18.54z"/><path d="m84.02 52-7.54-14.39h-10.05v14.39h-13.52v-52h23.28c23.69 0 23.96 19.82 19.21 28.37-1.58 2.85-3.87 5.06-6.87 6.64l10.78 16.99zm-17.59-25.22h9.83c10.22 0 10.12-10.52 6.39-13.91-3.42-3.09-8.31-1.67-16.22-2.04z"/><path d="m34.88 24.41c15.02 2.92 16.52 27.59-9.31 27.59h-25.57v-52h24.61c24.23 0 23.26 20.91 10.27 24.41zm-6.58-12.58c-2.43-1.94-5.25-.97-14.78-1.22v10.09c8.85-.29 12.2.81 14.78-1.37 2.13-1.81 2.25-5.7 0-7.5zm-4.43 18.73h-10.35v10.91c8.46-.29 12.73.83 15.96-1.48 3.55-2.55 3.16-9.6-5.61-9.43z"/></g><path d="m512 52h-16.18l-13.6-20.18-6.5 7.27v12.91h-13.52v-52h13.52v22.55l19.43-22.55h15.67l-19.21 21.44z" fill="#cfe0f5"/></svg>
