<svg  viewBox="0 0 260.52 58.72"  xmlns="http://www.w3.org/2000/svg"><g fill="#282d33"><path d="m33.67 34.35-17-34.35h-16.67v58.72h13.65v-37.19l15.08 31.33h9.88l14.99-31.33.08 37.19h13.57v-58.72h-16.66z"/><path d="m97.75 0-25.22 58.72h15.75l4.1-10.39h25.38l4.02 10.39h16.34l-24.62-58.72zm-.76 36.6 8.21-20.94 8.04 20.94z"/><path d="m191.56 32.04c5.26-9.43 5.46-32.04-21.77-32.04h-26.39v58.72h15.33v-16.25h11.39l8.54 16.25h17.34l-12.23-19.18c3.41-1.79 6-4.29 7.79-7.5zm-14.44-4.14c-3.89 3.57-9.44 1.93-18.39 2.35 0-10.62 0-7.42 0-18.02h11.14c11.93 0 11.23 12 7.25 15.67z"/><path d="m237.4 24.21 21.77-24.21h-17.76l-22.03 25.47v-25.47h-15.33v58.72h15.33v-14.58l7.37-8.21 15.42 22.79h18.35z"/></g></svg>