<svg  viewBox="0 0 307.93 58.72" xmlns="http://www.w3.org/2000/svg"><g fill="#fff"><path d="m48.37 32.66c-2.15-2.68-5.1-4.38-8.84-5.11 12.61-3.38 14.58-20.35-.13-25.75-3.25-1.2-7.09-1.8-11.5-1.8h-27.9v58.72h28.99c7.33 0 15.51-1.79 19.85-7.67 3.99-5.37 3.55-13.37-.47-18.39zm-21.31-9.28h-11.73v-.01-11.39c10.86.32 14.01-.81 16.76 1.39 3.15 2.51 2.89 10.01-5.03 10.01zm6.36 12.68c3.34 2.33 2.97 6.97 0 9.09-3.64 2.61-8.49 1.35-18.09 1.68v-.01-12.31c10.51.33 14.6-.86 18.09 1.55z"/><path d="m100.36 39.54c7.19-3.78 10.47-10.61 10.47-18.93 0-14.13-10.22-20.61-24.46-20.61h-26.39v58.72h15.33v-16.25h11.06.34l8.54 16.25h17.34zm-6.66-11.64c-3.89 3.57-9.44 1.93-18.39 2.35v-.01-18.01h11.14c11.93 0 11.23 12 7.25 15.67z"/><path d="m155.48 0h-15.75l-25.21 58.72h15.75l4.1-10.39h25.38l4.02 10.39h16.34zm-16.5 36.6 8.21-20.94 8.04 20.94z"/><path d="m225.51 0 .08 35.35-26.72-35.35h-13.49v58.72h14.33v-35.1l26.64 35.1h13.4v-58.72z"/><path d="m276.52 0h-25.3v58.72h24.71c42.86 0 42.29-58.72.59-58.72zm-9.96 46.32v-33.84h9.63c13.97 0 19.32 15.17 13.98 25.81-5.18 10.33-15.25 7.68-23.61 8.04z"/></g></svg>